SplineFontDB: 3.2
FontName: monoreal-bolditalic
FullName: mono real-BoldItalic
FamilyName: mono real
Weight: Bold
Copyright: 2020 tigger04 based on Monoid by larsenworks
Version: 1
ItalicAngle: 0
UnderlinePosition: -504
UnderlineWidth: 120
Ascent: 1228
Descent: 308
InvalidEm: 0
sfntRevision: 0x00010000
LayerCount: 2
Layer: 0 1 "Back" 1
Layer: 1 1 "Fore" 0
XUID: [1021 796 -163880829 11107988]
StyleMap: 0x0000
FSType: 0
OS2Version: 4
OS2_WeightWidthSlopeOnly: 0
OS2_UseTypoMetrics: 1
CreationTime: 1427918972
ModificationTime: 1606783054
PfmFamily: 17
TTFWeight: 300
TTFWidth: 4
LineGap: 0
VLineGap: 0
Panose: 2 0 3 3 0 0 0 0 0 0
OS2TypoAscent: 1664
OS2TypoAOffset: 0
OS2TypoDescent: -384
OS2TypoDOffset: 0
OS2TypoLinegap: 0
OS2WinAscent: 1664
OS2WinAOffset: 0
OS2WinDescent: 384
OS2WinDOffset: 0
HheadAscent: 1664
HheadAOffset: 0
HheadDescent: -384
HheadDOffset: 0
OS2SubXSize: 998
OS2SubYSize: 1075
OS2SubXOff: 0
OS2SubYOff: 215
OS2SupXSize: 998
OS2SupYSize: 1075
OS2SupXOff: 0
OS2SupYOff: 737
OS2StrikeYSize: 76
OS2StrikeYPos: 397
OS2CapHeight: 1408
OS2XHeight: 1024
OS2Vendor: 'PfEd'
OS2CodePages: 0000009f.00000000
OS2UnicodeRanges: 800002ff.10045063.00000000.00000000
Lookup: 1 0 0 "'rtla' Right to Left Alternates lookup 0" { "'rtla' Right to Left Alternates lookup 0 subtable"  } ['rtla' ('DFLT' <'dflt' > ) ]
Lookup: 254 0 0 "<2,2> Cursive lookup 1" { "<2,2> Cursive lookup 1 subtable"  } [<2,2> ('DFLT' <'dflt' > ) ]
Lookup: 1 0 0 "<2,2> Cursive lookup 1 nested-substitutions 0" { "<2,2> Cursive lookup 1 nested-substitutions 0 subtable"  } []
Lookup: 254 0 0 "<2,2> Cursive in Hiragana & Katakana lookup 3" { "<2,2> Cursive in Hiragana & Katakana lookup 3 subtable"  } [<2,2> ('DFLT' <'dflt' > 'kana' <'dflt' > ) ]
Lookup: 1 0 0 "<2,2> Cursive in Hiragana & Katakana lookup 3 nested-substitutions 0" { "<2,2> Cursive in Hiragana & Katakana lookup 3 nested-substitutions 0 subtable"  } []

StartChar: .notdef
Encoding: 65536 -1 0
Width: 561
Flags: W
LayerCount: 2
Fore
SplineSet
497 0 m 1
 13 0 l 1
 13 1024 l 1
 497 1024 l 1
 497 0 l 1
370 897 m 1
 140 897 l 1
 140 127 l 1
 370 127 l 1
 370 897 l 1
EndSplineSet
EndChar

StartChar: exclam
Encoding: 33 33 4
Width: 1024
Flags: W
LayerCount: 2
Fore
SplineSet
339.534220951 286.758002036 m 0
 402.595288161 348 402.595288161 348 489 348 c 0
 559.027568689 348 559.027568689 348 602.492241051 307.210076707 c 0
 624.635861031 286.429141033 624.635861031 286.429141033 635.817930515 258.387896909 c 0
 647 230.346652785 647 230.346652785 647 198 c 0
 647 106.943501003 647 106.943501003 583.702355919 45.4717505015 c 0
 520.404711839 -16 520.404711839 -16 433 -16 c 0
 362.802082151 -16 362.802082151 -16 319.401041075 25.366617275 c 0
 276 66.73323455 276 66.73323455 276 134 c 0
 276 178.594928226 276 178.594928226 292.105809524 217.466932476 c 0
 308.211619048 256.338936727 308.211619048 256.338936727 339.534220951 286.758002036 c 0
630.995695255 436 m 1
 426.407747833 436 l 1
 604.318462118 1408 l 1
 830.602838112 1408 l 1
 630.995695255 436 l 1
EndSplineSet
Substitution2: "<2,2> Cursive lookup 175 nested-substitutions 0 subtable" exclam.2r
Substitution2: "<2,2> Cursive lookup 173 nested-substitutions 0 subtable" exclam.2l
Substitution2: "<2,2> Cursive lookup 67 nested-substitutions 0 subtable" larsenwork2
Substitution2: "<2,2> Cursive lookup 61 nested-substitutions 0 subtable" larsenwork1
Substitution2: "<2,2> Cursive lookup 16 nested-substitutions 0 subtable" larsenwork5
EndChar

StartChar: quotedbl
Encoding: 34 34 5
Width: 1024
Flags: W
LayerCount: 2
Fore
SplineSet
870.697878474 1408 m 1
 1076.14587153 1408 l 1
 936.302121526 692 l 1
 730.854128474 692 l 1
 870.697878474 1408 l 1
486.697878474 1408 m 1
 692.145871526 1408 l 1
 552.302121526 692 l 1
 346.854128474 692 l 1
 486.697878474 1408 l 1
EndSplineSet
EndChar

StartChar: numbersign
Encoding: 35 35 6
Width: 1024
Flags: W
LayerCount: 2
Fore
SplineSet
694.688287535 542 m 1
 757.868287535 904 l 1
 579.311712465 904 l 1
 516.131712465 542 l 1
 694.688287535 542 l 1
787.302121526 -1.56319401867e-13 m 1
 581.854128474 -1.56319401867e-13 l 1
 656.854128474 346 l 1
 478.302121526 346 l 1
 403.302121526 -7.81597009336e-14 l 1
 197.854128474 -9.94759830064e-14 l 1
 272.854128474 358.84137931 l 1
 145.019100348 358.84137931 l 1
 182.585767014 542 l 1
 310.688287535 542 l 1
 373.868287535 904 l 1
 246.019100348 904 l 1
 283.585767014 1024 l 1
 411.697878474 1024 l 1
 486.697878474 1408 l 1
 692.145871526 1408 l 1
 617.145871526 1024 l 1
 795.697878474 1024 l 1
 870.697878474 1408 l 1
 1076.14587153 1408 l 1
 1001.14587153 1024 l 1
 1128.98089965 1024 l 1
 1091.41423299 904 l 1
 963.311712465 904 l 1
 900.131712465 542 l 1
 1027.98089965 542 l 1
 990.414232986 346 l 1
 862.302121526 346 l 1
 787.302121526 -1.56319401867e-13 l 1
EndSplineSet
EndChar

StartChar: dollar
Encoding: 36 36 7
Width: 1024
Flags: W
LayerCount: 2
Fore
SplineSet
745.602134955 1423.33834266 m 1
 767.732103361 1536 l 1
 973.203390709 1536 l 1
 949.597637345 1415.91855897 l 1
 1038.07136548 1409.28237817 1038.07136548 1409.28237817 1167.26677131 1393.87375179 c 1
 1128.47430079 1198.29504629 l 1
 982.129961834 1214.9014961 982.129961834 1214.9014961 910.880536989 1220.63363017 c 1
 818.694921483 773.198359629 l 1
 907.612717225 741.625882892 907.612717225 741.625882892 965.414128454 675.125526981 c 0
 1035 595.067183667 1035 595.067183667 1035 476.784727805 c 0
 1035 334.352143258 1035 334.352143258 957.218080933 220.882388819 c 0
 879.436161866 107.41263438 879.436161866 107.41263438 757.431911446 47.9133868132 c 0
 650.243874623 -4.36026363107 650.243874623 -4.36026363107 528.638650844 -14.1125240522 c 1
 506.267896639 -128 l 1
 301.035469096 -128 l 1
 323.617097791 -9.95966818414 l 1
 221.400028994 -1.89896159224 221.400028994 -1.89896159224 106.938517001 16.4817191656 c 2
 68.1714621009 22.707085646 l 1
 106.778115089 206.947010861 l 1
 201.725153734 192.211747566 201.725153734 192.211747566 256.459161069 185.687271647 c 0
 311.193168404 179.162795728 311.193168404 179.162795728 362.170311259 175.18024265 c 1
 461.154725418 647.556883734 l 1
 369.912544493 677.732082313 369.912544493 677.732082313 312.312959915 742.005250817 c 0
 243 819.348925858 243 819.348925858 243 933.661479498 c 0
 243 990.330262503 243 990.330262503 259.785477961 1050.83383117 c 0
 276.570955922 1115.80987489 276.570955922 1115.80987489 316.954986776 1183.11659298 c 0
 357.339017631 1250.42331107 357.339017631 1250.42331107 416.109678977 1303.26298825 c 0
 476.232843939 1357.31867785 476.232843939 1357.31867785 570.821721912 1390.83016604 c 0
 651.215734782 1419.31261632 651.215734782 1419.31261632 745.602134955 1423.33834266 c 1
457.052132574 1016.03549765 m 0
 449 980.695582467 449 980.695582467 449 947 c 0
 449 901.95638204 449 901.95638204 466.464733487 870.907966952 c 0
 483.929466974 839.859551864 483.929466974 839.859551864 512.671985087 823.597337669 c 0
 563.577037419 794.795794902 563.577037419 794.795794902 621.351053537 785.665698153 c 1
 706.486225543 1225.6712406 l 1
 662.998566947 1221.13856624 662.998566947 1221.13856624 626.541577913 1207.80064342 c 0
 572.118846316 1187.88988796 572.118846316 1187.88988796 540.697934845 1159.01661796 c 0
 508.304135555 1129.24934293 508.304135555 1129.24934293 486.589306996 1089.80812371 c 0
 464.874478436 1050.36690449 464.874478436 1050.36690449 457.052132574 1016.03549765 c 0
785.16293795 288.458744756 m 0
 829 357.978125987 829 357.978125987 829 449 c 0
 829 532.201688837 829 532.201688837 776.480807648 572.271887446 c 0
 728.852528427 608.610500481 728.852528427 608.610500481 659.537938597 620.092342913 c 1
 567.222964241 147.507428321 l 1
 623.540865744 157.387196927 623.540865744 157.387196927 672.938895723 183.201651303 c 0
 741.325875899 218.939363524 741.325875899 218.939363524 785.16293795 288.458744756 c 0
EndSplineSet
EndChar

StartChar: percent
Encoding: 37 37 8
Width: 1024
Flags: W
LayerCount: 2
Fore
SplineSet
788 308.333333333 m 0
 788 370 788 370 707 370 c 0
 673.524249402 370 673.524249402 370 649.411598899 360.999973475 c 0
 625.298948397 351.99994695 625.298948397 351.99994695 606.233720726 332.6002416 c 0
 568 293.695753844 568 293.695753844 568 241.666666667 c 0
 568 210.54807812 568 210.54807812 587.908919878 195.27403906 c 0
 607.817839757 180 607.817839757 180 648 180 c 0
 708.415329565 180 708.415329565 180 748.207664782 215.786836128 c 0
 788 251.573672256 788 251.573672256 788 308.333333333 c 0
468.266223192 459.457387712 m 0
 574.532446385 566 574.532446385 566 731 566 c 0
 849.54585499 566 849.54585499 566 921.772927495 499.311227608 c 0
 994 432.622455215 994 432.622455215 994 328.506451613 c 0
 994 244.292798159 994 244.292798159 948.366760896 165.933597258 c 0
 902.672652925 87.4698752703 902.672652925 87.4698752703 816.914968262 36.0527444178 c 0
 730.097155451 -16 730.097155451 -16 625 -16 c 0
 506.45414501 -16 506.45414501 -16 434.227072505 50.6887723923 c 0
 362 117.377544785 362 117.377544785 362 221.493548387 c 0
 362 352.914775423 362 352.914775423 468.266223192 459.457387712 c 0
1195.99580127 1064.82248992 m 1
 67.7264927985 120 l 1
 -50.9958012682 267.152633323 l 1
 1077.2735072 1211.97124876 l 1
 1195.99580127 1064.82248992 l 1
578 1154 m 0
 578 1228 578 1228 497 1228 c 0
 432.988655705 1228 432.988655705 1228 396.911611658 1183.94803043 c 0
 358 1136.43490461 358 1136.43490461 358 1074 c 0
 358 1036.65769374 358 1036.65769374 377.908919878 1018.32884687 c 0
 397.817839757 1000 397.817839757 1000 438 1000 c 0
 498.415329565 1000 498.415329565 1000 538.207664782 1042.94420335 c 0
 578 1085.88840671 578 1085.88840671 578 1154 c 0
258.266223192 1310.50099722 m 0
 364.532446385 1424 364.532446385 1424 521 1424 c 0
 639.54585499 1424 639.54585499 1424 711.772927495 1352.95697786 c 0
 784 1281.91395573 784 1281.91395573 784 1171 c 0
 784 1081.28786058 784 1081.28786058 738.366760896 997.812423196 c 0
 692.672652925 914.225640322 692.672652925 914.225640322 606.914968262 859.451377215 c 0
 520.097155451 804 520.097155451 804 415 804 c 0
 296.45414501 804 296.45414501 804 224.227072505 875.043022136 c 0
 152 946.086044272 152 946.086044272 152 1057 c 0
 152 1197.00199444 152 1197.00199444 258.266223192 1310.50099722 c 0
EndSplineSet
EndChar

StartChar: ampersand
Encoding: 38 38 9
Width: 1024
Flags: W
LayerCount: 2
Fore
SplineSet
266.561514922 566.35034963 m 0
 193 488.848039266 193 488.848039266 193 378 c 0
 193 291.688767595 193 291.688767595 257.931848084 237.096385766 c 0
 325.841943276 180 325.841943276 180 456 180 c 0
 576.738189241 180 576.738189241 180 660.49553748 231.857655886 c 1
 423.95650333 672.279215739 l 1
 333.326889761 636.692440979 333.326889761 636.692440979 266.561514922 566.35034963 c 0
816.76640224 1042.01995272 m 0
 825 1072.55920512 825 1072.55920512 825 1107 c 0
 825 1164.90000278 825 1164.90000278 790.319102563 1198.45000139 c 0
 755.638205126 1232 755.638205126 1232 690 1232 c 0
 594.07295984 1232 594.07295984 1232 533.53647992 1163.78988178 c 0
 473 1095.57976356 473 1095.57976356 473 1007 c 0
 473 988.70717267 473 988.70717267 476.868520335 973.23309133 c 0
 482.268604494 951.632754693 482.268604494 951.632754693 484.033052455 946.842668678 c 0
 496.268527702 913.626059181 496.268527702 913.626059181 522.552807593 864.343034386 c 0
 542.845491839 826.145167427 542.845491839 826.145167427 543.436062005 825.035660008 c 0
 676.650243313 860.942138578 676.650243313 860.942138578 749.030338944 931.254231477 c 0
 800.341880378 981.09972887 800.341880378 981.09972887 816.76640224 1042.01995272 c 0
848.577164728 670.76641729 m 1
 1053.96831408 670.76641729 l 1
 1005.30491598 432.56422197 l 2
 974.96221322 285.993739546 974.96221322 285.993739546 910.929737058 200.133856013 c 1
 1025.50225996 2.13162820728e-14 l 1
 784.016263034 1.42108547152e-14 l 1
 749.684593513 65.4696953658 l 1
 612.549583817 -16 612.549583817 -16 433 -16 c 0
 224.575504729 -16 224.575504729 -16 105.787752364 83.3779546238 c 0
 -13 182.755909248 -13 182.755909248 -13 335.469297398 c 0
 -13 499.416271082 -13 499.416271082 103.073845187 627.700385691 c 0
 201.643998458 736.639525417 201.643998458 736.639525417 334.447050796 790.515434668 c 1
 318.279152069 819.614590791 318.279152069 819.614590791 309.93480072 835.922391916 c 0
 294.331639098 866.416464613 294.331639098 866.416464613 280.940808521 910.831369888 c 0
 267 957.070450154 267 957.070450154 267 998.598932494 c 0
 267 1118.75552043 267 1118.75552043 339.730334623 1224.63144136 c 0
 362.484511929 1259.78458686 362.484511929 1259.78458686 391.284234014 1290.48617739 c 0
 449.561500383 1352.61194248 449.561500383 1352.61194248 534.076185032 1390.23460855 c 0
 618.911484676 1428 618.911484676 1428 714 1428 c 0
 857.356037762 1428 857.356037762 1428 944.178018881 1344.05291892 c 0
 1031 1260.10583784 1031 1260.10583784 1031 1127 c 0
 1031 966.857156939 1031 966.857156939 905.811733394 840.909227535 c 0
 798.252993708 732.697803893 798.252993708 732.697803893 634.773879644 684.154274665 c 1
 793.776282225 405.610685528 l 1
 798.473963812 424.449811842 798.473963812 424.449811842 802.611803692 445.770178005 c 2
 848.577164728 670.76641729 l 1
EndSplineSet
Substitution2: "<2,2> Cursive lookup 159 nested-substitutions 0 subtable" ampersand.method
Substitution2: "<2,2> Cursive lookup 157 nested-substitutions 0 subtable" larsenwork6
Substitution2: "<2,2> Cursive lookup 155 nested-substitutions 0 subtable" ampamp
EndChar

StartChar: quotesingle
Encoding: 39 39 10
Width: 1024
Flags: W
LayerCount: 2
Fore
SplineSet
614.697878474 1408 m 1
 819.075111107 1408 l 1
 680.350111107 692 l 1
 474.854128474 692 l 1
 614.697878474 1408 l 1
EndSplineSet
EndChar

StartChar: parenleft
Encoding: 40 40 11
Width: 1024
Flags: W
LayerCount: 2
Fore
SplineSet
500 486 m 0
 500 340.776954077 500 340.776954077 552.064759425 234.004463715 c 0
 616.212267832 105.264800656 616.212267832 105.264800656 761.31367849 31.5711933885 c 2
 798.733969949 10.9301073528 l 1
 679.479271042 -155.822361711 l 1
 650.060698805 -140.023498843 l 2
 478.429469855 -53.1646792811 478.429469855 -53.1646792811 386.214734928 98.6584819953 c 0
 294 251.874456064 294 251.874456064 294 465 c 0
 294 682.875265242 294 682.875265242 366.430131345 888.111640772 c 0
 400.270471819 983.409263532 400.270471819 983.409263532 446.304185855 1062.95964239 c 0
 514.774857311 1181.91681998 514.774857311 1181.91681998 604.607923419 1281.16279745 c 0
 694.440989527 1379.77988895 694.440989527 1379.77988895 789.641835801 1444.52089657 c 0
 884.814398291 1508.91376338 884.814398291 1508.91376338 981.974301114 1546.01541342 c 2
 1019.65754346 1561.00767113 l 1
 1077.12835169 1383.5192787 l 1
 1044.01317515 1370.35811879 l 2
 970.465538389 1342.75212914 970.465538389 1342.75212914 896.852029069 1292.06802499 c 0
 822.955955982 1240.52866841 822.955955982 1240.52866841 750.860765565 1160.06052709 c 0
 678.473727414 1078.57362463 678.473727414 1078.57362463 622.889770278 980.16927632 c 0
 567.67688348 882.688559851 567.67688348 882.688559851 533.845116325 753.863588363 c 0
 500 624.432306658 500 624.432306658 500 486 c 0
EndSplineSet
Substitution2: "<2,2> Cursive in Hiragana & Katakana lookup 3 nested-substitutions 0 subtable" parenleft.shrug
Substitution2: "'rtla' Right to Left Alternates lookup 0 subtable" parenright
EndChar

StartChar: parenright
Encoding: 41 41 12
Width: 1024
Flags: W
LayerCount: 2
Fore
SplineSet
645 919 m 0
 645 1122.78400985 645 1122.78400985 540.232346742 1252.4342262 c 0
 480.05094611 1325.17528112 480.05094611 1325.17528112 387.739165382 1368.30890757 c 2
 349.800357596 1387.70619275 l 1
 465.023759541 1561.26167085 l 1
 495.125958197 1546.02243278 l 2
 665.354236694 1465.05152844 665.354236694 1465.05152844 758.537177614 1311.45939031 c 0
 851 1157.07448519 851 1157.07448519 851 940 c 0
 851 746.371893823 851 746.371893823 795.890334521 563.531414899 c 0
 740.797244052 392.496345255 740.797244052 392.496345255 646.746548663 259.038790443 c 0
 552.824359347 121.088069571 552.824359347 121.088069571 428.4191094 17.1640622884 c 0
 304.013859454 -85.8931397846 304.013859454 -85.8931397846 164.180784596 -140.015833654 c 2
 124.57426518 -155.976669837 l 1
 74.4408560007 27.8394289379 l 1
 105.803445833 40.4945090456 l 2
 213.625156086 81.6841859929 213.625156086 81.6841859929 310.641574824 164.078141098 c 0
 408.677949941 239.914296609 408.677949941 239.914296609 482.841426828 341.241796856 c 0
 556.999432969 458.738897495 556.999432969 458.738897495 601.013738659 609.645088433 c 0
 645 760.455127316 645 760.455127316 645 919 c 0
EndSplineSet
Substitution2: "<2,2> Cursive in Hiragana & Katakana lookup 5 nested-substitutions 0 subtable" parenright.shrug
Substitution2: "'rtla' Right to Left Alternates lookup 0 subtable" parenleft
EndChar

StartChar: asterisk
Encoding: 42 42 13
Width: 1024
Flags: W
LayerCount: 2
Fore
SplineSet
465.111341575 642.33072964 m 1
 539.701528929 1024 l 1
 745.151262949 1024 l 1
 671.451441527 646.886628048 l 1
 1043.93876772 760.913360558 l 1
 1077.28363672 572.514850705 l 1
 691.276262151 454.190982117 l 1
 858.036678918 142.124705128 l 1
 672.860559872 37.8658817991 l 1
 512.795571317 335.950980246 l 1
 240.143076774 39.4652256898 l 1
 85.0662003409 151.187276453 l 1
 368.911934879 460.135014726 l 1
 30.4898090905 578.099298573 l 1
 132.569473892 758.333706738 l 1
 465.111341575 642.33072964 l 1
EndSplineSet
Substitution2: "<2,2> Cursive lookup 230 nested-substitutions 0 subtable" asterisk.commentend
Substitution2: "<2,2> Cursive lookup 228 nested-substitutions 0 subtable" asterisk.commentstart
Substitution2: "<2,2> Cursive lookup 226 nested-substitutions 0 subtable" asterisk.commentstart
Substitution2: "<2,2> Cursive lookup 161 nested-substitutions 0 subtable" asterisk.period
EndChar

StartChar: plus
Encoding: 43 43 14
Width: 1024
Flags: W
LayerCount: 2
Fore
SplineSet
566.636020002 1024 m 1
 772.054701648 1024 l 1
 697.054701648 661.246575342 l 1
 1081.35867557 661.246575342 l 1
 1042.15867557 478 l 1
 658.363979998 478 l 1
 583.363979998 90 l 1
 377.945298352 90 l 1
 452.945298352 478 l 1
 68.6413244265 478 l 1
 107.841324427 674 l 1
 491.636020002 674 l 1
 566.636020002 1024 l 1
EndSplineSet
EndChar

StartChar: comma
Encoding: 44 44 15
Width: 1024
Flags: W
LayerCount: 2
Fore
SplineSet
284.713855621 444 m 1
 618.226994131 444 l 1
 541.256710567 53.4890025044 l 2
 532.045550729 8.45666552116 532.045550729 8.45666552116 525.967057423 -15.3047174013 c 0
 519.888564118 -39.0661003239 519.888564118 -39.0661003239 498.286711082 -83.9314873989 c 0
 476.684858045 -128.796874474 476.684858045 -128.796874474 441.589945927 -165.122750711 c 0
 392.409631533 -218.091650909 392.409631533 -218.091650909 329.0262427 -245.045825097 c 0
 265.642853867 -271.999999285 265.642853867 -271.999999285 191 -272 c 2
 145.019100348 -272 l 1
 182.585767014 -76 l 1
 214 -76 l 2
 285.80418101 -76 285.80418101 -76 315.563288915 -12.4237240212 c 0
 325.015748629 7.77016718651 325.015748629 7.77016718651 328.479448664 21.6249673271 c 0
 332.913794803 39.3623518815 332.913794803 39.3623518815 350.641324427 128 c 1
 222.830522288 128 l 1
 284.713855621 444 l 1
EndSplineSet
EndChar

StartChar: hyphen
Encoding: 45 45 16
Width: 1024
Flags: W
LayerCount: 2
Fore
SplineSet
69.6413244265 478 m 1
 108.841324427 674 l 1
 1082.35867557 674 l 1
 1043.15867557 478 l 1
 69.6413244265 478 l 1
EndSplineSet
Substitution2: "<2,2> Cursive lookup 133 nested-substitutions 0 subtable" hyphen.more
Substitution2: "<2,2> Cursive lookup 131 nested-substitutions 0 subtable" hyphen.more
Substitution2: "<2,2> Cursive lookup 129 nested-substitutions 0 subtable" hyphen.operator
Substitution2: "<2,2> Cursive lookup 57 nested-substitutions 0 subtable" larsenwork
Substitution2: "<2,2> Cursive lookup 55 nested-substitutions 0 subtable" arrowleft.liga
Substitution2: "<2,2> Cursive lookup 47 nested-substitutions 0 subtable" larsenwork1
Substitution2: "<2,2> Cursive lookup 41 nested-substitutions 0 subtable" ligaarrowlefttwoheads
Substitution2: "<2,2> Cursive lookup 31 nested-substitutions 0 subtable" larsenwork
Substitution2: "<2,2> Cursive lookup 29 nested-substitutions 0 subtable" larsenwork
Substitution2: "<2,2> Cursive lookup 27 nested-substitutions 0 subtable" ligaarrowleftlong
Substitution2: "<2,2> Cursive lookup 25 nested-substitutions 0 subtable" larsenwork3
Substitution2: "<2,2> Cursive lookup 20 nested-substitutions 0 subtable" commentstart
Substitution2: "<2,2> Cursive lookup 18 nested-substitutions 0 subtable" larsenwork5
EndChar

StartChar: period
Encoding: 46 46 17
Width: 1024
Flags: W
LayerCount: 2
Fore
SplineSet
247.713855621 316 m 1
 581.169477712 316 l 1
 519.286144379 4.26325641456e-14 l 1
 185.830522288 2.13162820728e-14 l 1
 247.713855621 316 l 1
EndSplineSet
Substitution2: "<2,2> Cursive lookup 202 nested-substitutions 0 subtable" period.2r
Substitution2: "<2,2> Cursive lookup 200 nested-substitutions 0 subtable" period.2l
Substitution2: "<2,2> Cursive lookup 196 nested-substitutions 0 subtable" larsenwork
Substitution2: "<2,2> Cursive lookup 194 nested-substitutions 0 subtable" larsenwork
Substitution2: "<2,2> Cursive lookup 192 nested-substitutions 0 subtable" period.x3
Substitution2: "<2,2> Cursive lookup 190 nested-substitutions 0 subtable" larsenwork
Substitution2: "<2,2> Cursive lookup 188 nested-substitutions 0 subtable" larsenwork
EndChar

StartChar: slash
Encoding: 47 47 18
Width: 1024
Flags: W
LayerCount: 2
Fore
SplineSet
80.7501454809 -170.510429396 m 1
 -90.2653146453 -82.5121829236 l 1
 1065.24985452 1578.5104294 l 1
 1236.26531465 1490.51218292 l 1
 80.7501454809 -170.510429396 l 1
EndSplineSet
Substitution2: "<2,2> Cursive lookup 224 nested-substitutions 0 subtable" ligadoubleslash
Substitution2: "<2,2> Cursive lookup 222 nested-substitutions 0 subtable" larsenwork
Substitution2: "<2,2> Cursive lookup 7 nested-substitutions 0 subtable" slash.shrug
EndChar

StartChar: zero
Encoding: 48 48 19
Width: 1024
Flags: W
LayerCount: 2
Fore
SplineSet
416.703570325 188.979790843 m 0
 433.102820341 182 433.102820341 182 457 182 c 0
 554.775212584 182 554.775212584 182 625.162014983 319.297713321 c 0
 649.546151549 366.846779624 649.546151549 366.846779624 682.219541568 498.961201812 c 0
 698.035004026 562.91081595 698.035004026 562.91081595 722.601064881 688.307151806 c 0
 747.167125736 813.703487663 747.167125736 813.703487663 756.884703129 866.119265857 c 1
 359.592493722 271.361027615 l 1
 375.895853921 206.348226901 375.895853921 206.348226901 416.703570325 188.979790843 c 0
758.028318224 1197.63811553 m 0
 733.742141595 1226 733.742141595 1226 689 1226 c 0
 590.224787416 1226 590.224787416 1226 519.837985017 1088.70228668 c 0
 495.076220913 1040.41684668 495.076220913 1040.41684668 462.307598256 906.895574586 c 0
 454.072136609 873.338799043 454.072136609 873.338799043 445.16667094 829.92465391 c 0
 417.625337561 695.660653684 417.625337561 695.660653684 389.115877754 541.881603743 c 1
 786.407506278 1136.63897238 l 1
 776.528566619 1176.03315417 776.528566619 1176.03315417 758.028318224 1197.63811553 c 0
595.133503228 1407.20439975 m 0
 651.22658481 1426 651.22658481 1426 713 1426 c 0
 788.89726215 1426 788.89726215 1426 846.957323895 1397.26320176 c 0
 905.01738564 1368.52640353 905.01738564 1368.52640353 937.065878372 1320.16231449 c 0
 998 1228.20718549 998 1228.20718549 998 1104 c 0
 998 998.572322386 998 998.572322386 933.331019288 687.559113541 c 0
 895.162962411 499.760870344 895.162962411 499.760870344 876.344228876 430.148691527 c 0
 847.637246259 323.958994774 847.637246259 323.958994774 821.507584172 262.521392137 c 0
 795.751921601 201.96315922 795.751921601 201.96315922 750.908311271 145.000063628 c 0
 665.73206364 36.8039861878 665.73206364 36.8039861878 550.866496772 0.795600249068 c 0
 494.77341519 -18 494.77341519 -18 433 -18 c 0
 334.846062305 -18 334.846062305 -18 267.71591045 29.8667169749 c 0
 200.585758595 74.4108416247 200.585758595 74.4108416247 173.792879297 139.661279188 c 0
 147 204.911716751 147 204.911716751 147 284.971472459 c 0
 147 385.188260053 147 385.188260053 212.668980712 699.203100042 c 0
 239.759225199 831.788069225 239.759225199 831.788069225 255.462982049 899.199678222 c 0
 271.166738898 966.61128722 271.166738898 966.61128722 297.493444334 1048.75592819 c 0
 323.820149769 1137.02782288 323.820149769 1137.02782288 354.0481708 1189.92685969 c 0
 451.480461673 1359.06931664 451.480461673 1359.06931664 595.133503228 1407.20439975 c 0
EndSplineSet
EndChar

StartChar: one
Encoding: 49 49 20
Width: 1024
Flags: W
LayerCount: 2
Fore
SplineSet
283.950128434 1089.78689465 m 1
 782.916936489 1408 l 1
 948.113696886 1408 l 1
 659.323924159 8.52651282912e-14 l 1
 453.903545019 2.13162820728e-14 l 1
 689.303075644 1136.01576512 l 1
 362.489140844 929.218247052 l 1
 283.950128434 1089.78689465 l 1
EndSplineSet
EndChar

StartChar: two
Encoding: 50 50 21
Width: 1024
Flags: W
LayerCount: 2
Fore
SplineSet
379.910417755 1392.33860464 m 2
 547.409412537 1424 547.409412537 1424 681 1424 c 0
 854.274034053 1424 854.274034053 1424 940.137017027 1341.59458681 c 0
 1026 1259.18917362 1026 1259.18917362 1026 1130 c 0
 1026 1054.72085788 1026 1054.72085788 1002.00448508 983.825018335 c 0
 978.469740301 914.290545135 978.469740301 914.290545135 952.343568268 874.267473086 c 0
 928.106833092 837.138857497 928.106833092 837.138857497 886.15971796 781.891437567 c 2
 378.068780409 120 l 1
 878.980899652 120 l 1
 841.414232986 5.11590769747e-13 l 1
 70.0487077911 4.33431068814e-13 l 1
 97.3514099607 132.975150486 l 1
 722.774741926 893.110872174 l 2
 751.274644028 927.852705744 751.274644028 927.852705744 761.965521948 942.122681745 c 0
 772.656399867 956.392657747 772.656399867 956.392657747 785.810901647 978.613661194 c 0
 798.965403428 1000.83466464 798.965403428 1000.83466464 804.611645108 1014.41242822 c 0
 810.257886787 1029.0074408 810.257886787 1029.0074408 813.457552693 1043.5125929 c 0
 820 1073.17168736 820 1073.17168736 820 1106.9891825 c 0
 820 1164.46502073 820 1164.46502073 790.856828247 1191.61085684 c 0
 751.790245641 1228 751.790245641 1228 657 1228 c 0
 540.389133372 1228 540.389133372 1228 369.698867445 1197.58966527 c 2
 314.803205145 1187.80940359 l 1
 354.758167606 1387.5842159 l 1
 379.910417755 1392.33860464 l 2
EndSplineSet
EndChar

StartChar: three
Encoding: 51 51 22
Width: 1024
Flags: W
LayerCount: 2
Fore
SplineSet
711.610048468 473.700152028 m 0
 730 561.596642774 730 561.596642774 730 612.173285199 c 0
 730 676.502201496 730 676.502201496 695.878276022 702.65551746 c 0
 658.384385349 731.393501805 658.384385349 731.393501805 602 731.393501805 c 0
 566.283675167 731.393501805 566.283675167 731.393501805 532.323280008 722.471942844 c 2
 503.907562629 715.006997373 l 1
 431.887592445 830.872403951 l 1
 769.405528532 1212 l 1
 339.641324427 1212 l 1
 378.841324427 1408 l 1
 1076.35867557 1408 l 1
 1043.29104743 1242.66185926 l 1
 718.872406971 891.844714027 l 1
 821.107600568 887.083008797 821.107600568 887.083008797 879.02591079 813.534945748 c 0
 937 739.916051273 937 739.916051273 937 631.879978972 c 0
 937 561.422935416 937 561.422935416 914.370634087 452.293967234 c 0
 891.741268173 343.164999051 891.741268173 343.164999051 863.716618208 269.751568556 c 0
 812.827320089 138.030229896 812.827320089 138.030229896 703.413660045 61.0151149482 c 0
 594 -16 594 -16 427 -16 c 0
 297.693423776 -16 297.693423776 -16 112.633669559 36.4335970282 c 2
 79.1033376351 45.9338577399 l 1
 117.799837822 247.478129547 l 1
 158.760004335 234.14226138 l 2
 325.054092859 180 325.054092859 180 450 180 c 0
 544.504272237 180 544.504272237 180 594.126264466 217.601343191 c 0
 643.748256695 255.202686381 643.748256695 255.202686381 672.113287589 329.507291228 c 0
 693.220096935 385.803661282 693.220096935 385.803661282 711.610048468 473.700152028 c 0
EndSplineSet
EndChar

StartChar: four
Encoding: 52 52 23
Width: 1024
Flags: W
LayerCount: 2
Fore
SplineSet
787.302121526 -1.56319401867e-13 m 1
 581.854128474 -1.56319401867e-13 l 1
 656.854128474 364.851666271 l 1
 81.0943576708 364.851666271 l 1
 110.200928362 510.405131405 l 1
 808.915775949 1448.10128282 l 1
 973.175783146 1354.23842156 l 1
 372.314450588 542 l 1
 694.632416503 542 l 1
 745.632416503 806 l 1
 951.049401679 806 l 1
 900.049401679 542 l 1
 1027.98089965 542 l 1
 990.414232986 346 l 1
 862.302121526 346 l 1
 787.302121526 -1.56319401867e-13 l 1
EndSplineSet
EndChar

StartChar: five
Encoding: 53 53 24
Width: 1024
Flags: W
LayerCount: 2
Fore
SplineSet
150.396381907 212.279296947 m 2
 313.749187671 180 313.749187671 180 440 180 c 0
 515.595100505 180 515.595100505 180 572.049046971 215.21942617 c 0
 598.136879898 231.49461264 598.136879898 231.49461264 615.445889092 252.349282729 c 0
 682.129429205 332.692600705 682.129429205 332.692600705 704.324342027 431.346945721 c 0
 726 527.69325072 726 527.69325072 726 611.306748466 c 0
 726 680.948498168 726 680.948498168 701.027691043 716.670322427 c 0
 685.958551774 738.226084277 685.958551774 738.226084277 661.831272528 747.27868631 c 0
 637.703993281 756.331288344 637.703993281 756.331288344 606 756.331288344 c 0
 490.92584568 756.331288344 490.92584568 756.331288344 404.262988247 665.558808116 c 2
 388.450388442 648.996362039 l 1
 210.979163452 695.957895438 l 1
 358.699613075 1408 l 1
 1076.35867557 1408 l 1
 1037.15867557 1212 l 1
 525.379435751 1212 l 1
 456.59929852 876.85625054 l 1
 484.117982256 892.700583794 484.117982256 892.700583794 510.950252767 904.032268587 c 0
 572.839401022 930.169017613 572.839401022 930.169017613 649 930.169017613 c 0
 805.522257271 930.169017613 805.522257271 930.169017613 877.626795658 832.761736323 c 0
 933 757.957106657 933 757.957106657 933 628.609866458 c 0
 933 551.72055705 933 551.72055705 920.491246117 472.889715713 c 0
 907.982492234 394.058874375 907.982492234 394.058874375 872.310638148 305.844921981 c 0
 836.638784062 217.630969586 836.638784062 217.630969586 781.403848776 148.444675925 c 0
 726.16891349 79.2583822635 726.16891349 79.2583822635 631.210302853 33.1165227431 c 0
 536.251692217 -16 536.251692217 -16 413.440737365 -16 c 0
 290.629782513 -16 290.629782513 -16 112.337876295 15.5831376729 c 2
 74.2328445352 22.3331718704 l 1
 113.051024206 219.658918529 l 1
 150.396381907 212.279296947 l 2
EndSplineSet
EndChar

StartChar: six
Encoding: 54 54 25
Width: 1024
Flags: W
LayerCount: 2
Fore
SplineSet
368.316184734 478.792830086 m 0
 348 373.342156944 348 373.342156944 348 315 c 0
 348 245.464221467 348 245.464221467 376.025601481 210.912110052 c 0
 401.098757413 180 401.098757413 180 472 180 c 0
 550.56289271 180 550.56289271 180 593.771316955 218.407488218 c 0
 617.316906155 239.33690084 617.316906155 239.33690084 634.69623421 264.53692652 c 0
 651.984654461 289.605135884 651.984654461 289.605135884 666.326106696 328.465845166 c 0
 680.667558932 367.326554448 680.667558932 367.326554448 690.284450268 404.832430661 c 0
 699.901341605 442.338306874 699.901341605 442.338306874 709.683815266 493.207169914 c 0
 730 598.657843056 730 598.657843056 730 657 c 0
 730 726.535778533 730 726.535778533 701.974398519 761.087889948 c 0
 676.901242587 792 676.901242587 792 606 792 c 0
 527.43710729 792 527.43710729 792 484.228683045 753.592511782 c 0
 451.844726866 724.806772957 451.844726866 724.806772957 432.422630365 689.830344742 c 0
 421.500560755 670.161253735 421.500560755 670.161253735 409.416500912 637.417349643 c 0
 397.332441068 604.673445552 397.332441068 604.673445552 391.36747658 581.410084048 c 0
 385.402512092 558.146722543 385.402512092 558.146722543 382.979613475 547.907788983 c 0
 380.556714859 537.668855423 380.556714859 537.668855423 378.117913715 526.575255582 c 0
 373.224597559 504.316576779 373.224597559 504.316576779 368.316184734 478.792830086 c 0
678.316023133 1052.73849451 m 0
 616.796808351 985.974055388 616.796808351 985.974055388 565.101345503 910.779722871 c 1
 606.05997347 921.343728401 606.05997347 921.343728401 649 921.343728401 c 0
 787.388618476 921.343728401 787.388618476 921.343728401 864.194309238 845.291373006 c 0
 941 769.239017611 941 769.239017611 941 644.061768904 c 0
 941 583.66778451 941 583.66778451 912.334323878 446.031856452 c 0
 901.212391757 391.282286311 901.212391757 391.282286311 893.927298443 361.161664171 c 0
 886.642205128 331.04104203 886.642205128 331.04104203 868.257469936 280.038967812 c 0
 810.597937285 120.082583732 810.597937285 120.082583732 674.133043292 40.2714736136 c 0
 577.917358846 -16 577.917358846 -16 459 -16 c 0
 302.19110775 -16 302.19110775 -16 221.039046035 60.5593787568 c 0
 140 137.012137791 140 137.012137791 140 272.508413371 c 0
 140 337.830518571 140 337.830518571 165.717011277 460.205312499 c 0
 193.333036388 591.463298984 193.333036388 591.463298984 241.900493937 711.184079221 c 0
 290.467951486 830.904859458 290.467951486 830.904859458 345.856113919 923.141228076 c 0
 401.285198425 1015.44574308 401.285198425 1015.44574308 479.588507209 1108.92840285 c 0
 557.246779931 1207.90463279 557.246779931 1207.90463279 624.732975777 1278.43531868 c 0
 692.219171622 1348.96600456 692.219171622 1348.96600456 781.928546041 1433.63552648 c 2
 809.270083042 1459.44102208 l 1
 940.910649614 1322.80144665 l 1
 913.156771924 1296.44524626 l 2
 775.556996449 1165.77495588 775.556996449 1165.77495588 678.316023133 1052.73849451 c 0
EndSplineSet
EndChar

StartChar: seven
Encoding: 55 55 26
Width: 1024
Flags: W
LayerCount: 2
Fore
SplineSet
289.641324427 1212 m 1
 328.841324427 1408 l 1
 1106.35867557 1408 l 1
 1078.20144325 1267.21383837 l 1
 375.00148234 1.42108547152e-14 l 1
 159.908685815 -1.13686837722e-13 l 1
 841.198200682 1212 l 1
 289.641324427 1212 l 1
EndSplineSet
EndChar

StartChar: eight
Encoding: 56 56 27
Width: 1024
Flags: W
LayerCount: 2
Fore
SplineSet
762.648959078 906.73216595 m 0
 813 1000.2692521 813 1000.2692521 813 1089 c 0
 813 1157.40820008 813 1157.40820008 782.618643661 1194.41113408 c 0
 755.040416906 1228 755.040416906 1228 689 1228 c 0
 619.87616166 1228 619.87616166 1228 566.715353917 1183.58347951 c 0
 550.90752767 1170.37584275 550.90752767 1170.37584275 538.680225265 1154.4181769 c 0
 500.715483073 1104.87097099 500.715483073 1104.87097099 479.41666945 1031.29293256 c 0
 462 979.80964544 462 979.80964544 462 923.106608739 c 0
 462 866.403572038 462 866.403572038 492.381356339 834.74112127 c 0
 519.959583094 806 519.959583094 806 585 806 c 0
 647.027504236 806 647.027504236 806 692.997564142 834.369684945 c 0
 738.967624048 862.73936989 738.967624048 862.73936989 762.648959078 906.73216595 c 0
953.089337116 851.214043614 m 0
 899.387929043 756.722219024 899.387929043 756.722219024 805.660054453 698.854415261 c 1
 909 618.968008986 909 618.968008986 909 476.545052745 c 0
 909 391.168005154 909 391.168005154 877.480495006 306.360286005 c 0
 845.960990011 221.552566855 845.960990011 221.552566855 788.060191126 149.798221291 c 0
 730.159392241 78.0438757283 730.159392241 78.0438757283 637.005279558 32.7692347775 c 0
 543.302592514 -16 543.302592514 -16 433 -16 c 0
 277.389985637 -16 277.389985637 -16 193.194992819 69.6190877328 c 0
 109 155.238175466 109 155.238175466 109 293.314614673 c 0
 109 437.397134124 109 437.397134124 181.63169894 554.747638801 c 0
 242.079580099 652.412838212 242.079580099 652.412838212 343.365792639 708.945009908 c 1
 257 786.050594332 257 786.050594332 257 916.64467403 c 0
 257 1052.68812275 257 1052.68812275 327.361211948 1178.18087708 c 0
 363.862019047 1247.42505525 363.862019047 1247.42505525 415.588507288 1301.30681383 c 0
 468.879158445 1356.81790879 468.879158445 1356.81790879 545.973361473 1390.40895439 c 0
 623.067564501 1424 623.067564501 1424 713 1424 c 0
 786.220186943 1424 786.220186943 1424 844.170248572 1401.69143988 c 0
 902.1203102 1379.38287975 902.1203102 1379.38287975 941.113637145 1334.56965327 c 0
 1018 1246.20771387 1018 1246.20771387 1018 1105 c 0
 1018 965.429428113 1018 965.429428113 953.089337116 851.214043614 c 0
329.123197619 417.360253787 m 0
 314 367.253155744 314 367.253155744 314 318.739316239 c 0
 314 251.884865975 314 251.884865975 349.140199313 214.881861513 c 0
 382.266038249 180 382.266038249 180 456 180 c 0
 518.475051645 180 518.475051645 180 567.365581491 206.952471582 c 0
 616.256111337 233.904943164 616.256111337 233.904943164 643.838367095 276.402652807 c 0
 673.732327269 322.462150289 673.732327269 322.462150289 688.876802381 372.639746213 c 0
 704 422.746844256 704 422.746844256 704 471.260683761 c 0
 704 538.115134025 704 538.115134025 668.859800687 575.118138487 c 0
 635.733961751 610 635.733961751 610 562 610 c 0
 499.198109218 609.523402595 499.198109218 609.523402595 450.47099894 582.809229716 c 0
 401.743888663 556.095056836 401.743888663 556.095056836 374.161632905 513.597347193 c 0
 344.267672731 467.537849711 344.267672731 467.537849711 329.123197619 417.360253787 c 0
EndSplineSet
EndChar

StartChar: nine
Encoding: 57 57 28
Width: 1024
Flags: W
LayerCount: 2
Fore
SplineSet
777.683815266 942.25565533 m 0
 798 1038.41527903 798 1038.41527903 798 1093 c 0
 798 1162.39325359 798 1162.39325359 769.635591775 1196.89050683 c 0
 744.056675172 1228 744.056675172 1228 673 1228 c 0
 626.925474483 1228 626.925474483 1228 591.637930377 1212.63953962 c 0
 556.227831143 1197.22573172 556.227831143 1197.22573172 533.639449893 1173.40525695 c 0
 493.266446119 1130.83008933 493.266446119 1130.83008933 462.785936823 1029.48546277 c 0
 449.602943653 989.681581996 449.602943653 989.681581996 436.348897639 925.489703614 c 0
 415 825.030320332 415 825.030320332 415 776.593276035 c 0
 415 713.577377575 415 713.577377575 443.364408225 682.250479133 c 0
 468.943324828 654 468.943324828 654 540 654 c 0
 618.56289271 654 618.56289271 654 661.771316955 689.347772175 c 0
 685.316906155 708.609852136 685.316906155 708.609852136 702.69623421 731.8023286 c 0
 719.984654461 754.873489839 719.984654461 754.873489839 733.837246358 789.419251575 c 0
 748.667558932 826.403264996 748.667558932 826.403264996 758.284450268 860.921251699 c 0
 767.901341605 895.439238402 767.901341605 895.439238402 777.683815266 942.25565533 c 0
467.683976867 327.030709068 m 0
 529.244267243 393.996283229 529.244267243 393.996283229 580.96771592 469.422840354 c 1
 539.576237716 458 539.576237716 458 496 458 c 0
 357.606470623 458 357.606470623 458 281.303235311 533.835470734 c 0
 205 609.670941469 205 609.670941469 205 736.19055369 c 0
 205 796.782436366 205 796.782436366 233.665676122 934.869368179 c 0
 244.787608243 989.798341054 244.787608243 989.798341054 252.072701557 1020.01766209 c 0
 259.357794872 1052.28021819 259.357794872 1052.28021819 277.74897043 1106.92828271 c 0
 335.909239098 1279.74736675 335.909239098 1279.74736675 474.747716924 1364.46237055 c 0
 572.323276296 1424 572.323276296 1424 697 1424 c 0
 847.208957319 1424 847.208957319 1424 926.604478659 1341.12730254 c 0
 1006 1258.25460508 1006 1258.25460508 1006 1116 c 0
 1006 1050.61734213 1006 1050.61734213 979.333481806 923.683394935 c 0
 952.666963612 796.749447734 952.666963612 796.749447734 904.099506063 676.917688033 c 0
 855.532048514 557.085928332 855.532048514 557.085928332 800.143886081 464.764057908 c 0
 744.714801576 372.373977924 744.714801576 372.373977924 666.734010822 279.190057183 c 0
 588.753220069 186.006136442 588.753220069 186.006136442 521.267024224 119.877697381 c 0
 453.780828378 53.7492583193 453.780828378 53.7492583193 364.071453959 -25.6355264838 c 2
 336.729916958 -51.4410220805 l 1
 205.089350386 75.7138716074 l 1
 232.843228076 100.240586133 l 2
 370.443003551 221.840545948 370.443003551 221.840545948 467.683976867 327.030709068 c 0
EndSplineSet
EndChar

StartChar: colon
Encoding: 58 58 29
Width: 1024
Flags: W
LayerCount: 2
Fore
SplineSet
259.713855621 316 m 1
 593.169477712 316 l 1
 531.286144379 -5.40012479178e-13 l 1
 197.830522288 -5.40012479178e-13 l 1
 259.713855621 316 l 1
349.830522288 708 m 1
 411.713855621 1024 l 1
 745.169477712 1024 l 1
 683.286144379 708 l 1
 349.830522288 708 l 1
EndSplineSet
Substitution2: "<2,2> Cursive lookup 182 nested-substitutions 0 subtable" colon.2r
Substitution2: "<2,2> Cursive lookup 180 nested-substitutions 0 subtable" colon.2l
Substitution2: "<2,2> Cursive lookup 99 nested-substitutions 0 subtable" larsenwork7
EndChar

StartChar: semicolon
Encoding: 59 59 30
Width: 1024
Flags: W
LayerCount: 2
Fore
SplineSet
349.830522288 708 m 1
 411.713855621 1024 l 1
 745.169477712 1024 l 1
 683.286144379 708 l 1
 349.830522288 708 l 1
284.713855621 444 m 1
 618.226994131 444 l 1
 541.256710567 53.4890025044 l 2
 532.045550729 8.45666552116 532.045550729 8.45666552116 525.967057423 -15.3047174013 c 0
 519.888564118 -39.0661003239 519.888564118 -39.0661003239 498.286711082 -83.9314873989 c 0
 476.684858045 -128.796874474 476.684858045 -128.796874474 441.589945927 -165.122750711 c 0
 392.409631533 -218.091650909 392.409631533 -218.091650909 329.0262427 -245.045825097 c 0
 265.642853867 -271.999999285 265.642853867 -271.999999285 191 -272 c 2
 145.019100348 -272 l 1
 182.585767014 -76 l 1
 214 -76 l 2
 285.80418101 -76 285.80418101 -76 315.563288915 -12.4237240212 c 0
 325.015748629 7.77016718651 325.015748629 7.77016718651 328.479448664 21.6249673271 c 0
 332.913794803 39.3623518815 332.913794803 39.3623518815 350.641324427 128 c 1
 222.830522288 128 l 1
 284.713855621 444 l 1
EndSplineSet
EndChar

StartChar: less
Encoding: 60 60 31
Width: 1024
Flags: W
LayerCount: 2
Fore
SplineSet
410.599724878 570.958195229 m 1
 831.679733356 120.065934672 l 1
 671.276979525 -20.0918113935 l 1
 178.081094561 520.198850674 l 1
 202.451415796 642.050456846 l 1
 903.811158829 1171.29602735 l 1
 1017.73918334 1020.39901626 l 1
 410.599724878 570.958195229 l 1
EndSplineSet
Substitution2: "<2,2> Cursive lookup 216 nested-substitutions 0 subtable" less2
Substitution2: "<2,2> Cursive lookup 214 nested-substitutions 0 subtable" less1
Substitution2: "<2,2> Cursive lookup 198 nested-substitutions 0 subtable" rangeless
Substitution2: "<2,2> Cursive lookup 119 nested-substitutions 0 subtable" equallessless
Substitution2: "<2,2> Cursive lookup 117 nested-substitutions 0 subtable" larsenwork8
Substitution2: "<2,2> Cursive lookup 105 nested-substitutions 0 subtable" larsenwork3
Substitution2: "<2,2> Cursive lookup 91 nested-substitutions 0 subtable" larsenwork6
Substitution2: "<2,2> Cursive lookup 77 nested-substitutions 0 subtable" larsenwork10
Substitution2: "<2,2> Cursive lookup 71 nested-substitutions 0 subtable" larsenwork9
Substitution2: "<2,2> Cursive lookup 53 nested-substitutions 0 subtable" larsenwork2
Substitution2: "<2,2> Cursive lookup 39 nested-substitutions 0 subtable" larsenwork1
Substitution2: "<2,2> Cursive lookup 37 nested-substitutions 0 subtable" larsenwork1
Substitution2: "<2,2> Cursive lookup 23 nested-substitutions 0 subtable" larsenwork3
Substitution2: "<2,2> Cursive lookup 14 nested-substitutions 0 subtable" larsenwork5
Substitution2: "'rtla' Right to Left Alternates lookup 0 subtable" greater
EndChar

StartChar: equal
Encoding: 61 61 32
Width: 1024
Flags: W
LayerCount: 2
Fore
SplineSet
121.019100348 222 m 1
 158.585767014 418 l 1
 875.980899652 418 l 1
 838.414232986 222 l 1
 121.019100348 222 l 1
220.019100348 734 m 1
 257.585767014 930 l 1
 974.980899652 930 l 1
 937.414232986 734 l 1
 220.019100348 734 l 1
EndSplineSet
Substitution2: "<2,2> Cursive lookup 232 nested-substitutions 0 subtable" equal.wide
Substitution2: "<2,2> Cursive lookup 125 nested-substitutions 0 subtable" larsenwork2
Substitution2: "<2,2> Cursive lookup 123 nested-substitutions 0 subtable" greaterequalliga
Substitution2: "<2,2> Cursive lookup 115 nested-substitutions 0 subtable" larsenwork8
Substitution2: "<2,2> Cursive lookup 113 nested-substitutions 0 subtable" greatergreaterequal
Substitution2: "<2,2> Cursive lookup 107 nested-substitutions 0 subtable" lessequalliga
Substitution2: "<2,2> Cursive lookup 103 nested-substitutions 0 subtable" equal.after
Substitution2: "<2,2> Cursive lookup 101 nested-substitutions 0 subtable" equalcolonequal
Substitution2: "<2,2> Cursive lookup 97 nested-substitutions 0 subtable" larsenwork7
Substitution2: "<2,2> Cursive lookup 95 nested-substitutions 0 subtable" leftarrowequallong
Substitution2: "<2,2> Cursive lookup 93 nested-substitutions 0 subtable" larsenwork6
Substitution2: "<2,2> Cursive lookup 87 nested-substitutions 0 subtable" larsenwork5
Substitution2: "<2,2> Cursive lookup 85 nested-substitutions 0 subtable" larsenwork5
Substitution2: "<2,2> Cursive lookup 81 nested-substitutions 0 subtable" larsenwork10
Substitution2: "<2,2> Cursive lookup 79 nested-substitutions 0 subtable" larsenwork10
Substitution2: "<2,2> Cursive lookup 73 nested-substitutions 0 subtable" larsenwork9
Substitution2: "<2,2> Cursive lookup 69 nested-substitutions 0 subtable" notequalliga
Substitution2: "<2,2> Cursive lookup 65 nested-substitutions 0 subtable" notequaltypeliga
Substitution2: "<2,2> Cursive lookup 63 nested-substitutions 0 subtable" larsenwork1
EndChar

StartChar: greater
Encoding: 62 62 33
Width: 1024
Flags: W
LayerCount: 2
Fore
SplineSet
685.352078107 581.036619044 m 1
 263.165387265 1031.92241159 l 1
 424.842203146 1171.83504072 l 1
 917.918905439 631.801149326 l 1
 893.548584204 509.949543154 l 1
 192.402850845 -19.12546813 l 1
 77.0364469039 131.481330389 l 1
 685.352078107 581.036619044 l 1
EndSplineSet
Substitution2: "<2,2> Cursive lookup 209 nested-substitutions 0 subtable" greater2
Substitution2: "<2,2> Cursive lookup 207 nested-substitutions 0 subtable" greater1
Substitution2: "<2,2> Cursive lookup 127 nested-substitutions 0 subtable" ligaequalarrow
Substitution2: "<2,2> Cursive lookup 121 nested-substitutions 0 subtable" larsenwork4
Substitution2: "<2,2> Cursive lookup 111 nested-substitutions 0 subtable" larsenwork8
Substitution2: "<2,2> Cursive lookup 109 nested-substitutions 0 subtable" larsenwork8
Substitution2: "<2,2> Cursive lookup 89 nested-substitutions 0 subtable" rightarrowequallong
Substitution2: "<2,2> Cursive lookup 83 nested-substitutions 0 subtable" lessequalequalgreater
Substitution2: "<2,2> Cursive lookup 75 nested-substitutions 0 subtable" lessequalgreater
Substitution2: "<2,2> Cursive lookup 59 nested-substitutions 0 subtable" arrowright.liga
Substitution2: "<2,2> Cursive lookup 51 nested-substitutions 0 subtable" ligaarrowrighttwoheads
Substitution2: "<2,2> Cursive lookup 49 nested-substitutions 0 subtable" larsenwork1
Substitution2: "<2,2> Cursive lookup 33 nested-substitutions 0 subtable" ligaarrowrightlong
Substitution2: "'rtla' Right to Left Alternates lookup 0 subtable" less
EndChar

StartChar: question
Encoding: 63 63 34
Width: 1024
Flags: W
LayerCount: 2
Fore
SplineSet
430.522724777 340.586079179 m 0
 458.305418191 348 458.305418191 348 489 348 c 0
 559.027568689 348 559.027568689 348 602.492241051 307.210076707 c 0
 624.635861031 286.429141033 624.635861031 286.429141033 635.817930515 258.387896909 c 0
 647 230.346652785 647 230.346652785 647 198 c 0
 647 115.339664866 647 115.339664866 587.410707607 49.6698324328 c 0
 527.821415215 -16 527.821415215 -16 433 -16 c 0
 362.802082151 -16 362.802082151 -16 319.401041075 25.366617275 c 0
 276 66.73323455 276 66.73323455 276 134 c 0
 276 216.549119714 276 216.549119714 334.223788342 281.375605703 c 0
 373.811288194 325.452409661 373.811288194 325.452409661 430.522724777 340.586079179 c 0
807.927894273 1030.86962315 m 0
 820 1070.66286054 820 1070.66286054 820 1112 c 0
 820 1141.86932603 820 1141.86932603 809.687432539 1164.82578544 c 0
 799.374865077 1187.78224486 799.374865077 1187.78224486 773.756665753 1202.74035935 c 0
 730.495430541 1228 730.495430541 1228 644.306622179 1228 c 0
 558.117813817 1228 558.117813817 1228 392.106590155 1191.86814544 c 2
 335.344116422 1179.51395998 l 1
 375.590870104 1380.74772839 l 1
 399.755940355 1386.10166611 l 2
 570.81058252 1424 570.81058252 1424 671 1424 c 0
 839.511862343 1424 839.511862343 1424 930.978259002 1349.47182494 c 0
 978.277196614 1310.93194985 978.277196614 1310.93194985 1002.13859831 1256.13795465 c 0
 1026 1201.34395945 1026 1201.34395945 1026 1134.48636524 c 0
 1026 1067.62877103 1026 1067.62877103 1008.03177862 1005.01224197 c 0
 990.407934142 943.595814257 990.407934142 943.595814257 964.469386449 895.501423742 c 0
 938.552756435 847.447672258 938.552756435 847.447672258 896.065863989 797.617366303 c 0
 853.578971544 747.787060349 853.578971544 747.787060349 816.569123711 712.862274366 c 0
 780.3704763 678.702987372 780.3704763 678.702987372 727.686375661 634.118744939 c 0
 695.097690933 605.90069467 695.097690933 605.90069467 675.173250099 574.281476132 c 0
 655.030774924 542.316243789 655.030774924 542.316243789 649.54334792 523.321304158 c 0
 644.055920915 504.326364527 644.055920915 504.326364527 631.792214462 436 c 1
 426.100069352 436 l 1
 434.66716017 481.120011645 l 2
 450.655508435 565.325312503 450.655508435 565.325312503 486.060359711 635.590325036 c 0
 521.465210987 705.855337569 521.465210987 705.855337569 598.392837386 771.94808701 c 0
 644.783141249 811.429196681 644.783141249 811.429196681 670.839716115 835.55565489 c 0
 696.896290981 859.682113099 696.896290981 859.682113099 729.93551807 896.497251855 c 0
 762.974745159 933.312390612 762.974745159 933.312390612 779.451444209 962.257942997 c 0
 795.855788546 991.076385751 795.855788546 991.076385751 807.927894273 1030.86962315 c 0
EndSplineSet
EndChar

StartChar: at
Encoding: 64 64 35
Width: 1024
Flags: W
LayerCount: 2
Fore
SplineSet
784.862762463 345.25398773 m 1
 796.318222329 401.225856588 l 1
 703.530212616 330 703.530212616 330 602 330 c 0
 487.186315071 330 487.186315071 330 410.033250895 403.534805583 c 0
 333 476.955416786 333 476.955416786 333 602.429759842 c 0
 333 687.785024284 333 687.785024284 373.379205411 771.919833261 c 0
 414.382326575 857.354643865 414.382326575 857.354643865 486.004392456 913.129923231 c 0
 571.652771743 979.223507789 571.652771743 979.223507789 662.129412529 994.879331926 c 0
 705.291845267 1002.77489889 705.291845267 1002.77489889 730.017620442 1004.38744945 c 0
 754.743395616 1006 754.743395616 1006 790 1006 c 2
 920.143018556 1006 l 1
 930 1064.69097818 930 1064.69097818 930 1088 c 0
 930 1131.03613631 930 1131.03613631 913.47730954 1157.92238932 c 0
 893.682112399 1190.13377038 893.682112399 1190.13377038 845.820536 1203.38117099 c 0
 814.792751558 1212 814.792751558 1212 737 1212 c 0
 631.620978127 1212 631.620978127 1212 583.180906114 1200.1184729 c 0
 517.380932493 1183.76817643 517.380932493 1183.76817643 468.831421326 1146.95109898 c 0
 408.181902002 1100.95809109 408.181902002 1100.95809109 372.718337959 1021.5396871 c 0
 349.520372948 969.576245477 349.520372948 969.576245477 330.306021136 867.740180875 c 2
 249.318855388 449.806731533 l 2
 231 354.355853456 231 354.355853456 231 314 c 0
 231 246.370950671 231 246.370950671 256.950627304 203.446328149 c 0
 288.294532099 151.600749777 288.294532099 151.600749777 361.757017465 131.733536754 c 0
 405.98342523 120 405.98342523 120 510 120 c 0
 645.835225005 120 645.835225005 120 829.69746089 140.758639535 c 2
 881.045806043 146.556033343 l 1
 843.071241199 24.4278689387 l 1
 815.37157455 21.2492186675 l 2
 630.199811876 0 630.199811876 0 487 0 c 0
 356.085836367 0 356.085836367 0 286.53064622 18.1913574229 c 0
 165.016105213 47.3176286779 165.016105213 47.3176286779 95.0192623082 131.066506613 c 0
 25 214.842208613 25 214.842208613 25 342.72929735 c 0
 25 398.333866586 25 398.333866586 46.6939788641 505.32997999 c 2
 127.655439487 895.177434784 l 1
 149.420592723 1006.30987206 149.420592723 1006.30987206 183.124010617 1078.10277505 c 0
 235.787313161 1200.54926462 235.787313161 1200.54926462 333.762119979 1280.75940981 c 0
 455.462955403 1380.39361167 455.462955403 1380.39361167 611.814837948 1400.1801586 c 0
 673.606666909 1408 673.606666909 1408 769.273127046 1408 c 0
 864.939587184 1408 864.939587184 1408 921.755239826 1392.73423969 c 0
 1022.41564038 1366.38374024 1022.41564038 1366.38374024 1079.20782019 1291.04717433 c 0
 1136 1215.71060841 1136 1215.71060841 1136 1107 c 0
 1136 1061.46374192 1136 1061.46374192 1118.28727249 977.000755189 c 2
 990.372008718 345.25398773 l 1
 784.862762463 345.25398773 l 1
883.74145509 820 m 1
 766 820 l 2
 730.829544699 820 730.829544699 820 713.218897986 818.514764735 c 0
 695.608251273 817.02952947 695.608251273 817.02952947 666.768206544 807.500023592 c 0
 650.634605554 802.169059409 650.634605554 802.169059409 640.998137193 796.511999429 c 0
 626.476631647 787.987192955 626.476631647 787.987192955 617.291896861 780.725166204 c 0
 584.155577985 754.391159312 584.155577985 754.391159312 562.077788992 712.606088083 c 0
 540 670.821016854 540 670.821016854 540 628.722891566 c 0
 540 581.483803922 540 581.483803922 568.413395554 553.741901961 c 0
 596.826791108 526 596.826791108 526 647 526 c 0
 688.973204745 526 688.973204745 526 723.061547364 540.006400406 c 0
 832.416704521 584.938831844 832.416704521 584.938831844 874.684650296 779.452361885 c 1
 883.74145509 820 l 1
EndSplineSet
EndChar

StartChar: A
Encoding: 65 65 36
Width: 1024
Flags: W
LayerCount: 2
Fore
SplineSet
614.652866239 1392.86235706 m 2
 626.079345104 1408 l 1
 801.634378758 1408 l 1
 810.729523487 1382.95882231 l 2
 967 975.664670478 967 975.664670478 967 447.714789695 c 0
 967 249.1955739 967 249.1955739 946.849502526 34.5982030124 c 2
 943.774106703 8.38440428197e-13 l 1
 731.56693871 8.38440428197e-13 l 1
 742.20028092 86.8069882744 742.20028092 86.8069882744 746.3677848 137.68310921 c 0
 754.712073409 239.548649973 754.712073409 239.548649973 755.827878347 350 c 1
 254.952161414 350 l 1
 245.673038113 326.602723856 245.673038113 326.602723856 234.713372811 299.591020915 c 0
 223.753707509 272.579317974 223.753707509 272.579317974 217.266899936 256.462549753 c 0
 163.076293697 121.823525745 163.076293697 121.823525745 134.68321489 28.0552618686 c 2
 127.084914801 -2.84217094304e-14 l 1
 -88.0443521578 -2.84217094304e-14 l 1
 -73.4117754727 46.3672176099 l 2
 47.3955593088 429.177443124 47.3955593088 429.177443124 212.834244575 762.544825372 c 0
 378.272929841 1095.91220762 378.272929841 1095.91220762 614.652866239 1392.86235706 c 2
504.488979737 892.861495586 m 0
 423.823435139 744.871799566 423.823435139 744.871799566 331.031919327 546 c 1
 757.302807355 546 l 1
 747.174328548 751.363709777 747.174328548 751.363709777 727.370448327 898.636199086 c 0
 707.566568107 1045.9086884 707.566568107 1045.9086884 673.139902515 1164.26171287 c 1
 585.154524334 1040.85119161 585.154524334 1040.85119161 504.488979737 892.861495586 c 0
EndSplineSet
EndChar

StartChar: B
Encoding: 66 66 37
Width: 1024
Flags: W
LayerCount: 2
Fore
SplineSet
375.096874253 806 m 1
 478 806 l 2
 585.508848854 806 585.508848854 806 623.178469009 813.764644908 c 0
 708.841211636 831.169619117 708.841211636 831.169619117 770.420605818 895.90414127 c 0
 832 960.638663422 832 960.638663422 832 1051 c 0
 832 1122.01762263 832 1122.01762263 791.84629444 1164.38980003 c 0
 764.851500283 1192.87604286 764.851500283 1192.87604286 720.555619573 1202.94328847 c 0
 681.61176001 1212 681.61176001 1212 579 1212 c 2
 461.335335791 1212 l 1
 375.096874253 806 l 1
971.478899918 1281.3422381 m 0
 1038 1196.05877646 1038 1196.05877646 1038 1073 c 0
 1038 941.04474431 1038 941.04474431 966.690338252 840.750140479 c 0
 915.794050004 769.166249305 915.794050004 769.166249305 843.823820871 722.906764434 c 1
 901.982510495 693.560661316 901.982510495 693.560661316 940.676369552 644.275801881 c 0
 1000 568.714540764 1000 568.714540764 1000 464.775279511 c 0
 1000 301.775547294 1000 301.775547294 887.542337628 175.685096567 c 0
 775.084675255 49.5946458395 775.084675255 49.5946458395 627.846199749 17.0369250997 c 0
 556.504075894 0 556.504075894 0 403 0 c 2
 5.88630311391 7.1054273576e-15 l 1
 294.676075841 1408 l 1
 603 1408 l 2
 736.570335829 1408 736.570335829 1408 792.38756495 1394.2613141 c 0
 905.027388418 1366.53648471 905.027388418 1366.53648471 971.478899918 1281.3422381 c 0
249.135144644 120 m 1
 426 120 l 2
 558.196632503 120 558.196632503 120 600.584161288 131.732191172 c 0
 679.689364943 153.171101454 679.689364943 153.171101454 737.344682471 236.666735415 c 0
 795 320.162369375 795 320.162369375 795 435.46460177 c 0
 795 502.133769328 795 502.133769328 769.246208933 544.01216852 c 0
 743.492417866 585.890567711 743.492417866 585.890567711 699.844564503 597.945283855 c 0
 656.196711139 610 656.196711139 610 529 610 c 2
 337.309387069 610 l 1
 249.135144644 120 l 1
EndSplineSet
EndChar

StartChar: C
Encoding: 67 67 38
Width: 1024
Flags: W
LayerCount: 2
Fore
SplineSet
274.325078316 694.991243189 m 0
 257.684191719 614.128172738 257.684191719 614.128172738 249.34209586 552.138723552 c 0
 241 490.149274366 241 490.149274366 241 458.162588095 c 0
 241 426.175901824 241 426.175901824 242.676479724 404.992484626 c 0
 244.352959448 383.809067427 244.352959448 383.809067427 247.63564602 364.92660853 c 0
 250.918332591 346.044149633 250.918332591 346.044149633 255.682656744 329.061928934 c 0
 260.446980896 312.079708235 260.446980896 312.079708235 266.715186471 297.120528867 c 0
 279.16472474 267.409493742 279.16472474 267.409493742 297.025279956 245.088165889 c 0
 349.105997933 180 349.105997933 180 479 180 c 0
 623.796547788 180 623.796547788 180 840.662225134 216.472863917 c 2
 894.619158819 225.547439128 l 1
 856.382292922 26.0507474949 l 1
 722.553269611 2.80345236568 722.553269611 2.80345236568 629.051183046 -6.59827381716 c 0
 535.549096481 -16 535.549096481 -16 456 -16 c 0
 241.028207363 -16 241.028207363 -16 136.105929474 103.195119581 c 0
 34 219.19077578 34 219.19077578 34 416.330129615 c 0
 34 521.38005022 34 521.38005022 71.7044643344 697.079794691 c 0
 113.520139265 901.330378851 113.520139265 901.330378851 171.29374418 1021.48734843 c 0
 250.396043012 1198.30425171 250.396043012 1198.30425171 368.171872755 1297.75939682 c 0
 517.667323886 1424 517.667323886 1424 726 1424 c 0
 888.139884706 1424 888.139884706 1424 1067.21394929 1394.493478 c 2
 1105.66933969 1388.15707844 l 1
 1068.38725681 1193.64186343 l 1
 1031.9517443 1199.47959747 l 2
 853.945094054 1228 853.945094054 1228 702 1228 c 0
 580.677562271 1228 580.677562271 1228 501.206993913 1162.21602953 c 0
 418.095823973 1098.35942222 418.095823973 1098.35942222 359.690427663 976.822350728 c 0
 313.465623395 881.179986563 313.465623395 881.179986563 274.325078316 694.991243189 c 0
EndSplineSet
EndChar

StartChar: D
Encoding: 68 68 39
Width: 1024
Flags: W
LayerCount: 2
Fore
SplineSet
289.676075841 1408 m 1
 583 1408 l 2
 813.049169818 1408 813.049169818 1408 928.024584909 1278.72142322 c 0
 1043 1156.69538683 1043 1156.69538683 1043 957.114504075 c 0
 1043 847.81729315 1043 847.81729315 1011.36341787 698.027936635 c 0
 979.726835736 548.23858012 979.726835736 548.23858012 937.734957848 437.648885281 c 0
 895.74307996 327.059190442 895.74307996 327.059190442 822.093628418 237.679277144 c 0
 627.661460254 5.68434188608e-14 627.661460254 5.68434188608e-14 310 0 c 2
 0.886303113908 7.1054273576e-15 l 1
 289.676075841 1408 l 1
817.643832245 678.494061334 m 0
 847 829.677921259 847 829.677921259 847 924 c 0
 847 1058.79318987 847 1058.79318987 779.324189523 1136.57642658 c 0
 713.701419432 1212 713.701419432 1212 560 1212 c 2
 448.331693832 1212 l 1
 236.102241777 120 l 1
 333 120 l 2
 536.377708914 120 536.377708914 120 661.974433084 268.51583442 c 0
 715.693378594 331.496667086 715.693378594 331.496667086 751.990521541 429.403434248 c 0
 788.287664489 527.31020141 788.287664489 527.31020141 817.643832245 678.494061334 c 0
EndSplineSet
EndChar

StartChar: E
Encoding: 69 69 40
Width: 1024
Flags: W
LayerCount: 2
Fore
SplineSet
294.676075841 1408 m 1
 1140.35867557 1408 l 1
 1101.15867557 1212 l 1
 461.335335791 1212 l 1
 375.096874253 794.3625 l 1
 886.980899652 794.3625 l 1
 849.414232986 610 l 1
 337.309387069 610 l 1
 249.135144644 120 l 1
 888.980899652 120 l 1
 851.414232986 -8.52651282912e-14 l 1
 5.88630311391 -7.81597009336e-14 l 1
 294.676075841 1408 l 1
EndSplineSet
EndChar

StartChar: F
Encoding: 70 70 41
Width: 1024
Flags: W
LayerCount: 2
Fore
SplineSet
294.676075841 1408 m 1
 1140.35867557 1408 l 1
 1101.15867557 1212 l 1
 461.367583497 1212 l 1
 374.049401679 786.50617284 l 1
 886.358675573 786.50617284 l 1
 847.158675573 602 l 1
 335.350111107 602 l 1
 211.350111107 5.68434188608e-14 l 1
 5.88630311391 5.68434188608e-14 l 1
 294.676075841 1408 l 1
EndSplineSet
EndChar

StartChar: G
Encoding: 71 71 42
Width: 1024
Flags: W
LayerCount: 2
Fore
SplineSet
835.517261722 34.9599283679 m 2
 613.331974039 -16 613.331974039 -16 436 -16 c 0
 233.492328346 -16 233.492328346 -16 132.05920583 104.762275676 c 0
 34 221.507699196 34 221.507699196 34 416.328775688 c 0
 34 521.378367307 34 521.378367307 71.7044643353 697.077561558 c 0
 113.520063327 901.327203676 113.520063327 901.327203676 171.2724884 1021.43974749 c 0
 253.334174866 1205.55250558 253.334174866 1205.55250558 400.386634522 1314.77625279 c 0
 547.439094177 1424 547.439094177 1424 746 1424 c 0
 893.764945169 1424 893.764945169 1424 1048.48155127 1401.60680701 c 2
 1088.13225349 1395.86788959 l 1
 1049.24841113 1201.44867776 l 1
 1013.75298726 1206.35999427 l 2
 857.35476404 1228 857.35476404 1228 722 1228 c 0
 552.605033542 1228 552.605033542 1228 443.546892456 1098.95767387 c 0
 396.389254474 1047.42092251 396.389254474 1047.42092251 359.690427663 972.902393079 c 0
 313.465623395 877.730540335 313.465623395 877.730540335 274.325078316 692.45775017 c 0
 241 531.317821621 241 531.317821621 241 447.848303924 c 0
 241 323.261392738 241 323.261392738 285.824538006 256.955730609 c 0
 337.848829156 180 337.848829156 180 459 180 c 0
 561.968095415 180 561.968095415 180 684.738988496 199.234144847 c 1
 771.903125747 648 l 1
 516.019100348 648 l 1
 553.585767014 844 l 1
 1015.06200977 844 l 1
 859.613930175 40.4866871873 l 1
 835.517261722 34.9599283679 l 2
EndSplineSet
EndChar

StartChar: H
Encoding: 72 72 43
Width: 1024
Flags: W
LayerCount: 2
Fore
SplineSet
294.676075841 1408 m 1
 500.106549413 1408 l 1
 374.106549413 798 l 1
 808.671228365 798 l 1
 934.671228365 1408 l 1
 1140.11369689 1408 l 1
 851.323924159 -5.0448534239e-13 l 1
 645.924888893 -1.13686837722e-13 l 1
 769.924888893 602 l 1
 335.350111107 602 l 1
 211.350111107 5.68434188608e-14 l 1
 5.88630311391 5.68434188608e-14 l 1
 294.676075841 1408 l 1
EndSplineSet
EndChar

StartChar: I
Encoding: 73 73 44
Width: 1024
Flags: W
LayerCount: 2
Fore
SplineSet
569.102241777 120 m 1
 824.980899652 120 l 1
 787.414232986 -8.52651282912e-14 l 1
 70.0191003476 -4.26325641456e-14 l 1
 107.585767014 120 l 1
 363.668306168 120 l 1
 575.897758223 1212 l 1
 319.641324427 1212 l 1
 358.841324427 1408 l 1
 1076.35867557 1408 l 1
 1037.15867557 1212 l 1
 781.331693832 1212 l 1
 569.102241777 120 l 1
EndSplineSet
EndChar

StartChar: J
Encoding: 74 74 45
Width: 1024
Flags: W
LayerCount: 2
Fore
SplineSet
906.453309129 325.072057858 m 0
 870.693708499 227.397445292 870.693708499 227.397445292 785.064564401 144.171475192 c 0
 713.006315749 74.8672533965 713.006315749 74.8672533965 613.056271908 32.6013636495 c 0
 513.106228067 -12 513.106228067 -12 396.80345907 -12 c 0
 280.500690073 -12 280.500690073 -12 181.11020508 34.7403902397 c 0
 81.7197200878 81.4807804795 81.7197200878 81.4807804795 9.93543559948 154.336472199 c 2
 -15.9741448886 180.632762844 l 1
 129.171982307 332.089591222 l 1
 156.599301565 303.109782195 l 2
 204.823830076 252.155563391 204.823830076 252.155563391 274.796875157 218.077781695 c 0
 344.769920238 184 344.769920238 184 424 184 c 0
 553.04977309 184 553.04977309 184 641.776708448 268.271300125 c 0
 674.580884314 299.642782843 674.580884314 299.642782843 696.922668226 341.666383206 c 0
 720.1170153 385.293605452 720.1170153 385.293605452 727.631479665 413.282262579 c 0
 735.882947381 444.015990157 735.882947381 444.015990157 746.696219882 496.191098483 c 2
 895.90890154 1212 l 1
 383.641324427 1212 l 1
 422.841324427 1408 l 1
 1140.1254072 1408 l 1
 949.324081455 480.105170025 l 2
 940.131161153 433.656486376 940.131161153 433.656486376 932.296402165 403.958465285 c 0
 924.461643176 374.260444193 924.461643176 374.260444193 906.453309129 325.072057858 c 0
EndSplineSet
EndChar

StartChar: K
Encoding: 75 75 46
Width: 1024
Flags: W
LayerCount: 2
Fore
SplineSet
147.356309667 4.97379915032e-14 m 1
 -58.1136968861 4.97379915032e-14 l 1
 230.676075841 1408 l 1
 436.108375098 1408 l 1
 316.473913273 792.864595544 l 1
 948.572413063 1408 l 1
 1195.71226235 1408 l 1
 545.667405222 800.435895125 l 1
 984.609896309 -4.26325641456e-14 l 1
 741.757211255 -2.13162820728e-13 l 1
 385.291479349 696.508923317 l 1
 258.999996601 576.825715829 l 1
 147.356309667 4.97379915032e-14 l 1
EndSplineSet
EndChar

StartChar: L
Encoding: 76 76 47
Width: 1024
Flags: W
LayerCount: 2
Fore
SplineSet
358.676075841 1408 m 1
 564.126084987 1408 l 1
 313.126084987 120 l 1
 952.980899652 120 l 1
 915.414232986 -8.52651282912e-14 l 1
 69.8863031139 -1.20792265079e-13 l 1
 358.676075841 1408 l 1
EndSplineSet
EndChar

StartChar: M
Encoding: 77 77 48
Width: 1024
Flags: W
LayerCount: 2
Fore
SplineSet
147.318386479 -2.13162820728e-14 m 1
 -58.1136968861 -2.13162820728e-14 l 1
 230.676075841 1408 l 1
 418.083487159 1408 l 1
 599.743524672 816.898945296 l 1
 1010.12578558 1408 l 1
 1204.11369689 1408 l 1
 915.323924159 -5.0448534239e-13 l 1
 709.87813526 -4.40536496171e-13 l 1
 912.131900759 1038.35638537 l 1
 634.8446129 640 l 1
 476.824991124 640 l 1
 351.987382051 1050.75600405 l 1
 147.318386479 -2.13162820728e-14 l 1
EndSplineSet
EndChar

StartChar: N
Encoding: 78 78 49
Width: 1024
Flags: W
LayerCount: 2
Fore
SplineSet
211.337850155 -7.1054273576e-14 m 1
 5.88630311391 -7.1054273576e-14 l 1
 294.676075841 1408 l 1
 482.651304113 1408 l 1
 736.978887327 394.284403304 l 1
 934.689376044 1408 l 1
 1140.11369689 1408 l 1
 851.323924159 -5.0448534239e-13 l 1
 662.348695887 -8.10018718767e-13 l 1
 408.093577676 1013.42676093 l 1
 211.337850155 -7.1054273576e-14 l 1
EndSplineSet
EndChar

StartChar: O
Encoding: 79 79 50
Width: 1024
Flags: W
LayerCount: 2
Fore
SplineSet
871.731090662 708.22634709 m 0
 909 884.720461911 909 884.720461911 909 978.672191291 c 0
 909 1084.72604889 909 1084.72604889 857.261701817 1153.86845127 c 0
 833.606708585 1187.94767881 833.606708585 1187.94767881 791.853475486 1207.59625909 c 0
 748.495526047 1228 748.495526047 1228 689 1228 c 0
 576.87313721 1228 576.87313721 1228 494.974285485 1158.93934665 c 0
 409.306156331 1091.90452682 409.306156331 1091.90452682 358.87627758 986.298851841 c 0
 317.450349683 895.863736993 317.450349683 895.863736993 274.268760748 694.599540447 c 0
 237 518.03992306 237 518.03992306 237 424.052939144 c 0
 237 316.622410042 237 316.622410042 287.738298183 248.790959512 c 0
 311.393291415 217.166869608 311.393291415 217.166869608 353.948882684 198.583434804 c 0
 396.504473953 180 396.504473953 180 456 180 c 0
 568.12686279 180 568.12686279 180 650.025714515 244.06135115 c 0
 735.68731648 311.065928723 735.68731648 311.065928723 786.115960593 416.620855891 c 0
 829.544944063 511.654852893 829.544944063 511.654852893 871.731090662 708.22634709 c 0
760.609481889 88.9771062424 m 0
 620.251221571 -16 620.251221571 -16 433 -16 c 0
 297.413912098 -16 297.413912098 -16 203.829674781 42.6842506537 c 0
 110.174565412 101.412943335 110.174565412 101.412943335 70.087282706 193.053239905 c 0
 30 284.693536476 30 284.693536476 30 399.800067039 c 0
 30 499.29629665 30 499.29629665 71.7082689324 697.510280725 c 0
 119.50910218 925.071654666 119.50910218 925.071654666 170.24841524 1030.38659745 c 0
 245.032257793 1200.92109159 245.032257793 1200.92109159 385.390518111 1312.4605458 c 0
 525.748778429 1424 525.748778429 1424 713 1424 c 0
 848.586087902 1424 848.586087902 1424 942.170325219 1361.05345942 c 0
 1035.82543459 1298.05924896 1035.82543459 1298.05924896 1075.91271729 1199.7630352 c 0
 1116 1107.25001235 1116 1107.25001235 1116 991.047277415 c 0
 1116 890.603506414 1116 890.603506414 1074.29173107 690.501853283 c 0
 1026.49089782 460.773323648 1026.49089782 460.773323648 975.75158476 354.455425596 c 0
 900.967742207 193.954212485 900.967742207 193.954212485 760.609481889 88.9771062424 c 0
EndSplineSet
EndChar

StartChar: P
Encoding: 80 80 51
Width: 1024
Flags: W
LayerCount: 2
Fore
SplineSet
350.106549413 678 m 1
 453 678 l 2
 508.624539971 678 508.624539971 678 540.888183015 680.060610708 c 0
 573.15182606 682.121221416 573.15182606 682.121221416 625.39240408 695.931410795 c 0
 750.073320819 728.891748091 750.073320819 728.891748091 822.049756157 847.919002648 c 0
 864 917.292017985 864 917.292017985 864 999 c 0
 864 1096.2704225 864 1096.2704225 809.72515058 1150.54527192 c 0
 783.878744591 1178.00707828 783.878744591 1178.00707828 742.383620922 1191.97573378 c 0
 696.402413818 1207.45455597 696.402413818 1207.45455597 667.178925281 1209.60334189 c 0
 634.584375003 1212 634.584375003 1212 579 1212 c 2
 461.328771635 1212 l 1
 350.106549413 678 l 1
294.676075841 1408 m 1
 603 1408 l 2
 653.243175279 1408 653.243175279 1408 685.804355273 1405.89927871 c 0
 718.365535267 1403.79855742 718.365535267 1403.79855742 773.865709338 1394.63833452 c 0
 867.710549416 1379.14938033 867.710549416 1379.14938033 940.343046791 1317.04770545 c 0
 955.151511927 1304.38628638 955.151511927 1304.38628638 967.838025245 1290.85523164 c 0
 1070 1180.92006315 1070 1180.92006315 1070 1019 c 0
 1070 884.50183185 1070 884.50183185 1001.57998929 771.68132452 c 0
 919.512544964 636.357015028 919.512544964 636.357015028 788.246698207 559.800831757 c 0
 699.170901806 507.850509851 699.170901806 507.850509851 603.841077023 494.091364073 c 0
 547.13313029 485.906591809 547.13313029 485.906591809 513.668842915 483.953295904 c 0
 480.20455554 482 480.20455554 482 430 482 c 2
 312.335335791 482 l 1
 211.335335791 7.1054273576e-15 l 1
 5.88630311391 1.42108547152e-14 l 1
 294.676075841 1408 l 1
EndSplineSet
EndChar

StartChar: Q
Encoding: 81 81 52
Width: 1024
Flags: W
LayerCount: 2
Fore
SplineSet
385.35719314 1312.4340634 m 0
 525.748778429 1424 525.748778429 1424 713 1424 c 0
 814.127889871 1424 814.127889871 1424 893.74070483 1388.36908981 c 0
 973.35351979 1352.73817962 973.35351979 1352.73817962 1022.25595337 1288.48265643 c 0
 1116 1172.17599321 1116 1172.17599321 1116 995.313516616 c 0
 1116 894.541996611 1116 894.541996611 1074.29235075 693.790380914 c 0
 1027.4927781 468.037747462 1027.4927781 468.037747462 975.72328871 356.585293357 c 0
 910.545723266 218.60973749 910.545723266 218.60973749 797.793971727 120.105339463 c 0
 698.346837322 33.2243821718 698.346837322 33.2243821718 571.755401844 1.57745278245 c 1
 585.407561424 -35.1685735129 585.407561424 -35.1685735129 613.371130382 -54.0292476579 c 0
 645.945822223 -76 645.945822223 -76 701 -76 c 0
 757.217151723 -76 757.217151723 -76 852.45150658 -67.1638227452 c 2
 902.845685432 -62.4880741919 l 1
 864.930322784 -260.307357575 l 1
 733.712891131 -272 733.712891131 -272 671 -272 c 0
 526.955815827 -272 526.955815827 -272 445.756658526 -188.480866776 c 0
 376.432101204 -117.175607817 376.432101204 -117.175607817 358.238250041 -10.3073469189 c 1
 201.260700417 11.3328862731 201.260700417 11.3328862731 118.236474047 117.840081579 c 0
 30 231.033781603 30 231.033781603 30 400.029195352 c 0
 30 499.487525756 30 499.487525756 71.7076492523 697.623075586 c 0
 118.50786585 920.436911825 118.50786585 920.436911825 170.177358945 1030.22451662 c 0
 244.96560785 1200.8681268 244.96560785 1200.8681268 385.35719314 1312.4340634 c 0
909 958.533240868 m 0
 909 1078.44127101 909 1078.44127101 858.143308768 1152.54001684 c 0
 834.412908803 1187.13009137 834.412908803 1187.13009137 792.580228886 1207.2261827 c 0
 749.336772468 1228 749.336772468 1228 690.529030432 1228 c 0
 631.721288397 1228 631.721288397 1228 583.299268702 1210.83211842 c 0
 506.555820763 1183.62295955 506.555820763 1183.62295955 440.406837328 1106.43616215 c 0
 391.442297108 1049.32654332 391.442297108 1049.32654332 358.974736245 973.186366031 c 0
 317.524037714 875.86851612 317.524037714 875.86851612 274.301110641 658.911138654 c 0
 237.000001095 462.636717529 237.000001095 462.636717529 237 372.325070472 c 0
 237 265.823560165 237 265.823560165 280.179411136 193.296459114 c 0
 310.864714461 141.755318639 310.864714461 141.755318639 366.062614601 120 c 1
 377.757101345 188.902218857 377.757101345 188.902218857 415.652427971 384.324982991 c 1
 621.315580924 384.324982991 l 1
 585.052065084 202.221023371 585.052065084 202.221023371 572.362611177 126.794105163 c 1
 627.268288246 149.032565574 627.268288246 149.032565574 672.818735294 193.952594414 c 0
 758.870175382 278.813082533 758.870175382 278.813082533 804.658164177 405.792091924 c 0
 813.606685115 430.608083063 813.606685115 430.608083063 826.3839242 473.667416307 c 0
 839.161163284 516.726749552 839.161163284 516.726749552 845.733302562 547.018799355 c 0
 909 838.625210724 909 838.625210724 909 958.533240868 c 0
EndSplineSet
EndChar

StartChar: R
Encoding: 82 82 53
Width: 1024
Flags: W
LayerCount: 2
Fore
SplineSet
350.106549413 678 m 1
 453 678 l 2
 507.643780429 678 507.643780429 678 540.330959648 680.058257391 c 0
 573.018138867 682.116514783 573.018138867 682.116514783 625.397291605 696.370596919 c 0
 677.776444342 710.624679056 677.776444342 710.624679056 717.561621201 736.712229564 c 0
 779.593013373 777.708391255 779.593013373 777.708391255 821.796506687 847.50020462 c 0
 864 917.292017985 864 917.292017985 864 999 c 0
 864 1096.2704225 864 1096.2704225 809.72515058 1150.54527192 c 0
 783.878744591 1178.00707828 783.878744591 1178.00707828 742.383620922 1191.97573378 c 0
 696.402413818 1207.45455597 696.402413818 1207.45455597 667.178925281 1209.60334189 c 0
 634.584375003 1212 634.584375003 1212 579 1212 c 2
 461.328771635 1212 l 1
 350.106549413 678 l 1
294.676075841 1408 m 1
 603 1408 l 2
 653.243175279 1408 653.243175279 1408 685.804355273 1405.89927871 c 0
 718.365535267 1403.79855742 718.365535267 1403.79855742 773.865709338 1394.63833452 c 0
 867.710549416 1379.14938033 867.710549416 1379.14938033 940.343046791 1317.04770545 c 0
 955.151511927 1304.38628638 955.151511927 1304.38628638 967.838025245 1290.85523164 c 0
 1070 1180.92006315 1070 1180.92006315 1070 1019 c 0
 1070 860.100597548 1070 860.100597548 972.383611971 727.332709341 c 0
 885.522302558 609.192785805 885.522302558 609.192785805 764.180060148 548.652815786 c 1
 909.511853098 -1.70530256582e-13 l 1
 695.390830219 -4.47641923529e-13 l 1
 562.531603212 488.479474185 l 1
 507.065493471 482 507.065493471 482 430 482 c 2
 312.335335791 482 l 1
 211.335335791 7.1054273576e-15 l 1
 5.88630311391 1.42108547152e-14 l 1
 294.676075841 1408 l 1
EndSplineSet
EndChar

StartChar: S
Encoding: 83 83 54
Width: 1024
Flags: W
LayerCount: 2
Fore
SplineSet
701.926217966 27.3383570734 m 0
 596.523053232 -16 596.523053232 -16 477 -16 c 0
 310.964097517 -16 310.964097517 -16 106.988822442 16.4736756338 c 2
 68.1613315781 22.6551667166 l 1
 106.746223222 220.40273639 l 1
 143.114413534 214.509742589 l 2
 356.08882494 180 356.08882494 180 502.234689415 180 c 0
 648.380553891 180 648.380553891 180 738.769554935 262.699472716 c 0
 829 345.253878049 829 345.253878049 829 458.133710687 c 0
 829 522.780641 829 522.780641 789.735221644 565.028131092 c 0
 768.840244188 587.51037574 768.840244188 587.51037574 735.671484051 600.640854009 c 0
 697.581175511 616.192872726 697.581175511 616.192872726 587.406719397 629.854982279 c 0
 464.313345453 645.119093575 464.313345453 645.119093575 392.941224044 684.065478864 c 0
 321.569102635 723.011864154 321.569102635 723.011864154 282.284551317 790.351352233 c 0
 243 857.690840311 243 857.690840311 243 942.326615669 c 0
 243 1024.10569036 243 1024.10569036 278.632732034 1104.4246726 c 0
 314.265464068 1191.34694317 314.265464068 1191.34694317 377.637324641 1262.84340125 c 0
 441.009185214 1334.33985933 441.009185214 1334.33985933 540.975869057 1379.18977695 c 0
 640.854077064 1424 640.854077064 1424 757 1424 c 0
 893.076143812 1424 893.076143812 1424 1126.12779625 1398.77795969 c 2
 1167.35452808 1394.31619218 l 1
 1128.50282266 1198.43884406 l 1
 1093.83412533 1202.22618074 l 2
 857.904549027 1228 857.904549027 1228 733 1228 c 0
 666.076700861 1228 666.076700861 1228 610.403147534 1203.25619852 c 0
 555.248590994 1178.74306228 555.248590994 1178.74306228 521.17658722 1138.99239121 c 0
 487.104583445 1099.24172014 487.104583445 1099.24172014 467.948660289 1049.7927092 c 0
 449 1004.26299261 449 1004.26299261 449 957.835282581 c 0
 449 895.498810768 449 895.498810768 483.943414039 859.703772238 c 0
 496.972159457 846.35749635 496.972159457 846.35749635 516.107727491 835.757772817 c 0
 557.143680199 813.95231636 557.143680199 813.95231636 662.852840929 798.714099491 c 0
 780.424382884 781.765893525 780.424382884 781.765893525 834.836458663 760.49398295 c 0
 925.215715569 724.740396682 925.215715569 724.740396682 980.038931755 648.984371193 c 0
 1035 573.037858446 1035 573.037858446 1035 470.089861502 c 0
 1035 376.966690637 1035 376.966690637 993.44997714 289.570660824 c 0
 951.89995428 202.174631012 951.89995428 202.174631012 879.86478875 135.123443715 c 0
 807.459995308 67.7282023682 807.459995308 67.7282023682 701.926217966 27.3383570734 c 0
EndSplineSet
EndChar

StartChar: T
Encoding: 84 84 55
Width: 1024
Flags: W
LayerCount: 2
Fore
SplineSet
531.339372945 -2.70006239589e-13 m 1
 325.90907426 -2.70006239589e-13 l 1
 575.90907426 1212 l 1
 191.641324427 1212 l 1
 230.841324427 1408 l 1
 1204.35867557 1408 l 1
 1165.15867557 1212 l 1
 781.339372945 1212 l 1
 531.339372945 -2.70006239589e-13 l 1
EndSplineSet
EndChar

StartChar: U
Encoding: 85 85 56
Width: 1024
Flags: W
LayerCount: 2
Fore
SplineSet
176.800776872 71.7854723894 m 0
 83 159.754304395 83 159.754304395 83 301.077333333 c 0
 83 369.967746789 83 369.967746789 108.698172196 499.755166215 c 2
 294.669385462 1408 l 1
 500.103832681 1408 l 1
 311.335913854 493.492135312 l 1
 288.402334499 356.719641963 288.402334499 356.719641963 288 333.5 c 0
 288 260.438591015 288 260.438591015 329.522092087 220.219295508 c 0
 371.044184173 180 371.044184173 180 457.402748323 180 c 0
 543.761312472 180 543.761312472 180 606.847780917 222.726117957 c 0
 670.75309059 266.006806614 670.75309059 266.006806614 702.580349793 341.770111009 c 0
 724.390122753 394.456216319 724.390122753 394.456216319 748.729017755 507.190531488 c 1
 934.669385462 1408 l 1
 1140.10385916 1407.99999485 l 1
 951.262328577 485.740006163 l 2
 924.164508824 357.115688429 924.164508824 357.115688429 892.260147158 280.9664003 c 0
 836.065608834 148.623939914 836.065608834 148.623939914 713.356660126 66.5152560128 c 0
 590.040101675 -16 590.040101675 -16 433 -16 c 0
 270.406038196 -16 270.406038196 -16 176.800776872 71.7854723894 c 0
EndSplineSet
EndChar

StartChar: V
Encoding: 86 86 57
Width: 1024
Flags: W
LayerCount: 2
Fore
SplineSet
1015.31516861 1383.08121136 m 2
 1024.46343623 1408 l 1
 1235.51086241 1408 l 1
 1179.03388452 1254.75913333 1179.03388452 1254.75913333 1140.51778965 1156.4927338 c 0
 1102.00169479 1064.36951347 1102.00169479 1064.36951347 1062.58842425 975.819069701 c 0
 983.752477043 798.697049251 983.752477043 798.697049251 901.349741773 635.951208298 c 0
 736.127530215 309.636460666 736.127530215 309.636460666 525.53040177 16.7954344368 c 2
 514.20702823 -4.26325641456e-14 l 1
 349.40116695 -4.26325641456e-14 l 1
 341.481566123 27.4658496745 l 2
 199 490.910581767 199 490.910581767 199 1175 c 0
 199 1240.29771762 199 1240.29771762 201.580035114 1408 c 1
 408.013389598 1408 l 1
 403.999852533 1255.48559151 403.999852533 1255.48559151 404 1143 c 0
 404 600.705527729 404 600.705527729 481.771245052 208.54577367 c 1
 624.757934595 449.430099315 624.757934595 449.430099315 744.340298772 714.590993508 c 0
 881.782439013 1019.35400013 881.782439013 1019.35400013 1015.31516861 1383.08121136 c 2
EndSplineSet
EndChar

StartChar: W
Encoding: 87 87 58
Width: 1024
Flags: W
LayerCount: 2
Fore
SplineSet
523.368647676 896 m 1
 707.797724645 896 l 1
 741.121497354 338.436388334 l 1
 883.363961026 767.146892865 883.363961026 767.146892865 1001.69514181 1377.2658179 c 2
 1007.65596667 1408 l 1
 1213.08873523 1408 l 1
 1204.3041422 1362.73049144 l 2
 1066.64520468 691.447014901 1066.64520468 691.447014901 789.379906533 24.1165404515 c 2
 779.898189775 -1.13686837722e-13 l 1
 594.299715279 -1.4921397451e-13 l 1
 554.41498638 638.155662372 l 1
 266.551290854 -4.26325641456e-14 l 1
 80 -4.26325641456e-14 l 1
 80 38 l 2
 80 715.249756807 80 715.249756807 215.695265115 1377.26645364 c 2
 221.656513332 1408 l 1
 427.118797087 1408 l 1
 418.29953095 1362.70676891 l 2
 303.249070228 771.8404742 303.249070228 771.8404742 276.381748977 344.100936457 c 1
 523.368647676 896 l 1
EndSplineSet
EndChar

StartChar: X
Encoding: 88 88 59
Width: 1024
Flags: W
LayerCount: 2
Fore
SplineSet
451.192922789 721.784528129 m 1
 201.685562911 1408 l 1
 429.650269706 1408 l 1
 607.046736879 859.854302492 l 1
 998.445291435 1408 l 1
 1240.08966447 1408 l 1
 698.979734047 709.575256515 l 1
 977.724025635 -1.98951966013e-13 l 1
 748.165693769 -3.90798504668e-13 l 1
 543.783476879 575.298091986 l 1
 116.094763758 1.42108547152e-14 l 1
 -127.657665472 2.20268248086e-13 l 1
 451.192922789 721.784528129 l 1
EndSplineSet
EndChar

StartChar: Y
Encoding: 89 89 60
Width: 1024
Flags: W
LayerCount: 2
Fore
SplineSet
197.034200227 1361.16521852 m 2
 185.865184203 1408 l 1
 400.303242533 1408 l 1
 449.66185596 1191.98972403 449.66185596 1191.98972403 495.200439388 1036.7044442 c 0
 540.739022817 881.419164364 540.739022817 881.419164364 588.969866082 757.837366257 c 1
 816.45917782 1008.42748541 816.45917782 1008.42748541 1016.36068365 1387.67987482 c 2
 1027.0712915 1408 l 1
 1249.1169676 1408 l 1
 1219.60721996 1352.25936556 l 2
 1092.56596839 1125.06158057 1092.56596839 1125.06158057 959.023360453 941.799558425 c 0
 825.480752518 758.537536276 825.480752518 758.537536276 655.028182093 601.255285888 c 1
 531.317692997 1.84741111298e-13 l 1
 325.877112198 2.98427949019e-13 l 1
 452.31871825 614.743031942 l 1
 314.693283471 893.878766793 314.693283471 893.878766793 197.034200227 1361.16521852 c 2
EndSplineSet
EndChar

StartChar: Z
Encoding: 90 90 61
Width: 1024
Flags: W
LayerCount: 2
Fore
SplineSet
211.641324427 1212 m 1
 250.841324427 1408 l 1
 1184.35867557 1408 l 1
 1155.47648839 1263.58906406 l 1
 248.691220419 120 l 1
 952.980899652 120 l 1
 915.414232986 -8.52651282912e-14 l 1
 -58.1612657662 -7.81597009336e-14 l 1
 -29.5273046887 137.715717564 l 1
 876.283296847 1212 l 1
 211.641324427 1212 l 1
EndSplineSet
EndChar

StartChar: bracketleft
Encoding: 91 91 62
Width: 1024
Flags: W
LayerCount: 2
Fore
SplineSet
172.881354342 -128 m 1
 511.679431265 1536 l 1
 1101.35867557 1536 l 1
 1062.15867557 1340 l 1
 678.326375019 1340 l 1
 416.110082884 58.3523316062 l 1
 799.980899652 58.3523316062 l 1
 762.414232986 -128 l 1
 172.881354342 -128 l 1
EndSplineSet
Substitution2: "'rtla' Right to Left Alternates lookup 0 subtable" bracketright
EndChar

StartChar: backslash
Encoding: 92 92 63
Width: 1024
Flags: W
LayerCount: 2
Fore
SplineSet
719.058529599 -172.05000764 m 1
 233.460818581 1496.86292347 l 1
 426.884463547 1580.2080713 l 1
 913.582911821 -88.9065216902 l 1
 719.058529599 -172.05000764 l 1
EndSplineSet
Substitution2: "<2,2> Cursive lookup 1 nested-substitutions 0 subtable" backslash.shrug
EndChar

StartChar: bracketright
Encoding: 93 93 64
Width: 1024
Flags: W
LayerCount: 2
Fore
SplineSet
634.320568735 -128 m 1
 45.0191003476 -128 l 1
 82.5857670143 68 l 1
 466.673624981 68 l 1
 728.889917116 1340 l 1
 344.641324427 1340 l 1
 383.841324427 1536 l 1
 973.118645658 1536 l 1
 634.320568735 -128 l 1
EndSplineSet
Substitution2: "'rtla' Right to Left Alternates lookup 0 subtable" bracketleft
EndChar

StartChar: asciicircum
Encoding: 94 94 65
Width: 1024
Flags: W
LayerCount: 2
Fore
SplineSet
606.045324784 1399.49102576 m 2
 616.50513702 1408 l 1
 807.778938277 1408 l 1
 819.19189948 1394.31779505 l 2
 997.942969319 1180.02557682 997.942969319 1180.02557682 1022.88330537 860.997111545 c 2
 1026.08829129 820 l 1
 815.677671952 820 l 1
 812.197696769 854.103756791 l 2
 789.477075577 1076.76584447 789.477075577 1076.76584447 693.860387277 1223 c 1
 678.88677743 1223 l 1
 516.296405803 1070.32978796 516.296405803 1070.32978796 404.149184206 841.323276636 c 2
 393.706921162 820 l 1
 175.374591688 820 l 1
 200.53323823 874.0119195 l 2
 347.228866774 1188.94589127 347.228866774 1188.94589127 606.045324784 1399.49102576 c 2
EndSplineSet
EndChar

StartChar: underscore
Encoding: 95 95 66
Width: 1024
Flags: W
LayerCount: 2
Fore
SplineSet
-19.4142329857 76 m 1
 953.980899652 76 l 1
 916.414232986 -120 l 1
 -56.9808996524 -120 l 1
 -19.4142329857 76 l 1
EndSplineSet
Substitution2: "<2,2> Cursive lookup 143 nested-substitutions 0 subtable" underscore.2r
Substitution2: "<2,2> Cursive lookup 141 nested-substitutions 0 subtable" underscore.2l
Substitution2: "<2,2> Cursive lookup 139 nested-substitutions 0 subtable" underscore.more
Substitution2: "<2,2> Cursive lookup 137 nested-substitutions 0 subtable" underscore.more
Substitution2: "<2,2> Cursive lookup 135 nested-substitutions 0 subtable" underscore.more
EndChar

StartChar: grave
Encoding: 96 96 67
Width: 1024
Flags: W
LayerCount: 2
Fore
SplineSet
770.064706204 948 m 1
 553.945710463 948 l 1
 444.935293796 1408 l 1
 661.054289537 1408 l 1
 770.064706204 948 l 1
EndSplineSet
EndChar

StartChar: a
Encoding: 97 97 68
Width: 1024
Flags: W
LayerCount: 2
Fore
SplineSet
681.862206441 474 m 1
 532 474 l 2
 496.829544699 474 496.829544699 474 479.172822751 472.510878872 c 0
 461.516100803 471.021757744 461.516100803 471.021757744 433.196091766 461.801698104 c 0
 364.986406623 439.59487733 364.986406623 439.59487733 325.995099765 365.121757568 c 0
 304 323.111272901 304 323.111272901 304 279.180722892 c 0
 304 232.91895707 304 232.91895707 332.029133286 205.811834747 c 0
 358.718921596 180 358.718921596 180 412 180 c 0
 470.718795318 180 470.718795318 180 520.400720997 202.635999819 c 0
 560.834288431 221.05827739 560.834288431 221.05827739 591.089066024 258.455278459 c 0
 630.046170294 306.608958172 630.046170294 306.608958172 651.768828833 367.277384035 c 0
 664.311559459 402.307521886 664.311559459 402.307521886 669.887504381 423.704370776 c 0
 675.463449304 445.101219667 675.463449304 445.101219667 681.862206441 474 c 1
581.862762463 -3.97903932026e-13 m 1
 594.794589493 66.2756135325 l 1
 486.482519875 -16 486.482519875 -16 366.578442319 -16 c 0
 246.674364763 -16 246.674364763 -16 171.837182382 58.7290929638 c 0
 97 133.458185928 97 133.458185928 97 250.991596639 c 0
 97 336.346892078 97 336.346892078 137.921591172 422.616178176 c 0
 178.843182343 508.885464274 178.843182343 508.885464274 251.718179847 567.427945928 c 1
 337.475728621 633.664684544 337.475728621 633.664684544 427.548210348 649.457037912 c 0
 470.250373679 656.943982204 470.250373679 656.943982204 489.024488523 658.103216917 c 0
 519.743395616 660 519.743395616 660 555 660 c 2
 717.74107302 660 l 1
 735.646078452 767.794253044 l 1
 746 836.99913693 746 836.99913693 746 855.414373923 c 0
 746 889.695114915 746 889.695114915 729.809714637 904 c 0
 721.779651795 881.501562374 721.779651795 881.501562374 702.509608832 862.750781187 c 0
 683.239565869 844 683.239565869 844 647 844 c 0
 529.338569361 844 529.338569361 844 359.644735655 823.281566815 c 2
 308.025838242 816.979259573 l 1
 345.853099891 1017.62821267 l 1
 373.715268852 1020.76064586 l 2
 544.844260916 1040 544.844260916 1040 670 1040 c 0
 811.461766876 1040 811.461766876 1040 879.915839633 981.086777385 c 0
 952 918.389921057 952 918.389921057 952 825.663082437 c 0
 952 794.621351134 952 794.621351134 939.437348692 727.305352192 c 0
 939.298057698 726.601411371 939.298057698 726.601411371 787.313966649 -3.97903932026e-13 c 1
 581.862762463 -3.97903932026e-13 l 1
EndSplineSet
EndChar

StartChar: b
Encoding: 98 98 69
Width: 1024
Flags: W
LayerCount: 2
Fore
SplineSet
564.109020737 1408 m 1
 477.573646486 963.085803094 l 1
 572.230714625 1040 572.230714625 1040 674 1040 c 0
 803.60269306 1040 803.60269306 1040 881.504623341 954.214532631 c 0
 957 871.07915784 957 871.07915784 957 731.222614841 c 0
 957 659.733870124 957 659.733870124 925.32270458 505.308408993 c 0
 913.610618106 449.472184537 913.610618106 449.472184537 903.662552755 407.98434766 c 0
 893.714487404 366.496510784 893.714487404 366.496510784 876.512712534 316.410777596 c 0
 858.964966735 265.317694419 858.964966735 265.317694419 836.888965088 224.493824902 c 0
 775.585883809 112.125744358 775.585883809 112.125744358 678.802438641 48.7229236456 c 0
 580.003876346 -16 580.003876346 -16 469.433043994 -16 c 0
 358.862211643 -16 358.862211643 -16 289.02653183 70.9508790555 c 1
 275.403963051 -2.13162820728e-13 l 1
 69.8863031139 -2.48689957516e-13 l 1
 358.676075841 1408 l 1
 564.109020737 1408 l 1
748 695.945945946 m 0
 748 764.662787864 748 764.662787864 716.274634196 807.73798226 c 0
 701.548340136 827.732644678 701.548340136 827.732644678 679.990259704 835.866322339 c 0
 658.432179271 844 658.432179271 844 635.645755215 844 c 0
 612.859331158 844 612.859331158 844 596.132543652 840.598006317 c 0
 551.64355322 831.549570427 551.64355322 831.549570427 508.608291963 793.943594739 c 0
 475.90233041 765.363784622 475.90233041 765.363784622 452.552807593 725.697601578 c 0
 415.230334443 662.905062291 415.230334443 662.905062291 381.30885668 505.498927795 c 0
 355 383.967284346 355 383.967284346 355 328.054054054 c 0
 355 259.448970018 355 259.448970018 387.098167665 216.433594748 c 0
 402.136378609 196.280597421 402.136378609 196.280597421 423.593677252 188.14029871 c 0
 445.050975896 180 445.050975896 180 472.13298473 180 c 0
 525.891408477 180 525.891408477 180 571.087080148 211.785531545 c 0
 630.84649376 253.8135545 630.84649376 253.8135545 662.43938281 321.408939325 c 0
 694.562101926 390.137935805 694.562101926 390.137935805 722.713843169 518.605526577 c 0
 748 635.542173676 748 635.542173676 748 695.945945946 c 0
EndSplineSet
EndChar

StartChar: c
Encoding: 99 99 70
Width: 1024
Flags: W
LayerCount: 2
Fore
SplineSet
454.42686245 995.075738533 m 0
 549.219203631 1040 549.219203631 1040 668 1040 c 0
 770.965817304 1040 770.965817304 1040 938.910069988 1022.80088979 c 2
 980.133580604 1018.57920496 l 1
 942.779589987 900.494362555 l 1
 908.135643472 904 l 2
 742.057332069 844 742.057332069 844 645 844 c 0
 568.998051288 844 568.998051288 844 519.79005909 819.043279163 c 0
 470.582066893 794.086558325 470.582066893 794.086558325 431.497048013 741.480235617 c 0
 411.29384762 714.681912934 411.29384762 714.681912934 394.920427495 672.238861127 c 0
 377.637105024 627.437167562 377.637105024 627.437167562 370.418731631 598.074645449 c 0
 363.200358237 568.712123335 363.200358237 568.712123335 349.282265779 505.376741979 c 0
 322 381.226632144 322 381.226632144 322 328.951351351 c 0
 322 259.457167379 322 259.457167379 353.702695808 223.546674644 c 0
 392.14680711 180 392.14680711 180 486 180 c 0
 599.225397737 180 599.225397737 180 775.499542558 205.604065728 c 2
 828.377116018 213.284607125 l 1
 790.243032754 14.3241727037 l 1
 763.560728409 10.404738167 l 2
 583.805395502 -16 583.805395502 -16 463 -16 c 0
 293.77946968 -16 293.77946968 -16 204.88973484 70.3850328695 c 0
 116 156.770065739 116 156.770065739 116 301.15989477 c 0
 116 386.782861513 116 386.782861513 160.743185178 580.993418032 c 0
 167.185152328 608.955174001 167.185152328 608.955174001 172.581923888 629.511101527 c 0
 183.567703276 671.355171151 183.567703276 671.355171151 205.124057921 726.612996937 c 0
 226.680412567 781.870822723 226.680412567 781.870822723 256.77822987 825.860779261 c 0
 335.48036593 942.645330511 335.48036593 942.645330511 454.42686245 995.075738533 c 0
EndSplineSet
EndChar

StartChar: d
Encoding: 100 100 71
Width: 1024
Flags: W
LayerCount: 2
Fore
SplineSet
393.205119922 976.034245893 m 0
 490.996123654 1040 490.996123654 1040 602 1040 c 0
 680.547348437 1040 680.547348437 1040 741.611085504 999.093224683 c 0
 765.209235236 983.284755445 765.209235236 983.284755445 783.717453081 960.926011853 c 1
 870.672904606 1408 l 1
 1076.11369689 1408 l 1
 787.323924159 8.52651282912e-14 l 1
 582.004036949 8.52651282912e-14 l 1
 592.172116259 52.9587464078 l 1
 538.999316815 11.198615964 538.999316815 11.198615964 472.814958788 -6.16482061432 c 0
 435.326122359 -16 435.326122359 -16 397 -16 c 0
 333.542486529 -16 333.542486529 -16 280.776027453 7.35271456648 c 0
 228.009568377 29.1045536062 228.009568377 29.1045536062 189.418144484 71.8072067267 c 0
 114 155.259811944 114 155.259811944 114 293.910160156 c 0
 114 359.686646588 114 359.686646588 146.671266816 519.452472043 c 0
 156.301000528 565.080293573 156.301000528 565.080293573 166.75643511 610.527530017 c 0
 177.211869691 655.974766461 177.211869691 655.974766461 190.061482151 694.057139128 c 0
 202.91109461 732.139511796 202.91109461 732.139511796 212.832290785 755.427169416 c 0
 223.122712556 779.581496651 223.122712556 779.581496651 234.111034912 799.870759074 c 0
 295.414116191 912.068491787 295.414116191 912.068491787 393.205119922 976.034245893 c 0
648.659919832 835.934161996 m 0
 626.975840966 844 626.975840966 844 599 844 c 0
 545.108591523 844 545.108591523 844 499.912919852 812.214468455 c 0
 441.520264913 771.147669204 441.520264913 771.147669204 410.531984412 706.859671283 c 0
 378.286245264 639.962961372 378.286245264 639.962961372 349.30885668 505.498927795 c 0
 323 383.967284346 323 383.967284346 323 328.054054054 c 0
 323 258.401526 323 258.401526 354.268840807 215.754207555 c 0
 380.483680684 180 380.483680684 180 440 180 c 0
 493.891408477 180 493.891408477 180 539.087080148 211.785531545 c 0
 588.109036549 246.262039669 588.109036549 246.262039669 618.30519372 298.061170969 c 0
 656.775733839 363.732437082 656.775733839 363.732437082 690.713843169 518.605526577 c 0
 716 635.542173676 716 635.542173676 716 695.945945946 c 0
 716 765.598474 716 765.598474 684.731159193 808.245792445 c 0
 670.343998698 827.868323992 670.343998698 827.868323992 648.659919832 835.934161996 c 0
EndSplineSet
EndChar

StartChar: e
Encoding: 101 101 72
Width: 1024
Flags: W
LayerCount: 2
Fore
SplineSet
720.484402842 816.329785027 m 0
 687.145857752 844 687.145857752 844 615 844 c 0
 552.93954746 844 552.93954746 844 504.561894367 821.708807314 c 0
 456.673549331 799.643075341 456.673549331 799.643075341 428.497875937 759.699346249 c 0
 408.08450642 733.450834313 408.08450642 733.450834313 386.203098105 670 c 1
 747.941085876 670 l 1
 754 708.909355346 754 708.909355346 754 731.556603774 c 0
 754 788.512620967 754 788.512620967 720.484402842 816.329785027 c 0
919.303540084 474 m 1
 343.613086905 474 l 1
 321 363.171083023 321 363.171083023 321 324.964235742 c 0
 321 286.757388461 321 286.757388461 328.845261214 261.952054774 c 0
 336.690522429 237.146721087 336.690522429 237.146721087 351.047491987 220.925223122 c 0
 387.268695714 180 387.268695714 180 476 180 c 0
 590.846657794 180 590.846657794 180 775.719992885 200.761176668 c 2
 827.039734594 206.524356218 l 1
 789.064502699 8.39271154536 l 1
 761.325308499 5.2439381497 l 2
 574.176329561 -16 574.176329561 -16 453 -16 c 0
 290.913459717 -16 290.913459717 -16 202.706284125 68.9567344924 c 0
 115 153.431035406 115 153.431035406 115 295.575971731 c 0
 115 361.407121655 115 361.407121655 146.66716017 518.641989662 c 0
 161.784840548 592.916275161 161.784840548 592.916275161 172.083585665 635.668804362 c 0
 182.382330782 678.421333564 182.382330782 678.421333564 203.323903191 735.0745768 c 0
 234.958780135 820.656420577 234.958780135 820.656420577 281.905629724 878.07982599 c 0
 332.621839737 940.113754019 332.621839737 940.113754019 408.438400569 982.701695633 c 0
 510.442869768 1040 510.442869768 1040 638 1040 c 0
 785.356037762 1040 785.356037762 1040 871.905286863 961.581468481 c 0
 959 882.668715589 959 882.668715589 959 742.943708609 c 0
 959 664.503972344 959 664.503972344 925.295690562 502.756429951 c 2
 919.303540084 474 l 1
EndSplineSet
EndChar

StartChar: f
Encoding: 102 102 73
Width: 1024
Flags: W
LayerCount: 2
Fore
SplineSet
588.183623427 931.355339059 m 17,0,-1
 930 931.355339059 l 1,1,-1
 965.355339059 896 l 1,2,-1
 942.355339059 776 l 1,3,-1
 907 740.644660941 l 1,4,-1
 551.475605786 740.644660941 l 1,5,-1
 412.183464059 24.814453125 l 2,6,7
 399 -42 399 -42 369.355339059 -111 c 0,8,9
 344 -169 344 -169 314.355339059 -201 c 0,10,11
 307 -209 307 -209 268.359487711 -247.541305893 c 0,12,13
 226 -290 226 -290 198.5 -306.355339059 c 0,14,15
 150 -334 150 -334 146.49838092 -331.416024495 c 0,16,17
 146 -331 146 -331 146 -331.355339059 c 0,18,19
 132 -331 132 -331 -7 -315.355339059 c 1,20,-1
 -42.3553390593 -280 l 1,21,-1
 -18.3553390593 -160 l 1,22,-1
 17 -124.644660941 l 1,23,24
 84 -141 84 -141 107.870408452 -140.644660941 c 0,25,26
 132 -141 132 -141 156.568413365 -123.281525933 c 1,27,-1
 188.547981253 -60.3740234375 l 1,28,-1
 204.369270316 0.458984375 l 1,29,-1
 352.56597139 740.644660941 l 1,30,-1
 139 740.644660941 l 1,31,-1
 103.644660941 776 l 1,32,-1
 126.644660941 896 l 1,33,-1
 162 931.355339059 l 1,34,-1
 389.472945308 931.355339059 l 1,35,-1
 427.644660941 1129 l 2,36,37
 436 1173 436 1173 441.144660941 1190.5 c 0,38,39
 454 1231 454 1231 468.144660941 1255.5 c 0,40,41
 504.333190971 1314.9053975 504.333190971 1314.9053975 524.829303124 1335.40150965 c 2,42,-1
 560.184642183 1370.75684871 l 2,43,44
 601 1411 601 1411 661.795180723 1435.25895352 c 0,45,46
 723 1459 723 1459 797 1459.35533906 c 0,47,48
 891 1459 891 1459 1030 1443.35533906 c 1,49,-1
 1065.35533906 1408 l 1,50,-1
 1041.35533906 1288 l 1,51,-1
 1006 1252.64466094 l 1,52,53
 915 1266 915 1266 824 1276 c 0,54,55
 679 1292 679 1292 666.804342565 1241.83397979 c 2,56,-1
 588.183623427 931.355339059 l 17,0,-1
EndSplineSet
EndChar

StartChar: g
Encoding: 103 103 74
Width: 1024
Flags: W
LayerCount: 2
Fore
SplineSet
701.242259094 538.007794996 m 0
 719 623.916865865 719 623.916865865 719 687 c 0
 719 763.532891413 719 763.532891413 687.37433717 806.511356284 c 0
 659.788354058 844 659.788354058 844 598.023894606 844 c 0
 485.210817272 844 485.210817272 844 418.828741329 714.684267643 c 0
 388.860411967 655.02045489 388.860411967 655.02045489 366.930205984 562.284646634 c 0
 345 469.548838378 345 469.548838378 345 391.007973483 c 0
 345 312.467108587 345 312.467108587 376.62566283 269.488643716 c 0
 404.211645942 232 404.211645942 232 465 232 c 0
 532.161101389 232 532.161101389 232 579.24880213 275.434344649 c 0
 630.989054578 323.160267166 630.989054578 323.160267166 660.7922997 396.313687011 c 0
 683.484518188 452.098724128 683.484518188 452.098724128 701.242259094 538.007794996 c 0
393.333689282 978.475307953 m 0
 484.710192397 1040 484.710192397 1040 602 1040 c 0
 711.197534785 1040 711.197534785 1040 781.818502871 952.242010008 c 1
 795.596036949 1024 l 1
 1001.05416181 1024 l 1
 825.257597994 178.196121526 l 2
 815.049579761 132.629724126 815.049579761 132.629724126 807.06932632 102.944611946 c 0
 799.089072879 73.2594997658 799.089072879 73.2594997658 771.472348668 14.9803985209 c 0
 743.855624457 -47.6883218039 743.855624457 -47.6883218039 703.797145973 -98.5734160946 c 0
 566.364758727 -272 566.364758727 -272 344 -272 c 0
 224.52523876 -272 224.52523876 -272 106.08754071 -256.684780424 c 2
 66.0712992787 -251.510266446 l 1
 103.296221817 -57.2932792925 l 1
 138.298013838 -61.2408498212 l 2
 269.162478756 -76 269.162478756 -76 368 -76 c 0
 476.974604502 -76 476.974604502 -76 545.494569901 7.93695761366 c 0
 567.972948272 33.7051149862 567.972948272 33.7051149862 585.85315198 74.0906612699 c 0
 604.629732256 116.500829757 604.629732256 116.500829757 608.410193952 132.15045999 c 2
 619.25675788 177.438058443 l 1
 523.770771178 104.862507891 523.770771178 104.862507891 422 104.862507891 c 0
 283.779943849 104.862507891 283.779943849 104.862507891 209.349897331 191.243692241 c 0
 138 274.050151769 138 274.050151769 138 406.639945584 c 0
 138 515.359732766 138 515.359732766 169.64034829 632.757395488 c 0
 201.376906181 750.512032228 201.376906181 750.512032228 247.846187114 827.23928261 c 0
 301.957186166 916.950615906 301.957186166 916.950615906 393.333689282 978.475307953 c 0
EndSplineSet
EndChar

StartChar: h
Encoding: 104 104 75
Width: 1024
Flags: W
LayerCount: 2
Fore
SplineSet
564.157292665 1408 m 1
 478.779744136 971.430267315 l 1
 570.271908644 1040 570.271908644 1040 658 1040 c 0
 784.561139759 1040 784.561139759 1040 862.15893671 968.774059769 c 0
 901.043522286 933.082438654 901.043522286 933.082438654 920.521761143 885.72424657 c 0
 940 838.366054485 940 838.366054485 940.000463034 786.089369219 c 0
 940.000926067 733.812683953 940.000926067 733.812683953 921.349823706 641.114254057 c 2
 787.317086082 2.84217094304e-13 l 1
 581.876216705 2.03855137215e-08 l 1
 718.703303332 644.291042966 l 2
 734 716.210457574 734 716.210457574 734 746.756521739 c 0
 734 779.606702727 734 779.606702727 720.484626132 800.134376456 c 0
 703.274848234 826.273254233 703.274848234 826.273254233 666.878889808 837.355485797 c 0
 645.057160016 844 645.057160016 844 615 844 c 0
 588.024513077 844 588.024513077 844 570.496312968 840.115189627 c 0
 552.968112859 836.230379253 552.968112859 836.230379253 542.055241122 832.338125574 c 0
 531.142369384 828.445871894 531.142369384 828.445871894 520.869096188 823.187965703 c 0
 500.520202902 812.773313046 500.520202902 812.773313046 480.798211831 795.440592918 c 0
 461.07622076 778.10787279 461.07622076 778.10787279 446.489375298 751.34418242 c 0
 431.902529836 724.58049205 431.902529836 724.58049205 427.609323988 708.523327836 c 0
 420.100063989 680.437690857 420.100063989 680.437690857 409.298765014 630.892602082 c 2
 275.317086082 7.1054273576e-14 l 1
 69.8863031139 2.84217094304e-14 l 1
 358.676075841 1408 l 1
 564.157292665 1408 l 1
EndSplineSet
EndChar

StartChar: i
Encoding: 105 105 76
Width: 1024
Flags: W
LayerCount: 2
Fore
SplineSet
579.473143465 1199.16386151 m 0
 570 1222.56823362 570 1222.56823362 570 1249 c 0
 570 1325.43450053 570 1325.43450053 622.482928288 1374.71725027 c 0
 674.965856577 1424 674.965856577 1424 745 1424 c 0
 802.059255589 1424 802.059255589 1424 838.532452783 1389.67228499 c 0
 857.053713071 1372.2405106 857.053713071 1372.2405106 866.526856535 1348.83613849 c 0
 876 1325.43176638 876 1325.43176638 876 1299 c 0
 876 1222.56549947 876 1222.56549947 823.517071712 1173.28274973 c 0
 771.034143423 1124 771.034143423 1124 701 1124 c 0
 643.940744411 1124 643.940744411 1124 607.467547217 1158.32771501 c 0
 588.946286929 1175.7594894 588.946286929 1175.7594894 579.473143465 1199.16386151 c 0
565.882317853 904 m 1
 310.019100348 904 l 1
 347.585767014 1024 l 1
 809.101636042 1024 l 1
 595.332104792 4.19220214098e-13 l 1
 389.882317853 4.12114786741e-13 l 1
 565.882317853 904 l 1
EndSplineSet
EndChar

StartChar: j
Encoding: 106 106 77
Width: 1024
Flags: W
LayerCount: 2
Fore
SplineSet
629.873158664 904 m 1
 374.019100348 904 l 1
 411.585767014 1024 l 1
 873.106549413 1024 l 1
 696.253301466 178.176942751 l 2
 686.049579761 132.629724126 686.049579761 132.629724126 678.06932632 102.944611946 c 0
 670.089072879 73.2594997658 670.089072879 73.2594997658 642.472348668 14.9803985209 c 0
 614.855624457 -47.6883218039 614.855624457 -47.6883218039 574.797145973 -98.5734160946 c 0
 437.364758727 -272 437.364758727 -272 215 -272 c 0
 95.5252387603 -272 95.5252387603 -272 -22.9124592904 -256.684780424 c 2
 -62.9287007213 -251.510266446 l 1
 -25.7037781835 -57.2932792925 l 1
 9.29801383791 -61.2408498212 l 2
 140.162478756 -76 140.162478756 -76 238 -76 c 0
 347.974510984 -76 347.974510984 -76 416.520495414 7.96883092638 c 0
 467.50697103 70.5838009808 467.50697103 70.5838009808 493.701704916 205.299575252 c 2
 629.873158664 904 l 1
643.473143465 1199.16386151 m 0
 634 1222.56823362 634 1222.56823362 634 1249 c 0
 634 1325.43450053 634 1325.43450053 686.482928288 1374.71725027 c 0
 738.965856577 1424 738.965856577 1424 809 1424 c 0
 866.059255589 1424 866.059255589 1424 902.532452783 1389.67228499 c 0
 921.053713071 1372.2405106 921.053713071 1372.2405106 930.526856535 1348.83613849 c 0
 940 1325.43176638 940 1325.43176638 940 1299 c 0
 940 1222.56549947 940 1222.56549947 887.517071712 1173.28274973 c 0
 835.034143423 1124 835.034143423 1124 765 1124 c 0
 707.940744411 1124 707.940744411 1124 671.467547217 1158.32771501 c 0
 652.946286929 1175.7594894 652.946286929 1175.7594894 643.473143465 1199.16386151 c 0
EndSplineSet
EndChar

StartChar: k
Encoding: 107 107 78
Width: 1024
Flags: W
LayerCount: 2
Fore
SplineSet
275.299366155 3.5527136788e-14 m 1
 69.8863031139 3.5527136788e-14 l 1
 358.676075841 1408 l 1
 564.122157948 1408 l 1
 419.192843454 663.967977821 l 1
 838.94581718 1024 l 1
 1115.8031432 1024 l 1
 623.10400711 626.21642621 l 1
 920.340637465 -1.27897692437e-13 l 1
 680.436011796 1.98951966013e-13 l 1
 462.462889916 535.372580058 l 1
 363.726775021 452.540268905 l 1
 275.299366155 3.5527136788e-14 l 1
EndSplineSet
EndChar

StartChar: l
Encoding: 108 108 79
Width: 1024
Flags: W
LayerCount: 2
Fore
SplineSet
591.316184734 302.228217284 m 2
 582 256.607489345 582 256.607489345 582 237.444785274 c 0
 582 203.373125598 582 203.373125598 599.090589368 191.116535635 c 0
 614.59148695 180 614.59148695 180 648 180 c 0
 713.448471395 180 713.448471395 180 773.909462858 184.875886408 c 2
 823.727142553 188.893441222 l 1
 785.724013976 -9.38375135515 l 1
 660.015289724 -16 660.015289724 -16 615 -16 c 0
 501.642351945 -16 501.642351945 -16 438.821175972 47.0789038738 c 0
 376 110.157807748 376 110.157807748 376 207.093333333 c 0
 375.995699764 239.757517462 375.995699764 239.757517462 388.591444849 306.52056452 c 1
 614.684072876 1408 l 1
 820.125497624 1407.99999912 l 1
 591.316184734 302.228217284 l 2
EndSplineSet
EndChar

StartChar: m
Encoding: 109 109 80
Width: 1024
Flags: W
LayerCount: 2
Fore
SplineSet
634.304927377 971.270406239 m 0
 641.827328721 962.680068145 641.827328721 962.680068145 648.365699097 953.276786653 c 1
 749.208326022 1040 749.208326022 1040 860 1040 c 0
 959.388618476 1040 959.388618476 1040 1019.69430924 980.395157388 c 0
 1080 920.790314775 1080 920.790314775 1080 829.390681004 c 0
 1080 784.811429318 1080 784.811429318 1063.26432286 708.733688853 c 2
 915.326434111 2.13162820728e-14 l 1
 709.889964206 7.78840318105e-06 l 1
 860.65720958 711.040094842 l 2
 873 771.139989687 873 771.139989687 873 791.708695692 c 0
 873 806.451086714 873 806.451086714 869.891159012 813.263853666 c 0
 865.027867659 823.921352952 865.027867659 823.921352952 857.272671101 830.273629631 c 0
 840.514789538 844 840.514789538 844 807 844 c 0
 759.949051313 844 759.949051313 844 727.032452783 815.861512462 c 0
 708.311711541 799.697516955 708.311711541 799.697516955 695.121997074 763.917810324 c 0
 689.732582789 749.297959187 689.732582789 749.297959187 679.359883332 698.150403658 c 2
 531.326434111 -5.6132876125e-13 l 1
 325.889964206 7.78840212234e-06 l 1
 476.65720958 711.040094842 l 2
 489 771.139989687 489 771.139989687 489 791.708695692 c 0
 489 844 489 844 423 844 c 0
 375.949051313 844 375.949051313 844 343.032452783 815.861512462 c 0
 331.213002113 805.656278329 331.213002113 805.656278329 321.576138728 787.237997766 c 0
 311.939275344 768.819717204 311.939275344 768.819717204 307.54417218 752.689213071 c 0
 303.149069016 736.558708938 303.149069016 736.558708938 295.359883332 698.150403658 c 2
 147.326434111 -3.5527136788e-14 l 1
 -58.1016360418 -1.42108547152e-14 l 1
 155.667895208 1024 l 1
 361.358675573 1024 l 1
 357.206466172 1003.23895299 l 1
 414.518976592 1040 414.518976592 1040 476 1040 c 0
 574.119684049 1040 574.119684049 1040 634.304927377 971.270406239 c 0
EndSplineSet
Substitution2: "<2,2> Cursive in Latin lookup 150 nested-substitutions 0 subtable" mm
Substitution2: "<2,2> Cursive in Latin lookup 148 nested-substitutions 0 subtable" larsenwork
EndChar

StartChar: n
Encoding: 110 110 81
Width: 1024
Flags: W
LayerCount: 2
Fore
SplineSet
489.196468068 1024 m 1
 478.885892249 971.509795832 l 1
 570.330021397 1040 570.330021397 1040 658 1040 c 0
 784.561139759 1040 784.561139759 1040 862.15893671 968.774059769 c 0
 901.043522286 933.082438654 901.043522286 933.082438654 920.521761143 885.72424657 c 0
 940 838.366054485 940 838.366054485 940.000463034 786.089369219 c 0
 940.000926067 733.812683953 940.000926067 733.812683953 921.349823706 641.114254057 c 2
 787.317086082 2.84217094304e-13 l 1
 581.876216705 2.03855137215e-08 l 1
 718.703303332 644.291042966 l 2
 734 716.210457574 734 716.210457574 734 746.756521739 c 0
 734 779.606702727 734 779.606702727 720.484626132 800.134376456 c 0
 703.274848234 826.273254233 703.274848234 826.273254233 666.878889808 837.355485797 c 0
 645.057160016 844 645.057160016 844 615 844 c 0
 588.024513077 844 588.024513077 844 570.496312968 840.115189627 c 0
 552.968112859 836.230379253 552.968112859 836.230379253 542.055241122 832.338125574 c 0
 531.142369384 828.445871894 531.142369384 828.445871894 520.869096188 823.187965703 c 0
 500.520202902 812.773313046 500.520202902 812.773313046 480.798211831 795.440592918 c 0
 461.07622076 778.10787279 461.07622076 778.10787279 446.489375298 751.34418242 c 0
 431.902529836 724.58049205 431.902529836 724.58049205 427.609323988 708.523327836 c 0
 420.100063989 680.437690857 420.100063989 680.437690857 409.298765014 630.892602082 c 2
 275.317086082 7.1054273576e-14 l 1
 69.8983639582 9.23705556488e-14 l 1
 283.667895208 1024 l 1
 489.196468068 1024 l 1
EndSplineSet
EndChar

StartChar: o
Encoding: 111 111 82
Width: 1024
Flags: W
LayerCount: 2
Fore
SplineSet
780.414736695 146.273100867 m 0
 637.991662157 -16 637.991662157 -16 433 -16 c 0
 286.684995151 -16 286.684995151 -16 200.936988379 68.2858961912 c 0
 116 151.774602865 116 151.774602865 116 293.71024735 c 0
 116 371.788385177 116 371.788385177 146.69410733 518.773029181 c 0
 172.193198971 641.514663801 172.193198971 641.514663801 203.043388202 725.453341213 c 0
 235.72159637 814.3657804 235.72159637 814.3657804 290.585263305 877.726899133 c 0
 433.008337843 1040 433.008337843 1040 638 1040 c 0
 783.386459091 1040 783.386459091 1040 868.693229545 955.613726155 c 0
 954 871.227452311 954 871.227452311 954 730.28975265 c 0
 953.764753412 641.163645965 953.764753412 641.163645965 926.775237236 512.249794391 c 0
 889.270367763 333.109970433 889.270367763 333.109970433 844.341160095 243.301690466 c 0
 816.851802998 188.353650953 816.851802998 188.353650953 780.414736695 146.273100867 c 0
715.53861193 810.359371175 m 0
 684.963376701 844 684.963376701 844 615 844 c 0
 514.611845196 844 514.611845196 844 450.044518683 769.292939707 c 0
 424.414519642 739.95100977 424.414519642 739.95100977 404.948660289 694.862647177 c 0
 384.353830078 647.159273014 384.353830078 647.159273014 374.441655201 610.312006715 c 0
 364.129477121 571.977778701 364.129477121 571.977778701 349.299703971 505.454333161 c 0
 321.000000809 371.447520258 321.000000809 371.447520258 321 321.772972973 c 0
 321 250.568201766 321 250.568201766 354.820661451 213.794550288 c 0
 369.977597289 197.314213947 369.977597289 197.314213947 394.418141642 188.657106973 c 0
 418.858685994 180 418.858685994 180 459.904871793 180 c 0
 555.850676414 180 555.850676414 180 621.144641102 254.924119102 c 0
 657.807458579 296.647710462 657.807458579 296.647710462 679.454933906 358.720764861 c 0
 701.102409234 420.79381926 701.102409234 420.79381926 722.691659771 518.505317178 c 0
 748.999999951 643.569995771 748.999999951 643.569995771 749 702.227027027 c 0
 749 773.543231328 749 773.543231328 715.53861193 810.359371175 c 0
EndSplineSet
EndChar

StartChar: p
Encoding: 112 112 83
Width: 1024
Flags: W
LayerCount: 2
Fore
SplineSet
469.363535412 -16 m 0
 358.723194478 -16 358.723194478 -16 288.855945811 71.1634834574 c 1
 200.327095394 -384 l 1
 -5.11369688609 -384 l 1
 283.676075841 1024 l 1
 488.995963051 1024 l 1
 477.249879365 962.822480801 l 1
 572.055659837 1040 572.055659837 1040 674 1040 c 0
 737.457513471 1040 737.457513471 1040 790.223972547 1016.64728543 c 0
 842.990431623 994.895446394 842.990431623 994.895446394 881.356485032 952.442172971 c 0
 957 868.740188056 957 868.740188056 957 730.089839844 c 0
 957 658.709470678 957 658.709470678 925.32270458 504.518115551 c 0
 913.610618106 448.766537729 913.610618106 448.766537729 903.662552755 407.341595609 c 0
 893.714487404 365.916653489 893.714487404 365.916653489 876.512712534 315.906849302 c 0
 858.964966735 264.891222249 858.964966735 264.891222249 836.888965088 224.129240926 c 0
 775.585883809 111.931508213 775.585883809 111.931508213 678.802438641 48.6248049481 c 0
 580.003876346 -16 580.003876346 -16 469.363535412 -16 c 0
381.30885668 505.498927795 m 0
 355 383.967284346 355 383.967284346 355 328.054054054 c 0
 355 258.401526 355 258.401526 386.268840807 215.754207555 c 0
 412.483680684 180 412.483680684 180 472 180 c 0
 525.891408477 180 525.891408477 180 571.087080148 211.785531545 c 0
 630.84649376 253.8135545 630.84649376 253.8135545 662.43938281 321.408939325 c 0
 694.562101926 390.137935805 694.562101926 390.137935805 722.713843169 518.605526577 c 0
 748 635.542173676 748 635.542173676 748 695.945945946 c 0
 748 765.598474 748 765.598474 716.731159193 808.245792445 c 0
 702.343998698 827.868323992 702.343998698 827.868323992 680.659919832 835.934161996 c 0
 658.975840966 844 658.975840966 844 631 844 c 0
 577.108591523 844 577.108591523 844 531.912919852 812.214468455 c 0
 483.395107088 778.092518032 483.395107088 778.092518032 452.552807593 725.697601578 c 0
 415.230334443 662.905062291 415.230334443 662.905062291 381.30885668 505.498927795 c 0
EndSplineSet
EndChar

StartChar: q
Encoding: 113 113 84
Width: 1024
Flags: W
LayerCount: 2
Fore
SplineSet
189.418144484 71.8072067267 m 0
 114 155.259811944 114 155.259811944 114 293.910160156 c 0
 114 359.686646588 114 359.686646588 146.671266816 519.452472043 c 0
 156.301000528 565.080293573 156.301000528 565.080293573 166.75643511 610.527530017 c 0
 177.211869691 655.974766461 177.211869691 655.974766461 190.061482151 694.057139128 c 0
 202.91109461 732.139511796 202.91109461 732.139511796 212.832290785 755.427169416 c 0
 223.122712556 779.581496651 223.122712556 779.581496651 234.111034912 799.870759074 c 0
 295.414116191 912.068491787 295.414116191 912.068491787 393.205119922 976.034245893 c 0
 490.996123654 1040 490.996123654 1040 602 1040 c 0
 712.137788357 1040 712.137788357 1040 781.97346817 953.049120944 c 1
 795.596036949 1024 l 1
 1001.11369689 1024 l 1
 712.323924159 -384 l 1
 506.890979263 -384 l 1
 593.426353514 60.914196906 l 1
 442.786594361 -16.5059634099 442.786594361 -16.5059634099 402.750329724 -16.5059634099 c 0,0,0
 399.513751756 -16.5059634099 399.513751756 -16.5059634099 397 -16 c 0
 333.542486529 -16 333.542486529 -16 280.776027453 7.35271456648 c 0
 228.009568377 29.1045536062 228.009568377 29.1045536062 189.418144484 71.8072067267 c 0
349.30885668 505.498927795 m 0
 323 383.967284346 323 383.967284346 323 328.054054054 c 0
 323 258.401526 323 258.401526 354.268840807 215.754207555 c 0
 380.483680684 180 380.483680684 180 440 180 c 0
 493.891408477 180 493.891408477 180 539.087080148 211.785531545 c 0
 588.109036549 246.262039669 588.109036549 246.262039669 618.30519372 298.061170969 c 0
 656.775733839 363.732437082 656.775733839 363.732437082 690.713843169 518.605526577 c 0
 716 635.542173676 716 635.542173676 716 695.945945946 c 0
 716 765.598474 716 765.598474 684.731159193 808.245792445 c 0
 670.343998698 827.868323992 670.343998698 827.868323992 648.659919832 835.934161996 c 0
 626.975840966 844 626.975840966 844 599 844 c 0
 545.108591523 844 545.108591523 844 499.912919852 812.214468455 c 0
 441.520264913 771.147669204 441.520264913 771.147669204 410.531984412 706.859671283 c 0
 378.286245264 639.962961372 378.286245264 639.962961372 349.30885668 505.498927795 c 0
EndSplineSet
EndChar

StartChar: r
Encoding: 114 114 85
Width: 1024
Flags: W
LayerCount: 2
Fore
SplineSet
927.247321073 831.294902794 m 2
 825.606543425 844 825.606543425 844 755 844 c 0
 632.122803159 844 632.122803159 844 549.257868398 784.328724165 c 0
 458.933053914 720.067467507 458.933053914 720.067467507 422.159054908 628.733020982 c 0
 402.285265895 579.373104496 402.285265895 579.373104496 393.185129751 547.737116325 c 0
 384.084993606 516.101128154 384.084993606 516.101128154 373.306683846 463.964782366 c 2
 275.352133635 5.68434188608e-14 l 1
 69.8983639582 7.81597009336e-14 l 1
 283.667895208 1024 l 1
 489.130287847 1024 l 1
 469.741077233 924.552113301 l 1
 517.436953768 963.917160729 517.436953768 963.917160729 567.09503028 990.519701718 c 0
 659.45825374 1040 659.45825374 1040 778 1040 c 0
 854.393456575 1040 854.393456575 1040 960.752678927 1026.70509721 c 2
 1001.28635316 1021.63838793 l 1
 962.340330887 826.908276567 l 1
 927.247321073 831.294902794 l 2
EndSplineSet
EndChar

StartChar: s
Encoding: 115 115 86
Width: 1024
Flags: W
LayerCount: 2
Fore
SplineSet
855.598868942 210.94374939 m 0
 825.197737885 146.143180267 825.197737885 146.143180267 768.893023901 94.810232006 c 0
 712.588309917 43.4772837451 712.588309917 43.4772837451 622.871465926 13.7254603584 c 0
 533.154621935 -16 533.154621935 -16 420.990201175 -16 c 0
 308.825780415 -16 308.825780415 -16 112.678849216 6.24346642462 c 2
 71.9510006299 10.8620884292 l 1
 109.3366068 205.917424971 l 1
 144.526705869 201.732656433 l 2
 327.278589511 180 327.278589511 180 447 180 c 0
 518.451498738 180 518.451498738 180 567.221720104 195.862034027 c 0
 615.99194147 211.724068055 615.99194147 211.724068055 638.968158171 235.797589451 c 0
 682 280.884558229 682 280.884558229 682 332.521367521 c 0
 682 372.619946224 682 372.619946224 669.589017692 400.572725432 c 0
 655.457479256 432.400647186 655.457479256 432.400647186 622.474397632 450.12633969 c 0
 589.491316009 467.852032193 589.491316009 467.852032193 497.099389065 478.74700781 c 0
 404.707462121 489.641983426 404.707462121 489.641983426 351.138304086 513.934869148 c 0
 282.408504527 540.975578567 282.408504527 540.975578567 243.87953078 607.964312542 c 0
 207 672.085232429 207 672.085232429 207 762.521367521 c 0
 207 881.80487552 207 881.80487552 322.514801846 962.594504442 c 0
 433.19089481 1040 433.19089481 1040 634 1040 c 0
 745.005067761 1040 745.005067761 1040 947.987555853 1018.79287438 c 2
 989.117577017 1014.49570799 l 1
 951.76487151 819.612027085 l 1
 917.051004234 823.203116803 l 2
 716.014466662 844 716.014466662 844 611 844 c 0
 533.885448957 844 533.885448957 844 486.905145986 904 c 0
 443.29911368 888.403137848 443.29911368 888.403137848 422.541848905 855.124959939 c 0
 411 836.620994923 411 836.620994923 411 814.709750501 c 0
 411 753.667366243 411 753.667366243 438.524197 733.07470376 c 0
 444.14687613 728.868007609 444.14687613 728.868007609 452.866647691 725.186091443 c 0
 486.402593626 708.403247233 486.402593626 708.403247233 577.75057981 695.743847062 c 0
 683.222129626 681.127142179 683.222129626 681.127142179 745.072864892 645.427041878 c 0
 824.406587854 599.216469128 824.406587854 599.216469128 859.347265497 508.992437474 c 0
 886 440.169583321 886 440.169583321 886 346.294688896 c 0
 886 275.744318513 886 275.744318513 855.598868942 210.94374939 c 0
EndSplineSet
EndChar

StartChar: t
Encoding: 116 116 87
Width: 1024
Flags: W
LayerCount: 2
Fore
SplineSet
481.325078316 377.463492592 m 2
 465 301.043508583 465 301.043508583 465 272.991643454 c 0
 465 225.74419986 465 225.74419986 494.83499114 204.220735595 c 0
 528.408835153 180 528.408835153 180 595.445660346 180 c 0
 662.48248554 180 662.48248554 180 774.003578568 194.67382803 c 2
 826.235639275 201.546467597 l 1
 788.180804487 2.99950348545 l 1
 685.585685933 -10.8647017246 685.585685933 -10.8647017246 622.080777422 -14.2793084347 c 0
 590.079329025 -16 590.079329025 -16 561 -16 c 0
 425.817854992 -16 425.817854992 -16 343.109345995 49.8257074935 c 0
 300.651380195 83.6169784451 300.651380195 83.6169784451 279.325690097 130.733575613 c 0
 258 177.85017278 258 177.85017278 258 231.192649234 c 0
 258 284.535125687 258 284.535125687 276.703619306 370.277100403 c 2
 372.860708397 822 l 1
 117.07286573 822 l 1
 155.549056206 1024 l 1
 411.697878474 1024 l 1
 461.697878474 1280 l 1
 667.145871526 1280 l 1
 617.145871526 1024 l 1
 1000.92713427 1024 l 1
 962.450943794 822 l 1
 578.309369884 822 l 1
 481.325078316 377.463492592 l 2
EndSplineSet
EndChar

StartChar: u
Encoding: 117 117 88
Width: 1024
Flags: W
LayerCount: 2
Fore
SplineSet
581.803531932 -1.70530256582e-13 m 1
 592.114107751 52.4902041679 l 1
 500.669978603 -16 500.669978603 -16 413 -16 c 0
 286.438860241 -16 286.438860241 -16 208.84106329 55.225940231 c 0
 131 126.675171256 131 126.675171256 131 242.136200717 c 0
 130.999073933 290.187316047 130.999073933 290.187316047 149.650176294 382.885745943 c 2
 283.682913918 1024 l 1
 489.123783295 1023.99999998 l 1
 352.296696668 379.708957034 l 2
 337 307.789542426 337 307.789542426 337 277.243478261 c 0
 337 257.177247989 337 257.177247989 340.691455986 245.839759364 c 0
 344.382911972 234.502270739 344.382911972 234.502270739 348.060256637 228.008385965 c 0
 355.076004192 215.619159397 355.076004192 215.619159397 368.687692296 204.454093901 c 0
 398.500459555 180 398.500459555 180 456 180 c 0
 534.794200863 180 534.794200863 180 588.671101866 227.144991233 c 0
 609.92377924 245.89212721 609.92377924 245.89212721 623.98960734 271.699863986 c 0
 639.097470164 299.41950795 639.097470164 299.41950795 643.390676012 315.476672164 c 0
 650.899936011 343.562309143 650.899936011 343.562309143 661.701234986 393.107397918 c 2
 795.682913918 1024 l 1
 1001.10163604 1024 l 1
 787.332104792 -1.70530256582e-13 l 1
 581.803531932 -1.70530256582e-13 l 1
EndSplineSet
EndChar

StartChar: v
Encoding: 118 118 89
Width: 1024
Flags: W
LayerCount: 2
Fore
SplineSet
849.916031645 1024 m 1
 1062.42462607 1024 l 1
 1042.46121047 975.950095502 l 2
 797.879291927 387.266371906 797.879291927 387.266371906 525.393379563 16.5935925082 c 2
 514.050923925 0 l 1
 349.537799769 0 l 1
 341.529980506 27.2993838496 l 2
 274.533353403 238.920899427 274.533353403 238.920899427 249.766676702 471.674464891 c 0
 225 704.428030354 225 704.428030354 225 986 c 2
 225 1024 l 1
 432 1024 l 1
 432 986 l 2
 432 529.03425122 432 529.03425122 484.697360383 223.635135939 c 1
 661.676822464 535.696309529 661.676822464 535.696309529 840.528960705 999.649380332 c 2
 849.916031645 1024 l 1
EndSplineSet
EndChar

StartChar: w
Encoding: 119 119 90
Width: 1024
Flags: W
LayerCount: 2
Fore
SplineSet
498.561570317 767 m 1
 682.540987578 767 l 1
 717.705013661 242.051324899 l 1
 856.418672465 584.358063794 856.418672465 584.358063794 936.711668243 993.350511038 c 2
 942.72874583 1024 l 1
 1148.09433832 1024 l 1
 1139.3032836 981.916121553 l 2
 1038.35756795 498.676354997 1038.35756795 498.676354997 788.182480974 21.3914420225 c 2
 777.759931619 -1.42108547152e-14 l 1
 564.800007204 -1.13686837722e-13 l 1
 526.796321191 495.736970888 l 1
 296.240626042 7.1054273576e-15 l 1
 83.5101831159 7.1054273576e-15 l 1
 71.5926152256 113.961820867 71.5926152256 113.961820867 67.2963076128 193.781107029 c 0
 63 273.600393192 63 273.600393192 63 351.135240071 c 0
 63 673.221415394 63 673.221415394 130.712803165 993.356289666 c 2
 136.733708128 1024 l 1
 342.032224436 1024 l 1
 333.312779452 978.775145352 l 2
 259 593.33952926 259 593.33952926 259 274 c 0
 259 258.053485321 259 258.053485321 259.199984641 242.245754478 c 1
 498.561570317 767 l 1
EndSplineSet
EndChar

StartChar: x
Encoding: 120 120 91
Width: 1024
Flags: W
LayerCount: 2
Fore
SplineSet
426.472010255 548.890845354 m 1
 179.378995144 1024 l 1
 432.923701095 1024 l 1
 570.415814306 673.348973021 l 1
 844.477274865 1024 l 1
 1113.61761375 1024 l 1
 657.252750446 537.446545741 l 1
 911.237532813 1.27897692437e-13 l 1
 658.043507979 1.27897692437e-13 l 1
 512.664675163 414.838962429 l 1
 206.165352476 -1.42108547152e-14 l 1
 -61.7973415497 2.84217094304e-14 l 1
 426.472010255 548.890845354 l 1
EndSplineSet
EndChar

StartChar: y
Encoding: 121 121 92
Width: 1024
Flags: W
LayerCount: 2
Fore
SplineSet
225.224105907 984.838527767 m 2
 220.641294689 1024 l 1
 428.413242892 1024 l 1
 431.812359838 989.796385723 l 2
 472.566079344 579.712083197 472.566079344 579.712083197 529.185855134 301.787539991 c 1
 702.662843559 654.260434641 702.662843559 654.260434641 841.727250036 1000.15296429 c 2
 851.315233467 1024 l 1
 1064.64591166 1024 l 1
 1043.17842746 974.714140853 l 2
 858.512734585 550.751684749 858.512734585 550.751684749 585.769564634 60.1816860469 c 0
 494.119210999 -106.39455434 494.119210999 -106.39455434 391.936957614 -184.505430099 c 0
 282.731048497 -272 282.731048497 -272 63 -272 c 2
 17.0191003476 -272 l 1
 54.5857670143 -76 l 1
 86 -76 l 2
 219.747439781 -76 219.747439781 -76 292.198966336 -27.6984734907 c 0
 301.229560246 -21.6780141315 301.229560246 -21.6780141315 308.662040409 -15.2499231799 c 0
 323.182815285 -2.69141517829 323.182815285 -2.69141517829 342.855269461 27.0460155529 c 0
 362.527723637 54.6770700849 362.527723637 54.6770700849 373.357752233 72.5666891556 c 0
 384.187780828 90.4563082263 384.187780828 90.4563082263 401.32763241 120.84917813 c 1
 382.685398524 120.84917813 l 1
 375.242903335 147.17456208 l 2
 286.528853468 460.971395711 286.528853468 460.971395711 225.224105907 984.838527767 c 2
EndSplineSet
EndChar

StartChar: z
Encoding: 122 122 93
Width: 1024
Flags: W
LayerCount: 2
Fore
SplineSet
303.585767014 1024 m 1
 980.855526065 1024 l 1
 953.625405214 879.840536671 l 1
 356.337819174 120 l 1
 824.980899652 120 l 1
 787.414232986 -8.52651282912e-14 l 1
 69.8387342338 -1.42108547152e-13 l 1
 98.4569180964 146.27071752 l 1
 694.625468277 904 l 1
 266.019100348 904 l 1
 303.585767014 1024 l 1
EndSplineSet
EndChar

StartChar: braceleft
Encoding: 123 123 94
Width: 1024
Flags: W
LayerCount: 2
Fore
SplineSet
415.737671423 433.73039544 m 2
 428 491.580335944 428 491.580335944 428 512.53315516 c 0
 428 539.993393019 428 539.993393019 405.073139303 559.49301448 c 0
 351.567879222 605 351.567879222 605 241 605 c 2
 195.019100348 605 l 1
 232.585767014 801 l 1
 264 801 l 2
 337.147848756 801 337.147848756 801 404.778750626 823.800081555 c 0
 467.313232582 844.88203151 467.313232582 844.88203151 495.749380189 883.208279617 c 0
 501.600707841 890.639714913 501.600707841 890.639714913 509.627868443 912.663049702 c 0
 517.655029044 934.68638449 517.655029044 934.68638449 526.630284275 978.74957711 c 2
 568.714489493 1172.36486707 l 2
 581.101623119 1235.33279634 581.101623119 1235.33279634 593.171095099 1274.28427409 c 0
 605.240567078 1313.23575184 605.240567078 1313.23575184 632.244730482 1354.86717042 c 0
 694.553665626 1449.4432327 694.553665626 1449.4432327 811.869894147 1499.72161635 c 0
 929.186122668 1550 929.186122668 1550 1057 1550 c 2
 1102.98089965 1550 l 1
 1065.41423299 1354 l 1
 1034 1354 l 2
 960.852151244 1354 960.852151244 1354 893.221249374 1328.86689458 c 0
 830.686767418 1305.62772898 830.686767418 1305.62772898 802.250619811 1263.37973825 c 0
 786.845278899 1241.81226098 786.845278899 1241.81226098 771.369715718 1158.06215435 c 0
 756.747326667 1083.90575273 756.747326667 1083.90575273 739.336078603 995.132023505 c 0
 719.515466212 901.610047864 719.515466212 901.610047864 716.784453167 890.995167399 c 0
 714.053440123 880.380286934 714.053440123 880.380286934 711.44437053 872.216346753 c 0
 694.255118745 818.430114402 694.255118745 818.430114402 666.843568268 779.632942352 c 0
 627.189950744 723.417000049 627.189950744 723.417000049 551.160492926 685.772694644 c 1
 577.255016876 667.820049532 577.255016876 667.820049532 595.593628418 645.841159788 c 0
 634 599.810989808 634 599.810989808 634 527.66934303 c 0
 634.002483714 495.723644569 634.002483714 495.723644569 618.366869911 417.587723197 c 2
 576.262328577 219.981855774 l 2
 564 163.242422136 564 163.242422136 564 142.691820266 c 0
 564 123.649656627 564 123.649656627 573.902375125 110.014425312 c 0
 579.070791106 102.897693563 579.070791106 102.897693563 587.532378153 96.0325285059 c 0
 617.219910872 71.9460526299 617.219910872 71.9460526299 659.033422993 61.9730263149 c 0
 700.846935114 52 700.846935114 52 751 52 c 2
 796.980899652 52 l 1
 759.414232986 -144 l 1
 728 -144 l 2
 635.010167108 -144 635.010167108 -144 554.364079448 -118.038588219 c 0
 473.717991789 -92.0771764385 473.717991789 -92.0771764385 417.366595506 -30.0337199252 c 0
 358 31.6390437849 358 31.6390437849 358 120.020834205 c 0
 357.997516286 152.591775379 357.997516286 152.591775379 373.633130089 232.256976681 c 2
 415.737671423 433.73039544 l 2
EndSplineSet
Substitution2: "'rtla' Right to Left Alternates lookup 0 subtable" braceright
EndChar

StartChar: bar
Encoding: 124 124 95
Width: 1024
Flags: W
LayerCount: 2
Fore
SplineSet
300.881354342 -128 m 1
 639.679431265 1536 l 1
 844.091432692 1536 l 1
 506.339028846 -128 l 1
 300.881354342 -128 l 1
EndSplineSet
Substitution2: "<2,2> Cursive lookup 168 nested-substitutions 0 subtable" bar2
Substitution2: "<2,2> Cursive lookup 166 nested-substitutions 0 subtable" bar1
EndChar

StartChar: braceright
Encoding: 125 125 96
Width: 1024
Flags: W
LayerCount: 2
Fore
SplineSet
771.366869911 1158.0477206 m 2
 729.262328577 965.057857801 l 2
 717 909.643837682 717 909.643837682 717 887.998185518 c 0
 717 867.568564286 717 867.568564286 729.213280332 853.161311849 c 0
 741.426560663 838.754059411 741.426560663 838.754059411 762.373521633 829.0776764 c 0
 783.320482602 819.401293388 783.320482602 819.401293388 805.135130417 813.338273902 c 0
 849.528043949 801 849.528043949 801 904 801 c 2
 949.980899652 801 l 1
 912.414232986 605 l 1
 881 605 l 2
 807.852151244 605 807.852151244 605 740.221249374 581.161941123 c 0
 677.686767418 559.120232059 677.686767418 559.120232059 649.250619811 519.04917544 c 0
 643.399292159 511.279422876 643.399292159 511.279422876 635.372131553 488.253472285 c 0
 627.344970948 465.227521695 627.344970948 465.227521695 618.369715718 419.158345256 c 2
 576.32142237 216.901410297 l 2
 568.175442933 175.385319638 568.175442933 175.385319638 562.790695292 153.934722813 c 0
 557.405947652 132.484125987 557.405947652 132.484125987 545.245916385 102.077744534 c 0
 533.085885118 71.6713630797 533.085885118 71.6713630797 513.755269518 43.6302759754 c 0
 451.427357463 -46.0998365561 451.427357463 -46.0998365561 331.883692808 -94.4700223164 c 0
 215.781164474 -144 215.781164474 -144 88 -144 c 2
 42.0191003476 -144 l 1
 79.5857670143 52 l 1
 111 52 l 2
 184.147848756 52 184.147848756 52 249.230540669 74.6498426883 c 0
 314.313232582 97.2996853766 314.313232582 97.2996853766 342.749380189 136.86410209 c 0
 348.600707841 144.535617497 348.600707841 144.535617497 356.627868443 167.270438619 c 0
 364.655029044 190.005259741 364.655029044 190.005259741 373.630284275 235.491958823 c 2
 415.714489493 435.362188563 l 2
 428.101623119 494.330422319 428.101623119 494.330422319 440.171535216 530.809049284 c 0
 452.241447314 567.287676249 452.241447314 567.287676249 479.156431732 606.14593388 c 0
 518.790875716 663.00583718 518.790875716 663.00583718 594.766134942 701.090517813 c 1
 568.636233435 719.184438425 568.636233435 719.184438425 550.091350295 741.313256125 c 0
 511 787.959296317 511 787.959296317 511 861.119095361 c 0
 510.997516286 893.446367055 510.997516286 893.446367055 526.633130089 972.515577652 c 2
 568.737671423 1172.48173498 l 2
 581 1233.79337787 581 1233.79337787 581 1256 c 0
 581 1280.34665321 581 1280.34665321 568.786719668 1296.28724576 c 0
 556.573439337 1312.22783832 556.573439337 1312.22783832 534.243634462 1323.6408497 c 0
 474.845296912 1354 474.845296912 1354 394 1354 c 2
 348.019100348 1354 l 1
 385.585767014 1550 l 1
 417 1550 l 2
 511.189702506 1550 511.189702506 1550 590.510326335 1523.55979206 c 0
 673.619117318 1495.85686173 673.619117318 1495.85686173 728.893014241 1433.74495694 c 0
 787 1368.4494781 787 1368.4494781 787 1277 c 0
 787 1252.13958883 787 1252.13958883 781.832244572 1219.39722664 c 0
 776.664489144 1186.65486446 776.664489144 1186.65486446 771.366869911 1158.0477206 c 2
EndSplineSet
Substitution2: "'rtla' Right to Left Alternates lookup 0 subtable" braceleft
EndChar

StartChar: tilde
Encoding: 126 126 97
Width: 1024
Flags: W
LayerCount: 2
Fore
SplineSet
250.158675573 474 m 1
 44.7411982443 474 l 1
 53.7220947693 519.403421321 l 2
 72.2028260354 612.833784944 72.2028260354 612.833784944 94.8524261197 679.729115425 c 0
 117.502026204 746.624445907 117.502026204 746.624445907 156.557820984 807.080676183 c 0
 198.644360817 872.228333733 198.644360817 872.228333733 263.262138203 905.114166866 c 0
 327.879915588 938 327.879915588 938 413 938 c 0
 502.256544528 938 502.256544528 938 568.095408987 887.238555959 c 0
 587.972536357 871.913387505 587.972536357 871.913387505 601.717354742 854.446014141 c 0
 649.26299543 794.0234291 649.26299543 794.0234291 692.216216296 716.960297546 c 0
 705.297993895 693.4900495 705.297993895 693.4900495 725.359993333 678.348917849 c 0
 741.722309483 666 741.722309483 666 762 666 c 0
 786.022016971 666 786.022016971 666 803.04280229 674.51039266 c 0
 827.519481493 686.748732261 827.519481493 686.748732261 839.733179878 706.590437688 c 0
 848.126295119 720.225433001 848.126295119 720.225433001 858.294031654 748.469145597 c 0
 868.461768188 776.712858193 868.461768188 776.712858193 876.150279696 810.350096041 c 0
 883.838791204 843.987333888 883.838791204 843.987333888 901.841324427 934 c 1
 1107.25880176 934 l 1
 1098.27790523 888.596578679 l 2
 1072.75895055 759.584085558 1072.75895055 759.584085558 1040.38511633 684.868856063 c 0
 1021.46224329 641.196957563 1021.46224329 641.196957563 995.442179016 600.919323817 c 0
 910.865978674 470 910.865978674 470 739 470 c 0
 646.28566913 470 646.28566913 470 579.848639939 523.977538665 c 0
 562.402090009 538.152191488 562.402090009 538.152191488 549.121639792 555.029430305 c 0
 502.73700457 613.9765709 502.73700457 613.9765709 459.783783704 691.039702454 c 0
 446.702006105 714.5099505 446.702006105 714.5099505 428.489848311 728.25497525 c 0
 410.277690517 742 410.277690517 742 390 742 c 0
 365.977983029 742 365.977983029 742 348.95719771 733.48960734 c 0
 325.625720661 721.823868816 325.625720661 721.823868816 314.067783 704.189280828 c 0
 299.836857028 682.476365983 299.836857028 682.476365983 284.830833848 631.874570522 c 0
 275.317834801 599.795796138 275.317834801 599.795796138 250.158675573 474 c 1
EndSplineSet
EndChar

StartChar: exclamdown
Encoding: 161 161 99
Width: 1024
Flags: W
LayerCount: 2
Fore
SplineSet
460.981932762 893.768521913 m 0
 450 921.738118604 450 921.738118604 450 954 c 0
 450 1036.54911971 450 1036.54911971 509.031182351 1102.27455986 c 0
 568.062364702 1168 568.062364702 1168 663 1168 c 0
 733.027568689 1168 733.027568689 1168 777.013784345 1126.72062838 c 0
 821 1085.44125677 821 1085.44125677 821 1018 c 0
 821 935.339664866 821 935.339664866 762.145384017 870.479475823 c 0
 732.347032108 837.64047576 732.347032108 837.64047576 692.787425528 820.82023788 c 0
 653.227818947 804 653.227818947 804 607 804 c 0
 536.802082151 804 536.802082151 804 493.792498661 844.993509264 c 0
 471.963865524 865.798925222 471.963865524 865.798925222 460.981932762 893.768521913 c 0
669.592252167 716 m 1
 491.681537882 -256 l 1
 265.397161888 -256 l 1
 465.004304745 716 l 1
 669.592252167 716 l 1
EndSplineSet
EndChar

StartChar: cent
Encoding: 162 162 100
Width: 1024
Flags: W
LayerCount: 2
Fore
SplineSet
349.282265779 505.376741979 m 0
 322 381.226632144 322 381.226632144 322 328.951351351 c 0
 322 254.253201865 322 254.253201865 359.86297191 217.126600932 c 0
 397.72594382 180 397.72594382 180 476 180 c 0
 607.097999608 180 607.097999608 180 775.250333793 205.567021572 c 2
 828.362076702 213.642491254 l 1
 790.275444629 13.2736877372 l 1
 763.484885822 9.39367577213 l 2
 634.902996603 -9.22852887336 634.902996603 -9.22852887336 528.54497515 -14.6783109565 c 1
 481.286144379 -256 l 1
 275.787266578 -256 l 1
 326.792115609 3.18790629988 l 1
 231.568718666 30.9540257661 231.568718666 30.9540257661 178.126307994 100.142454072 c 0
 116 180.573361894 116 180.573361894 116 302.725295712 c 0
 116 372.252095259 116 372.252095259 146.686245037 518.871649343 c 0
 168.040480944 622.038439615 168.040480944 622.038439615 189.98060733 690.596358651 c 0
 211.920733716 759.154277688 211.920733716 759.154277688 251.318359529 820.60241125 c 0
 302.136144953 900.107265916 302.136144953 900.107265916 382.100452215 956.432261468 c 0
 452.868227963 1006.27943442 452.868227963 1006.27943442 539.600173322 1025.19211794 c 1
 589.743089871 1280 l 1
 795.169477712 1280 l 1
 747.867530587 1038.45814234 l 1
 832.832931249 1034.47221597 832.832931249 1034.47221597 939.544717189 1021.73051019 c 2
 980.00332896 1016.89963117 l 1
 942.605581942 821.780951077 l 1
 907.148694322 826.307362263 l 2
 768.55636538 844 768.55636538 844 631 844 c 0
 560.921966384 844 560.921966384 844 506.742114751 811.291648659 c 0
 462.413617917 784.530555649 462.413617917 784.530555649 427.194793884 735.259275925 c 0
 408.541805769 708.080022175 408.541805769 708.080022175 392.581299108 665.958490961 c 0
 376.620792447 623.836959748 376.620792447 623.836959748 371.885727903 605.14241303 c 0
 367.150663359 586.447866312 367.150663359 586.447866312 364.10417133 573.266409624 c 0
 360.759566054 558.795086815 360.759566054 558.795086815 349.282265779 505.376741979 c 0
EndSplineSet
EndChar

StartChar: sterling
Encoding: 163 163 101
Width: 1024
Flags: W
LayerCount: 2
Fore
SplineSet
313.135144644 120 m 1
 824.980899652 120 l 1
 787.414232986 -8.52651282912e-14 l 1
 -57.9808996524 -9.94759830064e-14 l 1
 -20.4142329857 120 l 1
 107.690612931 120 l 1
 195.864855356 610 l 1
 68.0191003476 610 l 1
 105.585767014 806 l 1
 233.697896541 806 l 1
 266.858634718 955.748531635 266.858634718 955.748531635 277.677692134 996.780997076 c 0
 288.49674955 1037.81346252 288.49674955 1037.81346252 309.981435066 1090.04025075 c 0
 331.875625895 1150.38277669 331.875625895 1150.38277669 359.422045969 1196.56159943 c 0
 420.175972044 1297.45651238 420.175972044 1297.45651238 521.509159388 1360.31560185 c 0
 624.17280123 1424 624.17280123 1424 755 1424 c 0
 851.920056501 1424 851.920056501 1424 1003.81969586 1408.81003606 c 2
 1045.152282 1404.67677745 l 1
 1007.79590072 1209.77391863 l 1
 898.135804021 1220.5956387 898.135804021 1220.5956387 837.408057174 1224.29781935 c 0
 776.680310327 1228 776.680310327 1228 731 1228 c 0
 607.042257038 1228 607.042257038 1228 536.354305666 1115.07168744 c 0
 517.581968594 1084.6783798 517.581968594 1084.6783798 501.07917448 1036.58452267 c 0
 484.576380365 992.424431044 484.576380365 992.424431044 478.485388291 968.408339519 c 0
 468.180769462 927.778395184 468.180769462 927.778395184 455.295368155 865.890763108 c 2
 439.145871526 789.968471534 l 1
 822.980899652 789.968471534 l 1
 785.414232986 610 l 1
 401.309387069 610 l 1
 313.135144644 120 l 1
EndSplineSet
EndChar

StartChar: currency
Encoding: 164 164 102
Width: 1024
Flags: W
LayerCount: 2
Fore
SplineSet
406.938960871 434.260885034 m 0
 441.856624673 402 441.856624673 402 507 402 c 0
 558.649281428 402 558.649281428 402 596.988539467 418.696511875 c 0
 635.327797507 435.393023751 635.327797507 435.393023751 663.885469091 469.410250197 c 0
 723 539.826088485 723 539.826088485 723 628 c 0
 723 686.382466335 723 686.382466335 688.571687663 718.191233167 c 0
 654.143375327 750 654.143375327 750 587.481300644 750 c 0
 520.819225961 750 520.819225961 750 470.451870169 715.293082564 c 0
 420.084514378 680.586165128 420.084514378 680.586165128 396.542257189 630.077322431 c 0
 373 579.568479735 373 579.568479735 373 524 c 0
 373 493.254242058 373 493.254242058 381.475691348 471.605086072 c 0
 389.951382696 449.955930087 389.951382696 449.955930087 406.938960871 434.260885034 c 0
790.269873917 105.592156436 m 1
 674.887774847 247.837729576 l 1
 583.730769864 206 583.730769864 206 482.563125198 206 c 0
 381.395480533 206 381.395480533 206 305.778088611 248.622839584 c 1
 134.137742561 105.88443079 l 1
 3.49190299989 241.546657469 l 1
 185.856291464 386.477725231 l 1
 167 435.046665776 167 435.046665776 167 491.480373682 c 0
 167 630.962080231 167 630.962080231 256.940168152 742.712648819 c 1
 134.531384199 886.557487037 l 1
 305.730126083 1008.40784356 l 1
 421.106841872 864.186948827 l 1
 512.136585409 908 512.136585409 908 613.307392622 908 c 0
 714.478199835 908 714.478199835 908 790.213828494 863.351833955 c 1
 961.862257439 1008.11556921 l 1
 1092.508097 876.982342807 l 1
 910.143708536 732.053662864 l 1
 929 683.48552252 929 683.48552252 929 627.052744391 c 0
 929 487.57333588 929 487.57333588 839.059831848 375.824608445 c 1
 961.468615801 231.982140151 l 1
 790.269873917 105.592156436 l 1
EndSplineSet
EndChar

StartChar: yen
Encoding: 165 165 103
Width: 1024
Flags: W
LayerCount: 2
Fore
SplineSet
207.767549796 1408 m 1
 408.053436301 1408 l 1
 409.946819578 1372.02571774 l 2
 420.731738333 1167.11226139 420.731738333 1167.11226139 464.658122426 1006.53692398 c 0
 504.672472462 860.262244408 504.672472462 860.262244408 583.086866547 742.760226184 c 1
 713.222542861 864.888917794 713.222542861 864.888917794 817.876616725 1022.58683732 c 0
 922.530690589 1180.28475684 922.530690589 1180.28475684 1013.22884237 1385.34144782 c 2
 1023.2508943 1408 l 1
 1230.06543329 1408 l 1
 1208.0799355 1355.37664721 l 2
 1068.47322657 1037.43043034 1068.47322657 1037.43043034 850.313929107 796.492440608 c 1
 950.980899652 796.492440608 l 1
 913.414232986 610 l 1
 657.046960545 610 l 1
 643.92713427 542 l 1
 899.980899652 542 l 1
 862.414232986 346 l 1
 606.302121526 346 l 1
 531.302121526 -1.56319401867e-13 l 1
 325.854128474 -1.70530256582e-13 l 1
 400.854128474 358.84137931 l 1
 145.019100348 358.84137931 l 1
 182.585767014 542 l 1
 438.549056206 542 l 1
 451.501437158 610 l 1
 196.019100348 610 l 1
 233.585767014 806 l 1
 342.624892337 806 l 1
 220.064455582 1044.58676913 220.064455582 1044.58676913 209.019631301 1368.76811284 c 2
 207.767549796 1408 l 1
EndSplineSet
EndChar

StartChar: brokenbar
Encoding: 166 166 104
Width: 1024
Flags: W
LayerCount: 2
Fore
SplineSet
506.302121526 -128 m 1
 300.854128474 -128 l 1
 415.697878474 460 l 1
 621.145871526 460 l 1
 506.302121526 -128 l 1
730.362122136 948 m 1
 524.854128474 948 l 1
 639.697878474 1536 l 1
 844.057434636 1536 l 1
 730.362122136 948 l 1
EndSplineSet
EndChar

StartChar: section
Encoding: 167 167 105
Width: 1024
Flags: W
LayerCount: 2
Fore
SplineSet
388.351550927 438.265554512 m 0
 437.378432458 406 437.378432458 406 516 406 c 0
 563.682593246 406 563.682593246 406 602.868794434 419.34914546 c 0
 642.054995623 432.69829092 642.054995623 432.69829092 668.04654529 454.497655156 c 0
 711.325659401 490.796266992 711.325659401 490.796266992 732.704775944 544.94366556 c 0
 748 583.682244465 748 583.682244465 748 626 c 0
 748 653.108097338 748 653.108097338 739.166877313 674.481099553 c 0
 730.333754626 695.854101769 730.333754626 695.854101769 708.700614458 710.533732597 c 0
 662.329273022 742 662.329273022 742 577 742 c 0
 520.059416406 742 520.059416406 742 474.739896238 721.905495775 c 0
 429.42037607 701.810991549 429.42037607 701.810991549 403.607408195 671.081267889 c 0
 361.776831005 621.28296171 361.776831005 621.28296171 350.583881538 562.685666888 c 0
 347 543.92334122 347 543.92334122 347 520.539281496 c 0
 347 497.155221772 347 497.155221772 356.26505412 475.220008172 c 0
 365.53010824 453.284794571 365.53010824 453.284794571 388.351550927 438.265554512 c 0
886.422405832 429.68700163 m 0
 834.984716899 359.179802428 834.984716899 359.179802428 754.867496733 311.424542842 c 1
 832 237.523480422 832 237.523480422 832 129.668547444 c 0
 832 28.9075393597 832 28.9075393597 772.977114824 -59.7312711645 c 0
 713.954229648 -154.609180046 713.954229648 -154.609180046 605.802502005 -213.304590023 c 0
 497.650774362 -272 497.650774362 -272 365 -272 c 0
 246.900156839 -272 246.900156839 -272 62.9279364329 -232.139352245 c 2
 26.5678673828 -224.261337285 l 1
 65.3251766677 -25.6301271991 l 1
 104.032534537 -35.0819238882 l 2
 271.601798614 -76 271.601798614 -76 388 -76 c 0
 452.484557003 -76 452.484557003 -76 500.6988491 -56.1977014602 c 0
 548.913141197 -36.3954029205 548.913141197 -36.3954029205 574.813575108 -5.48198179991 c 0
 600.71400902 23.2710173141 600.71400902 23.2710173141 613.85700451 55.6067419806 c 0
 627 87.942466647 627 87.942466647 627 118.715216371 c 0
 627 172.505969458 627 172.505969458 593.194875359 199.846358137 c 0
 577.896417567 212.219209493 577.896417567 212.219209493 556.918195908 218.924506937 c 0
 534.457929457 226.103512369 534.457929457 226.103512369 503.110841724 229.073141633 c 0
 448.696174428 234.228050462 448.696174428 234.228050462 387.716030665 241.193701078 c 0
 326.735886901 248.159351694 326.735886901 248.159351694 280.001346933 273.153704603 c 0
 213.903428701 308.746569535 213.903428701 308.746569535 177.451714351 369.55894009 c 0
 141 430.371310644 141 430.371310644 141 505.598783873 c 0
 141 613.175244025 141 613.175244025 208.522103514 705.835760944 c 0
 260.052609662 776.551024364 260.052609662 776.551024364 340.38820747 824.803297128 c 1
 263 898.440669208 263 898.440669208 263 1006 c 0
 263 1076.79573564 263 1076.79573564 293.782790942 1148.80547874 c 0
 324.565581885 1220.81522183 324.565581885 1220.81522183 380.412357123 1282.08401408 c 0
 437.555322334 1344.77484 437.555322334 1344.77484 528.920300367 1383.38742 c 0
 620.285278401 1422 620.285278401 1422 730 1422 c 0
 839.524021044 1422 839.524021044 1422 993.960602397 1393.36275313 c 2
 1031.6492624 1386.37412743 l 1
 992.922863765 1187.90133442 l 1
 955.182436247 1195.80642396 l 2
 811.032460332 1226 811.032460332 1226 707 1226 c 0
 642.728139934 1226 642.728139934 1226 594.965705364 1205.77626644 c 0
 547.203270794 1185.55253289 547.203270794 1185.55253289 520.714675431 1154.01849079 c 0
 494.226080068 1122.48444869 494.226080068 1122.48444869 481.113040034 1088.22134408 c 0
 468 1053.95823948 468 1053.95823948 468 1020 c 0
 468 968.983228879 468 968.983228879 511.700202629 932.996857129 c 0
 534.008932431 915.727472604 534.008932431 915.727472604 577.959628509 910.918582946 c 0
 633.199452482 904.874485262 633.199452482 904.874485262 700.113529239 898.424642718 c 0
 767.605193352 891.919126574 767.605193352 891.919126574 817.331728663 864.650026064 c 0
 880.012531647 829.948419213 880.012531647 829.948419213 917.017356513 769.448441165 c 0
 954 708.984727926 954 708.984727926 954 632.290080996 c 0
 954 522.317658108 954 522.317658108 886.422405832 429.68700163 c 0
EndSplineSet
EndChar

StartChar: dieresis
Encoding: 168 168 106
Width: 1024
Flags: W
LayerCount: 2
Fore
SplineSet
786.970372206 1094.79564443 m 0
 750 1129.59128886 750 1129.59128886 750 1187.99580913 c 0
 750 1217.42338463 750 1217.42338463 761.846633664 1247.52351945 c 0
 773.693267328 1277.62365426 773.693267328 1277.62365426 796.876507117 1304.56633834 c 0
 820.059746907 1331.50902242 820.059746907 1331.50902242 852.858405156 1345.75451121 c 0
 885.657063405 1360 885.657063405 1360 924 1360 c 0
 981.059255589 1360 981.059255589 1360 1018.02962779 1325.20435557 c 0
 1055 1290.40871114 1055 1290.40871114 1055 1235 c 0
 1055 1169.91176452 1055 1169.91176452 1008.81311116 1116.23510993 c 0
 984.940253093 1088.49097758 984.940253093 1088.49097758 952.141594844 1074.24548879 c 0
 919.342936595 1060 919.342936595 1060 881 1060 c 0
 823.940744411 1060 823.940744411 1060 786.970372206 1094.79564443 c 0
338.970372206 1094.79564443 m 0
 302 1129.59128886 302 1129.59128886 302 1185 c 0
 302 1250.08823548 302 1250.08823548 348.186888839 1303.76489007 c 0
 372.059746907 1331.50902242 372.059746907 1331.50902242 404.858405156 1345.75451121 c 0
 437.657063405 1360 437.657063405 1360 476 1360 c 0
 533.059255589 1360 533.059255589 1360 569.532452783 1325.67228499 c 0
 588.053713071 1308.2405106 588.053713071 1308.2405106 597.526856535 1284.83613849 c 0
 607 1261.43176638 607 1261.43176638 607 1235 c 0
 607 1169.91176452 607 1169.91176452 560.813111161 1116.23510993 c 0
 512.42476076 1060 512.42476076 1060 433 1060 c 0
 375.940744411 1060 375.940744411 1060 338.970372206 1094.79564443 c 0
EndSplineSet
EndChar

StartChar: copyright
Encoding: 169 169 107
Width: 1024
Flags: W
LayerCount: 2
Fore
SplineSet
497.38697065 537.146818512 m 0
 507 532 507 532 531 532 c 0
 605.929275498 532 605.929275498 532 698.209252319 562.132237329 c 2
 759.375696925 582.104953935 l 1
 718.788132351 369.02023992 l 1
 695.23309133 363.131479665 l 2
 586.70717267 336 586.70717267 336 508 336 c 0
 415.117715272 336 415.117715272 336 360.41844838 373.980162754 c 0
 289 423.569205665 289 423.569205665 289 529.057191052 c 0
 289 580.848472794 289 580.848472794 312.757032703 695.216870528 c 0
 328.487229837 768.656493998 328.487229837 768.656493998 344.423410717 818.360198453 c 0
 360.359591598 868.063902909 360.359591598 868.063902909 379.015925955 898.961178085 c 0
 423.954586956 973.081574641 423.954586956 973.081574641 500.0918445 1006.41043068 c 0
 559.737327351 1034 559.737327351 1034 637 1034 c 0
 724.326404368 1034 724.326404368 1034 815.261846477 1002.97496681 c 2
 846.566515545 992.294550304 l 1
 806.094696062 797.890294278 l 1
 761.894213052 817.044991371 l 2
 688.417192985 848.886952519 688.417192985 848.886952519 611.777708147 849.766391349 c 0
 586.708162995 849.737520637 586.708162995 849.737520637 576.073240355 844.951518061 c 0
 565.438317716 840.165515484 565.438317716 840.165515484 556.126814205 826.403264001 c 0
 550.49093058 818.183121126 550.49093058 818.183121126 540.203784339 786.257971151 c 0
 529.916638098 754.332821175 529.916638098 754.332821175 515.264532273 687.676325652 c 0
 494.367009812 574.554057745 494.367009812 574.554057745 494.183504906 556.78067846 c 0
 494 539.007299175 494 539.007299175 497.38697065 537.146818512 c 0
901.138437711 624.268345565 m 0
 932 752.536712188 932 752.536712188 932 853 c 0
 932 988.045750795 932 988.045750795 867.53245879 1063.91571426 c 0
 805.431938537 1137 805.431938537 1137 672 1137 c 0
 556.231663704 1137 556.231663704 1137 467.624428152 1079.58612798 c 0
 377.60681259 1021.25838729 377.60681259 1021.25838729 323.227116391 923.559272084 c 0
 274.769892841 837.096383004 274.769892841 837.096383004 244.486581843 708.752826869 c 0
 214 579.547789536 214 579.547789536 214 479 c 0
 214 343.015935603 214 343.015935603 278.396538009 267.667605415 c 0
 340.501991474 195 340.501991474 195 474 195 c 0
 589.671726998 195 589.671726998 195 678.037087621 252.847426799 c 0
 766.402448243 310.694853598 766.402448243 310.694853598 821.822999832 408.531303212 c 0
 870.276875421 495.999978942 870.276875421 495.999978942 901.138437711 624.268345565 c 0
388.658284841 1209.91792586 m 0
 520.829808823 1295 520.829808823 1295 688 1295 c 0
 786.169271287 1295 786.169271287 1295 863.391138672 1265.50439928 c 0
 940.613006057 1236.00879856 940.613006057 1236.00879856 993.870289827 1176.27046968 c 0
 1098 1059.46889001 1098 1059.46889001 1098 869 c 0
 1098 754.618342139 1098 754.618342139 1062.88881934 603.330460773 c 0
 1027.77763868 452.042579406 1027.77763868 452.042579406 967.157477224 345.434709254 c 0
 889.513239141 207.164148285 889.513239141 207.164148285 757.341715159 122.082074142 c 0
 625.170191177 37 625.170191177 37 458 37 c 0
 259.145515835 37 259.145515835 37 153.572757917 153.685679803 c 0
 48 270.371359607 48 270.371359607 48 463 c 0
 48 577.381657861 48 577.381657861 83.1111806585 728.669539227 c 0
 118.222361317 879.957420594 118.222361317 879.957420594 178.842522776 986.565290746 c 0
 256.486760859 1124.83585172 256.486760859 1124.83585172 388.658284841 1209.91792586 c 0
EndSplineSet
EndChar

StartChar: ordfeminine
Encoding: 170 170 108
Width: 1024
Flags: W
LayerCount: 2
Fore
SplineSet
642.839067292 1076 m 1
 573 1076 l 2
 526.751983357 1076 526.751983357 1076 507.25330103 1069.02211883 c 0
 475.505972185 1058.19916581 475.505972185 1058.19916581 451.752986092 1022.37499007 c 0
 428 986.55081432 428 986.55081432 428 939 c 0
 428 906.926035134 428 906.926035134 443.99996187 888.046080127 c 0
 453.135847899 877.265734613 453.135847899 877.265734613 466.443526214 873.900004781 c 0
 473.955909468 872 473.955909468 872 484 872 c 0
 556.466779307 872 556.466779307 872 590.551222972 927.774544179 c 0
 610.341135796 960.158037891 610.341135796 960.158037891 621.488756877 993.154996293 c 0
 633.705958558 1029.31791327 633.705958558 1029.31791327 642.839067292 1076 c 1
596 1272 m 2
 680.574057743 1272 l 1
 686 1303.2452894 686 1303.2452894 686 1312.1862516 c 0
 686 1332.23560419 686 1332.23560419 679.989746951 1339.8095962 c 0
 670.937757933 1351.21671865 670.937757933 1351.21671865 635.121799143 1354.78053516 c 0
 622.866313432 1356 622.866313432 1356 599.085301466 1356 c 0
 575.304289501 1356 575.304289501 1356 335.475057466 1339.76156241 c 1
 373.14957051 1537.96226147 l 1
 583.715648466 1552 583.715648466 1552 622.781836022 1552 c 0
 661.848023577 1552 661.848023577 1552 688.297613203 1548.7920005 c 0
 714.747202829 1545.584001 714.747202829 1545.584001 738.820912287 1538.89841203 c 0
 787.561653676 1525.36246055 787.561653676 1525.36246055 822.406461647 1496.117711 c 0
 857.232961758 1466.88832698 857.232961758 1466.88832698 874.616480879 1424.97997233 c 0
 892 1383.07161767 892 1383.07161767 892 1332 c 0
 892 1296.1286562 892 1296.1286562 881.250280189 1244.4546777 c 2
 773.299366155 692 l 1
 567.912221798 692 l 1
 572.189156778 714.042664897 l 1
 526.232772753 685.639726509 526.232772753 685.639726509 476.804242176 678.657776075 c 0
 457.988587839 676 457.988587839 676 438 676 c 0
 340.464929229 676 340.464929229 676 280.067870436 746.874099604 c 0
 222 815.014967973 222 815.014967973 222 916 c 0
 222 1034.65883917 222 1034.65883917 290.781525541 1126.36753989 c 0
 359.563051081 1218.07624061 359.563051081 1218.07624061 457.493545334 1251.89080219 c 0
 515 1272 515 1272 596 1272 c 2
EndSplineSet
EndChar

StartChar: guillemotleft
Encoding: 171 171 109
Width: 1024
Flags: W
LayerCount: 2
Fore
SplineSet
659.254963484 937.647724809 m 1
 268.311883781 532.14825384 l 1
 499.781616814 129.142915076 l 1
 316.576732788 22.6648628215 l 1
 52.9369335455 497.881139607 l 1
 71.9415365092 590.189211145 l 1
 506.586020312 1051.73001201 l 1
 659.254963484 937.647724809 l 1
1043.25496348 937.647724809 m 1
 652.311883781 532.14825384 l 1
 883.781616814 129.142915076 l 1
 700.576732788 22.6648628215 l 1
 436.936933545 497.881139607 l 1
 455.941536509 590.189211145 l 1
 890.586020312 1051.73001201 l 1
 1043.25496348 937.647724809 l 1
EndSplineSet
EndChar

StartChar: logicalnot
Encoding: 172 172 110
Width: 1024
Flags: W
LayerCount: 2
Fore
SplineSet
990.31979175 346 m 1
 784.990128744 346 l 1
 834.990128744 606 l 1
 66.6413244265 606 l 1
 105.841324427 802 l 1
 1079.11979175 802 l 1
 990.31979175 346 l 1
EndSplineSet
EndChar

StartChar: uni00AD
Encoding: 173 173 111
Width: 1024
Flags: W
LayerCount: 2
Fore
SplineSet
69.6413244265 478 m 1
 108.841324427 674 l 1
 1082.35867557 674 l 1
 1043.15867557 478 l 1
 69.6413244265 478 l 1
EndSplineSet
EndChar

StartChar: registered
Encoding: 174 174 112
Width: 1024
Flags: W
LayerCount: 2
Fore
SplineSet
835.887302691 918.040636444 m 0
 849 884.20554531 849 884.20554531 849 844 c 0
 849 733.780416021 849 733.780416021 782.011117638 653.340199655 c 0
 764.245270955 632.006979863 764.245270955 632.006979863 742.98641658 615.38787574 c 1
 782.005358791 348.758437303 l 1
 803.679615116 376.501951397 803.679615116 376.501951397 821.822999832 408.531303212 c 0
 870.276875421 495.999978942 870.276875421 495.999978942 901.138437711 624.268345565 c 0
 932 752.536712188 932 752.536712188 932 853 c 0
 932 988.045750795 932 988.045750795 867.53245879 1063.91571426 c 0
 805.431938537 1137 805.431938537 1137 672 1137 c 0
 556.231663704 1137 556.231663704 1137 467.624428152 1079.58612798 c 0
 377.60681259 1025.55728911 377.60681259 1025.55728911 323.227116391 935.058845487 c 0
 274.769892841 854.968489737 274.769892841 854.968489737 244.486581843 736.084177884 c 0
 214 612.878819463 214 612.878819463 214 517 c 0
 214 381.015935603 214 381.015935603 278.396538009 305.667605415 c 0
 340.501991474 233 340.501991474 233 474 233 c 0
 589.671726998 233 589.671726998 233 678.037087621 290.847426799 c 0
 714.858268181 314.952014073 714.858268181 314.952014073 745.959155357 346 c 1
 574.794357197 346 l 1
 547.794357197 602 l 1
 527.422259139 602 l 1
 478.422259139 346 l 1
 272.924888893 346 l 1
 411.649888893 1024 l 1
 654 1024 l 2
 744.880391166 1024 744.880391166 1024 796.30444538 976.385134987 c 0
 822.774605382 951.875727577 822.774605382 951.875727577 835.887302691 918.040636444 c 0
566.106549413 798 m 1
 603 798 l 2
 614.641557526 798 614.641557526 798 622.01163538 802.958786804 c 0
 629.381713235 807.917573608 629.381713235 807.917573608 633.023734648 817.259914463 c 0
 636.665756061 826.602255318 636.665756061 826.602255318 638.828919975 837.070553741 c 0
 644 862.095198667 644 862.095198667 644 900.882352941 c 0
 644 901.678635838 644 901.678635838 643.984678367 902.442238411 c 0
 638.308741419 904 638.308741419 904 631 904 c 2
 579.328771635 904 l 1
 566.106549413 798 l 1
388.658284841 1209.91792586 m 0
 520.829808823 1295 520.829808823 1295 688 1295 c 0
 786.169271287 1295 786.169271287 1295 863.391138672 1265.50439928 c 0
 940.613006057 1236.00879856 940.613006057 1236.00879856 993.870289827 1176.27046968 c 0
 1098 1059.46889001 1098 1059.46889001 1098 869 c 0
 1098 754.618342139 1098 754.618342139 1062.88881934 603.330460773 c 0
 1027.77763868 452.042579406 1027.77763868 452.042579406 967.157477224 345.434709254 c 0
 889.513239141 207.164148285 889.513239141 207.164148285 757.341715159 122.082074142 c 0
 625.170191177 37 625.170191177 37 458 37 c 0
 259.145515835 37 259.145515835 37 153.572757917 153.685679803 c 0
 48 270.371359607 48 270.371359607 48 463 c 0
 48 577.381657861 48 577.381657861 83.1111806585 728.669539227 c 0
 118.222361317 879.957420594 118.222361317 879.957420594 178.842522776 986.565290746 c 0
 256.486760859 1124.83585172 256.486760859 1124.83585172 388.658284841 1209.91792586 c 0
EndSplineSet
EndChar

StartChar: macron
Encoding: 175 175 113
Width: 1024
Flags: W
LayerCount: 2
Fore
SplineSet
357.585767014 1404 m 1
 1074.98089965 1404 l 1
 1037.41423299 1208 l 1
 320.019100348 1208 l 1
 357.585767014 1404 l 1
EndSplineSet
EndChar

StartChar: degree
Encoding: 176 176 114
Width: 1024
Flags: W
LayerCount: 2
Fore
SplineSet
526.339325937 1433.07052922 m 0
 620.678651874 1524 620.678651874 1524 747 1524 c 0
 849.618898785 1524 849.618898785 1524 911.229775048 1462.99913241 c 0
 973 1401.84049385 973 1401.84049385 973 1306 c 0
 973 1173.92668206 973 1173.92668206 878.94516594 1082.72199448 c 0
 817.187133219 1022.8354173 817.187133219 1022.8354173 739.514076302 1002.26811259 c 0
 700.736234255 992 700.736234255 992 659 992 c 0
 556.490446521 992 556.490446521 992 494.245223261 1053.02472869 c 0
 432 1114.04945737 432 1114.04945737 432 1210 c 0
 432 1342.14105843 432 1342.14105843 526.339325937 1433.07052922 c 0
631.283289342 1182.40470912 m 0
 646.863893086 1168 646.863893086 1168 678 1168 c 0
 723.143007095 1168 723.143007095 1168 755.48096579 1200.70965937 c 0
 788 1233.60247558 788 1233.60247558 788 1292 c 0
 788 1320.60481735 788 1320.60481735 773.463780637 1334.30240868 c 0
 758.927561274 1348 758.927561274 1348 728 1348 c 0
 682.855551452 1348 682.855551452 1348 650.017296322 1314.78858288 c 0
 617 1281.39609001 617 1281.39609001 617 1224 c 0
 617 1195.61001436 617 1195.61001436 631.283289342 1182.40470912 c 0
EndSplineSet
EndChar

StartChar: plusminus
Encoding: 177 177 115
Width: 1024
Flags: W
LayerCount: 2
Fore
SplineSet
494.723682899 892 m 1
 545.723682899 1152 l 1
 751.184009409 1152 l 1
 700.184009409 892 l 1
 1083.98089965 892 l 1
 1046.41423299 696 l 1
 662.39448664 696 l 1
 612.39448664 436 l 1
 406.990128744 436 l 1
 456.990128744 696 l 1
 73.0191003476 696 l 1
 110.585767014 892 l 1
 494.723682899 892 l 1
-25.9808996524 222 m 1
 11.5857670143 418 l 1
 984.980899652 418 l 1
 947.414232986 222 l 1
 -25.9808996524 222 l 1
EndSplineSet
EndChar

StartChar: uni00B2
Encoding: 178 178 116
Width: 1024
Flags: W
LayerCount: 2
Fore
SplineSet
404.622325546 1524.28298872 m 2
 545.260493875 1552 545.260493875 1552 661 1552 c 0
 794.28025704 1552 794.28025704 1552 865.521322849 1489.59047127 c 0
 901.681748386 1457.91274312 901.681748386 1457.91274312 920.340874193 1415.9664391 c 0
 939 1374.02013509 939 1374.02013509 939 1325 c 0
 939 1103.66940421 939 1103.66940421 639.951572373 966.504827996 c 1
 576.146524514 936.596259087 l 2
 560.533433611 929.248922192 560.533433611 929.248922192 539.180401578 917.002330291 c 0
 508.143212384 899.201589429 508.143212384 899.201589429 494.314358402 888 c 1
 847.358675573 888 l 1
 808.158675573 692 l 1
 212.64111385 692.000042116 l 1
 233.70929397 797.338406629 l 2
 276.540735499 1015.88858264 276.540735499 1015.88858264 556.867301643 1137.86273737 c 0
 597.1410324 1155.18238475 597.1410324 1155.18238475 612.320689355 1163.46219764 c 0
 627.50034631 1171.74201052 627.50034631 1171.74201052 634.13880376 1175.7339596 c 0
 640.77726121 1179.72590867 640.77726121 1179.72590867 647.92827825 1184.37295638 c 0
 662.379426068 1193.76395251 662.379426068 1193.76395251 678.522428838 1205.63380749 c 0
 733 1245.6908451 733 1245.6908451 733 1304 c 0
 733 1324.06434574 733 1324.06434574 716.121921423 1339.22600954 c 0
 694.65316806 1356 694.65316806 1356 637 1356 c 0
 533.636197206 1356 533.636197206 1356 396.177884305 1329.6781954 c 2
 341.128664299 1319.1368554 l 1
 379.499351604 1519.33174568 l 1
 404.622325546 1524.28298872 l 2
EndSplineSet
EndChar

StartChar: uni00B3
Encoding: 179 179 117
Width: 1024
Flags: W
LayerCount: 2
Fore
SplineSet
930 1331 m 0
 930 1193.6200102 930 1193.6200102 818.413677605 1113.94511831 c 1
 873 1061.51159318 873 1061.51159318 873 982 c 0
 873 918.550693807 873 918.550693807 845.382106411 863.310424987 c 0
 817.764212822 808.070156168 817.764212822 808.070156168 765.01597198 763.97374319 c 0
 659.781557658 676 659.781557658 676 504 676 c 0
 397.86916564 676 397.86916564 676 260.764359323 691.233867369 c 2
 219.933471609 695.77063267 l 1
 257.19576976 890.182623024 l 1
 291.722176685 886.81966131 l 2
 443.870699471 872 443.870699471 872 528 872 c 0
 604.484660271 872 604.484660271 872 635.742330136 899.986518367 c 0
 667 927.973036734 667 927.973036734 667 965 c 0
 667 982.019593854 667 982.019593854 655.941065002 992.832774742 c 0
 641.514917836 1006.93834086 641.514917836 1006.93834086 617.518265015 1011.73767142 c 0
 596.206622133 1016 596.206622133 1016 534 1016 c 2
 409.641324427 1016 l 1
 448.841324427 1212 l 1
 558 1212 l 2
 628.473382725 1212 628.473382725 1212 658.0691601 1222.31574837 c 0
 683.423572666 1231.15314895 683.423572666 1231.15314895 702.13521125 1249.86478875 c 0
 724 1271.7295775 724 1271.7295775 724 1308 c 0
 724 1320.44892518 724 1320.44892518 719.829188375 1328.99583056 c 0
 715.658376749 1337.54273595 715.658376749 1337.54273595 704.542522948 1343.51750737 c 0
 681.319280838 1356 681.319280838 1356 634 1356 c 0
 567.977599743 1356 567.977599743 1356 404.933333169 1339.20149981 c 2
 354.052962305 1333.95927978 l 1
 391.87341071 1531.28335841 l 1
 419.247321073 1534.70509721 l 2
 557.606543425 1552 557.606543425 1552 658 1552 c 0
 781.194347548 1552 781.194347548 1552 853.534162782 1494.82821054 c 0
 930 1434.39553274 930 1434.39553274 930 1331 c 0
EndSplineSet
EndChar

StartChar: acute
Encoding: 180 180 118
Width: 1024
Flags: W
LayerCount: 2
Fore
SplineSet
509.288487742 948 m 1
 797.986404409 1408 l 1
 1025.71151226 1408 l 1
 737.013595591 948 l 1
 509.288487742 948 l 1
EndSplineSet
EndChar

StartChar: mu
Encoding: 181 181 119
Width: 1024
Flags: W
LayerCount: 2
Fore
SplineSet
581.803531932 -1.70530256582e-13 m 1
 590.992783883 46.7816462952 l 1
 510.209439076 -16 510.209439076 -16 433 -16 c 0
 368.251918704 -16 368.251918704 -16 315.696292449 27.7963552122 c 0
 299.943342516 40.9238134898 299.943342516 40.9238134898 286.508073244 56.8452285284 c 1
 200.294389439 -384 l 1
 -5.11369688609 -384 l 1
 283.676075841 1024 l 1
 489.123783295 1023.99999998 l 1
 352.296696668 379.708957034 l 2
 337 307.789542426 337 307.789542426 337 277.243478261 c 0
 337 257.177247989 337 257.177247989 340.691455986 245.839759364 c 0
 344.382911972 234.502270739 344.382911972 234.502270739 348.060256637 228.008385965 c 0
 355.076004192 215.619159397 355.076004192 215.619159397 368.687692296 204.454093901 c 0
 398.500459555 180 398.500459555 180 456 180 c 0
 534.794200863 180 534.794200863 180 588.671101866 227.144991233 c 0
 609.92377924 245.89212721 609.92377924 245.89212721 623.98960734 271.699863986 c 0
 639.097470164 299.41950795 639.097470164 299.41950795 643.390676012 315.476672164 c 0
 650.899936011 343.562309143 650.899936011 343.562309143 661.701234986 393.107397918 c 2
 795.682913918 1024 l 1
 1001.10163604 1024 l 1
 787.332104792 -1.70530256582e-13 l 1
 581.803531932 -1.70530256582e-13 l 1
EndSplineSet
EndChar

StartChar: paragraph
Encoding: 182 182 120
Width: 1024
Flags: W
LayerCount: 2
Fore
SplineSet
531.339372945 -2.70006239589e-13 m 1
 325.918410652 -2.70006239589e-13 l 1
 455.295474514 628.17772733 l 1
 369.928983941 658.775673081 369.928983941 658.775673081 316.606533258 725.558686416 c 0
 253 805.22186589 253 805.22186589 253 919.776327451 c 0
 253 1093.93152425 253 1093.93152425 368.598074079 1221.57487928 c 0
 485.058371287 1358.17083535 485.058371287 1358.17083535 641.665387721 1394.08148672 c 0
 703.763370042 1408 703.763370042 1408 837 1408 c 2
 1076.11369689 1408 l 1
 787.323924159 8.52651282912e-14 l 1
 581.90907426 4.47641923529e-13 l 1
 831.90907426 1212 l 1
 781.339372945 1212 l 1
 531.339372945 -2.70006239589e-13 l 1
EndSplineSet
EndChar

StartChar: periodcentered
Encoding: 183 183 121
Width: 1024
Flags: W
LayerCount: 2
Fore
SplineSet
334.981932762 611.768521913 m 0
 324 639.738118604 324 639.738118604 324 672 c 0
 324 755.761500156 324 755.761500156 383.641929835 820.880750078 c 0
 443.28385967 886 443.28385967 886 537 886 c 0
 607.027568689 886 607.027568689 886 650.492241051 845.210076707 c 0
 683.616199828 814.124515393 683.616199828 814.124515393 692.248891084 766.99346779 c 0
 695 751.973511509 695 751.973511509 695 736 c 0
 695 653.339664866 695 653.339664866 636.145384017 588.479475823 c 0
 606.347032108 555.64047576 606.347032108 555.64047576 566.787425528 538.82023788 c 0
 527.227818947 522 527.227818947 522 481 522 c 0
 410.802082151 522 410.802082151 522 367.792498661 562.993509264 c 0
 345.963865524 583.798925222 345.963865524 583.798925222 334.981932762 611.768521913 c 0
EndSplineSet
EndChar

StartChar: cedilla
Encoding: 184 184 122
Width: 1024
Flags: W
LayerCount: 2
Fore
SplineSet
192.412408178 -400 m 0
 141.824816357 -400 141.824816357 -400 60.7832545148 -382.107707126 c 2
 24.8790536237 -374.18080563 l 1
 61.9779121613 -175.782562146 l 1
 100.821530991 -185.03104282 l 2
 180.491151146 -204 180.491151146 -204 217 -204 c 0
 266.497425742 -204 266.497425742 -204 297.327715006 -170.967547217 c 0
 309.37280906 -158.169634785 309.37280906 -158.169634785 318.792051069 -138.921618506 c 0
 328.211293078 -119.673602226 328.211293078 -119.673602226 332.059216937 -105.137000982 c 0
 335.907140796 -90.6003997378 335.907140796 -90.6003997378 341.671266816 -59.8583942933 c 2
 367.549056206 76 l 1
 572.92713427 76 l 1
 544.328733184 -74.1416057067 l 2
 532.125214517 -138.210078706 532.125214517 -138.210078706 519.885824158 -168.911880282 c 0
 512.655956092 -187.047585434 512.655956092 -187.047585434 500.678860722 -211.615986192 c 0
 478.618778376 -256.867437159 478.618778376 -256.867437159 443.589943507 -293.122757905 c 0
 377.837092996 -363.940850243 377.837092996 -363.940850243 287.437417762 -388.055188302 c 0
 243 -400 243 -400 192.412408178 -400 c 0
EndSplineSet
EndChar

StartChar: uni00B9
Encoding: 185 185 123
Width: 1024
Flags: W
LayerCount: 2
Fore
SplineSet
681.89238221 1536 m 1
 844.086898452 1536 l 1
 680.342106786 692 l 1
 474.86457402 692 l 1
 589.171615314 1281.75670386 l 1
 306.212661104 1144.43838785 l 1
 350.226564858 1371.58906199 l 1
 681.89238221 1536 l 1
EndSplineSet
EndChar

StartChar: ordmasculine
Encoding: 186 186 124
Width: 1024
Flags: W
LayerCount: 2
Fore
SplineSet
534.615875285 1532.25656519 m 0
 589.333394622 1552 589.333394622 1552 650.755930001 1552 c 0
 669.558662908 1552 669.558662908 1552 685.217859324 1550.67421947 c 0
 700.87705574 1549.34843894 700.87705574 1549.34843894 715.805293459 1546.67818698 c 0
 730.733531178 1544.00793502 730.733531178 1544.00793502 744.685844578 1539.91008035 c 0
 758.638157978 1535.81222568 758.638157978 1535.81222568 771.644989817 1530.34440759 c 0
 784.651821655 1524.8765895 784.651821655 1524.8765895 796.615475683 1517.87425782 c 0
 808.57912971 1510.87192615 808.57912971 1510.87192615 819.382779312 1502.47413907 c 0
 908 1433.59106907 908 1433.59106907 908 1275 c 0
 908 1200.69853474 908 1200.69853474 882.318062507 1075.67220568 c 0
 879.355073246 1061.24760589 879.355073246 1061.24760589 875.011059819 1043.08173055 c 0
 870.667046391 1024.91585521 870.667046391 1024.91585521 859.786465576 989.942559733 c 0
 841.451405338 931.008437541 841.451405338 931.008437541 824.112502959 895.246951384 c 0
 806.773600581 859.485465228 806.773600581 859.485465228 775.683257924 816.395341196 c 0
 744.592915268 773.305217163 744.592915268 773.305217163 707.035421064 744.283517096 c 0
 669.47792686 715.26181703 669.47792686 715.26181703 615.072266119 695.630908515 c 0
 560.666605378 676 560.666605378 676 497 676 c 0
 357.084705785 676 357.084705785 676 292.099239143 765.467318706 c 0
 242 834.440349554 242 834.440349554 242 953 c 0
 242 1017.56493826 242 1017.56493826 261.64017302 1120.97794794 c 0
 270.824729405 1171.46909161 270.824729405 1171.46909161 278.661875091 1198.79351186 c 0
 286.499020777 1226.11793212 286.499020777 1226.11793212 293.796568008 1249.57433393 c 0
 308.548594662 1296.99156246 308.548594662 1296.99156246 325.785643541 1332.54297577 c 0
 343.226399419 1368.51453477 343.226399419 1368.51453477 374.316742076 1411.6046588 c 0
 405.407084732 1454.69478284 405.407084732 1454.69478284 442.964578936 1483.7164829 c 0
 480.52207314 1512.73818297 480.52207314 1512.73818297 534.615875285 1532.25656519 c 0
464.321804598 1106.8221157 m 0
 447 1016.36380279 447 1016.36380279 447 970 c 0
 447 906.414639854 447 906.414639854 472.834487851 885.203142001 c 0
 488.91521982 872 488.91521982 872 520 872 c 0
 550.04361796 872 550.04361796 872 574.498146238 885.755672156 c 0
 598.952674516 899.511344312 598.952674516 899.511344312 614.31281337 918.71151788 c 0
 630.763243514 939.27455556 630.763243514 939.27455556 645.790645796 977.070749178 c 0
 660.818048078 1014.8669428 660.818048078 1014.8669428 668.875963869 1045.67662082 c 0
 676.933879661 1076.48629885 676.933879661 1076.48629885 685.707002893 1121.32670648 c 0
 703 1211.63458026 703 1211.63458026 703 1259.34523152 c 0
 703 1307.05588279 703 1307.05588279 687.121273691 1331.15752093 c 0
 670.754463954 1356 670.754463954 1356 629 1356 c 0
 598.95638204 1356 598.95638204 1356 574.501853762 1342.24432784 c 0
 550.047325484 1328.48865569 550.047325484 1328.48865569 534.142040985 1308.60705006 c 0
 512.075664975 1281.02408005 512.075664975 1281.02408005 490.252134369 1215.5497893 c 0
 478.242396526 1179.51854021 478.242396526 1179.51854021 464.321804598 1106.8221157 c 0
EndSplineSet
EndChar

StartChar: guillemotright
Encoding: 187 187 125
Width: 1024
Flags: W
LayerCount: 2
Fore
SplineSet
436.745036516 138.352275191 m 1
 827.688116219 543.85174616 l 1
 596.218383186 946.857084924 l 1
 779.423267212 1053.33513718 l 1
 1043.06306645 578.118860393 l 1
 1024.05846349 485.810788855 l 1
 589.413979688 24.2699879851 l 1
 436.745036516 138.352275191 l 1
52.7450365157 138.352275191 m 1
 443.688116219 543.85174616 l 1
 212.218383186 946.857084924 l 1
 395.423267212 1053.33513718 l 1
 659.063066455 578.118860393 l 1
 640.058463491 485.810788855 l 1
 205.413979688 24.2699879851 l 1
 52.7450365157 138.352275191 l 1
EndSplineSet
EndChar

StartChar: onequarter
Encoding: 188 188 126
Width: 1024
Flags: W
LayerCount: 2
Fore
SplineSet
222.226564858 1367.46622962 m 1
 553.89238221 1536 l 1
 717.145871526 1536 l 1
 552.302121526 692 l 1
 346.86457402 692 l 1
 461.171615314 1277.94365705 l 1
 178.212661104 1140.62534104 l 1
 222.226564858 1367.46622962 l 1
890.342106786 -128 m 1
 684.854128474 -128 l 1
 734.854128474 128 l 1
 350.893450587 128 l 1
 374.285596654 248.302465489 l 1
 547.546274212 716 l 1
 749.449358787 716 l 1
 605.449358787 324 l 1
 772.65380968 324 l 1
 848.65380968 716 l 1
 1054.08689845 716 l 1
 890.342106786 -128 l 1
EndSplineSet
EndChar

StartChar: onehalf
Encoding: 189 189 127
Width: 1024
Flags: W
LayerCount: 2
Fore
SplineSet
487.622325546 666.282988723 m 2
 628.260493875 694 628.260493875 694 743 694 c 0
 876.28025704 694 876.28025704 694 947.521322849 634.348101614 c 0
 983.681748386 604.070087027 983.681748386 604.070087027 1002.34087419 563.977224353 c 0
 1021 523.88436168 1021 523.88436168 1021 477.030232558 c 0
 1021 265.461390435 1021 265.461390435 722.931914519 134.367188734 c 0
 608.640325751 83.7924223863 608.640325751 83.7924223863 577.756342564 59.3395348837 c 1
 928.980899652 59.3395348837 l 1
 891.414232986 -128 l 1
 295.64111385 -127.999957884 l 1
 316.70929397 -22.6615933711 l 2
 351.085479137 140.813982835 351.085479137 140.813982835 539.581879351 246.847655704 c 0
 586.937391085 273.486248453 586.937391085 273.486248453 632.701483629 291.738233153 c 0
 678.465576172 309.990217854 678.465576172 309.990217854 703.969480449 322.955201173 c 0
 729.473384725 335.920184491 729.473384725 335.920184491 758.592408369 356.172689027 c 0
 787.711432013 376.425193563 787.711432013 376.425193563 801.355716006 399.385005876 c 0
 815 422.344818189 815 422.344818189 815 449.53702496 c 0
 815 462.111741085 815 462.111741085 810.44649745 470.870509012 c 0
 805.892994899 479.629276939 805.892994899 479.629276939 793.899669706 485.680277489 c 0
 769.481486771 498 769.481486771 498 720 498 c 0
 616.636197206 498 616.636197206 498 479.177884305 471.678195402 c 2
 424.128664299 461.136855401 l 1
 462.499351604 661.331745684 l 1
 487.622325546 666.282988723 l 2
222.226564858 1367.46622962 m 1
 553.89238221 1536 l 1
 717.145871526 1536 l 1
 552.302121526 692 l 1
 346.86457402 692 l 1
 461.171615314 1277.94365705 l 1
 178.212661104 1140.62534104 l 1
 222.226564858 1367.46622962 l 1
EndSplineSet
EndChar

StartChar: threequarters
Encoding: 190 190 128
Width: 1024
Flags: W
LayerCount: 2
Fore
SplineSet
800 1331 m 0
 800 1193.6200102 800 1193.6200102 688.413677605 1113.94511831 c 1
 743 1061.51159318 743 1061.51159318 743 982 c 0
 743 918.550693807 743 918.550693807 715.382106411 863.310424987 c 0
 687.764212822 808.070156168 687.764212822 808.070156168 634.849486494 763.834564846 c 0
 529.781557658 676 529.781557658 676 374 676 c 0
 267.86916564 676 267.86916564 676 130.764359323 691.233867369 c 2
 89.9334716094 695.77063267 l 1
 127.19576976 890.182623024 l 1
 161.722176685 886.81966131 l 2
 313.870699471 872 313.870699471 872 398 872 c 0
 474.484660271 872 474.484660271 872 505.742330136 899.986518367 c 0
 537 927.973036734 537 927.973036734 537 965 c 0
 537 982.019593854 537 982.019593854 525.941065002 992.832774742 c 0
 511.514917836 1006.93834086 511.514917836 1006.93834086 487.518265015 1011.73767142 c 0
 466.206622133 1016 466.206622133 1016 404 1016 c 2
 279.641324427 1016 l 1
 318.841324427 1212 l 1
 428 1212 l 2
 482.114004484 1212 482.114004484 1212 509.562869122 1217.27184304 c 0
 547.287354145 1225.01693002 547.287354145 1225.01693002 572.13521125 1249.86478875 c 0
 594 1271.7295775 594 1271.7295775 594 1308 c 0
 594 1320.44892518 594 1320.44892518 589.829188375 1328.99583056 c 0
 585.658376749 1337.54273595 585.658376749 1337.54273595 574.542522948 1343.51750737 c 0
 551.319280838 1356 551.319280838 1356 504 1356 c 0
 437.977599743 1356 437.977599743 1356 274.933333169 1339.20149981 c 2
 224.052962305 1333.95927978 l 1
 261.87341071 1531.28335841 l 1
 289.247321073 1534.70509721 l 2
 427.606543425 1552 427.606543425 1552 528 1552 c 0
 651.194347548 1552 651.194347548 1552 723.534162782 1494.82821054 c 0
 800 1434.39553274 800 1434.39553274 800 1331 c 0
890.342106786 -128 m 1
 684.854128474 -128 l 1
 734.854128474 128 l 1
 350.893450587 128 l 1
 374.285596654 248.302465489 l 1
 547.546274212 716 l 1
 749.449358787 716 l 1
 605.449358787 324 l 1
 772.65380968 324 l 1
 848.65380968 716 l 1
 1054.08689845 716 l 1
 890.342106786 -128 l 1
EndSplineSet
EndChar

StartChar: questiondown
Encoding: 191 191 129
Width: 1024
Flags: W
LayerCount: 2
Fore
SplineSet
777.013784345 1126.72062838 m 0
 821 1085.44125677 821 1085.44125677 821 1018 c 0
 821 934.462358759 821 934.462358759 762.474829716 869.231179379 c 0
 703.949659431 804 703.949659431 804 607 804 c 0
 536.802082151 804 536.802082151 804 493.792498661 844.993509264 c 0
 471.963865524 865.798925222 471.963865524 865.798925222 460.981932762 893.768521913 c 0
 450 921.738118604 450 921.738118604 450 954 c 0
 450 1036.54911971 450 1036.54911971 509.031182351 1102.27455986 c 0
 568.062364702 1168 568.062364702 1168 663 1168 c 0
 733.027568689 1168 733.027568689 1168 777.013784345 1126.72062838 c 0
287.568213133 122.598176883 m 0
 275 82.2003489536 275 82.2003489536 275 40 c 0
 275 10.1306739719 275 10.1306739719 285.312567461 -12.8257854433 c 0
 304.18972396 -54.8475883215 304.18972396 -54.8475883215 373.590593014 -69.3384689398 c 0
 405.494523285 -76 405.494523285 -76 448 -76 c 0
 537.882186183 -76 537.882186183 -76 703.893409845 -39.8681454383 c 2
 760.655883578 -27.5139599788 l 1
 720.415874849 -228.714003623 l 1
 611.275749921 -253.040417011 611.275749921 -253.040417011 543.928691697 -262.520208505 c 0
 476.581633472 -272 476.581633472 -272 430.13074228 -272 c 0
 383.679851088 -272 383.679851088 -272 347.071063229 -267.61084639 c 0
 310.46227537 -263.221692781 310.46227537 -263.221692781 277.586877687 -254.188569416 c 0
 211.263287149 -235.964936623 211.263287149 -235.964936623 164.021740998 -197.471824945 c 0
 69 -120.04670265 69 -120.04670265 69 18 c 0
 69 101.102725938 69 101.102725938 92.9307965164 173.982878965 c 0
 116.861593033 246.863031992 116.861593033 246.863031992 165.10818922 310.484917074 c 0
 213.354785407 374.106802157 213.354785407 374.106802157 256.321003665 416.555355134 c 0
 299.287221923 459.003908111 299.287221923 459.003908111 368.162040409 517.75007682 c 0
 400.856168531 546.026079521 400.856168531 546.026079521 420.826749901 577.718523868 c 0
 440.969225076 609.683756211 440.969225076 609.683756211 445.986826322 627.052375908 c 0
 451.944079085 647.673635473 451.944079085 647.673635473 458.598219223 684.746701955 c 2
 464.207785538 716 l 1
 669.899930648 716 l 1
 661.33283983 670.879988355 l 2
 645.344491565 586.674687497 645.344491565 586.674687497 609.939398242 516.409194593 c 0
 574.534304918 446.143701689 574.534304918 446.143701689 497.757137884 380.180220153 c 0
 448.067759685 337.447354902 448.067759685 337.447354902 424.424556536 316.216723503 c 0
 400.781353388 294.986092105 400.781353388 294.986092105 365.928500583 256.836347818 c 0
 331.075647778 218.686603531 331.075647778 218.686603531 315.741884547 191.085829715 c 0
 300.136426267 162.996004811 300.136426267 162.996004811 287.568213133 122.598176883 c 0
EndSplineSet
EndChar

StartChar: Aring
Encoding: 197 197 135
Width: 1024
Flags: W
LayerCount: 2
Fore
SplineSet
-73.3992660747 46.1973392299 m 2
 156.501185351 768.370595047 156.501185351 768.370595047 534.233507569 1280.65272106 c 1
 458 1340.97219063 458 1340.97219063 458 1450 c 0
 458 1582.14105843 458 1582.14105843 552.339325937 1673.07052922 c 0
 646.678651874 1764 646.678651874 1764 773 1764 c 0
 875.618898785 1764 875.618898785 1764 937.229775048 1702.99913241 c 0
 999 1641.84049385 999 1641.84049385 999 1546.15178475 c 0
 999 1450.46307565 999 1450.46307565 948.103909413 1374.40487286 c 0
 907.51719985 1313.75282374 907.51719985 1313.75282374 846.792241869 1277.32198829 c 1
 967 911.041799773 967 911.041799773 967 445.849519709 c 0
 967 248.226641526 967 248.226641526 946.849502526 34.5982030124 c 2
 943.774106703 8.38440428197e-13 l 1
 731.56693871 8.38440428197e-13 l 1
 742.20028092 86.8069882744 742.20028092 86.8069882744 746.3677848 137.68310921 c 0
 754.712073409 239.548649973 754.712073409 239.548649973 755.827878347 350 c 1
 254.952161414 350 l 1
 245.673038113 326.602723856 245.673038113 326.602723856 234.713372811 299.591020915 c 0
 223.753707509 272.579317974 223.753707509 272.579317974 217.266899936 256.462549753 c 0
 163.076293697 121.823525745 163.076293697 121.823525745 134.68321489 28.0552618686 c 2
 127.084914801 -2.84217094304e-14 l 1
 -88.105971229 -2.84217094304e-14 l 1
 -73.3992660747 46.1973392299 l 2
504.488979737 892.861495586 m 0
 423.823435139 744.871799566 423.823435139 744.871799566 331.031919327 546 c 1
 757.302807355 546 l 1
 747.174328548 751.363709777 747.174328548 751.363709777 727.370448327 898.636199086 c 0
 707.566568107 1045.9086884 707.566568107 1045.9086884 673.139902515 1164.26171287 c 1
 585.154524334 1040.85119161 585.154524334 1040.85119161 504.488979737 892.861495586 c 0
649.787426224 1431.63157582 m 0
 663.742448511 1408 663.742448511 1408 704 1408 c 0
 749.143007095 1408 749.143007095 1408 781.48096579 1440.70965937 c 0
 814 1473.60247558 814 1473.60247558 814 1532 c 0
 814 1560.60481735 814 1560.60481735 799.463780637 1574.30240868 c 0
 784.927561274 1588 784.927561274 1588 754 1588 c 0
 708.855551452 1588 708.855551452 1588 676.017296322 1554.78858288 c 0
 643 1521.39609001 643 1521.39609001 643 1464 c 0
 643 1443.125472 643 1443.125472 649.787426224 1431.63157582 c 0
EndSplineSet
EndChar

StartChar: AE
Encoding: 198 198 136
Width: 1024
Flags: W
LayerCount: 2
Fore
SplineSet
697.11615233 120 m 1
 952.980899652 120 l 1
 915.414232986 -8.52651282912e-14 l 1
 453.945298352 -1.42108547152e-13 l 1
 528.945298352 350 l 1
 214.653717116 350 l 1
 163.976841498 189.3852312 163.976841498 189.3852312 135.513151396 31.9066613141 c 2
 130.361555038 -9.94759830064e-14 l 1
 -83.7946041265 -9.94759830064e-14 l 1
 -74.1929115511 43.4455418682 l 2
 85.1891993609 764.614452279 85.1891993609 764.614452279 498.779928205 1390.14402907 c 2
 509.974038422 1408 l 1
 1204.35867557 1408 l 1
 1165.15867557 1212 l 1
 909.380928969 1212 l 1
 823.029783931 790.434782609 l 1
 1079.35867557 790.434782609 l 1
 1040.15867557 606 l 1
 784.3222592 606 l 1
 697.11615233 120 l 1
601.696706741 1212 m 1
 429.329448418 933.488329257 429.329448418 933.488329257 276.504525428 546 c 1
 567.644961951 546 l 1
 703.932141438 1212 l 1
 601.696706741 1212 l 1
EndSplineSet
EndChar

StartChar: Ccedilla
Encoding: 199 199 137
Width: 1024
Flags: W
LayerCount: 2
Fore
SplineSet
275.797753539 695.510406098 m 0
 241 530.151003958 241 530.151003958 241 446.262284075 c 0
 241 314.311529303 241 314.311529303 306.084230445 246.132614806 c 0
 369.215044036 180 369.215044036 180 523 180 c 0
 676.945987731 180 676.945987731 180 904.953487772 216.520681825 c 2
 958.533942566 225.102832593 l 1
 920.352091136 25.8931729586 l 1
 894.325085661 21.5250042075 l 2
 766.697678613 0.105019807879 766.697678613 0.105019807879 657.725842742 -8.74771745505 c 1
 644.328733184 -77.1416057067 l 2
 636.0206596 -120.758992019 636.0206596 -120.758992019 628.838945268 -146.171211964 c 0
 621.657230936 -171.583431908 621.657230936 -171.583431908 600.138004937 -215.725433958 c 0
 578.618778937 -259.867436008 578.618778937 -259.867436008 543.589944102 -296.122758394 c 0
 444 -403 444 -403 294 -403 c 0
 241.824816357 -403 241.824816357 -403 160.783254515 -385.107707126 c 2
 124.59578382 -377.118265544 l 1
 163.281336877 -178.854806126 l 1
 201.821530991 -188.03104282 l 2
 281.491151146 -207 281.491151146 -207 317 -207 c 0
 388.80418101 -207 388.80418101 -207 418.563288915 -143.423724021 c 0
 428.015748629 -123.229832813 428.015748629 -123.229832813 430.490236293 -113.331882159 c 0
 436.494632879 -89.3142958157 436.494632879 -89.3142958157 451.129733241 -14.512671742 c 1
 252.57484756 -3.06047006427 252.57484756 -3.06047006427 148.598799455 101.690081033 c 0
 34 217.142510865 34 217.142510865 34 416.395264191 c 0
 34 521.436316184 34 521.436316184 71.7044643305 697.121227489 c 0
 113.519796661 901.352593897 113.519796661 901.352593897 171.386435162 1021.69289343 c 0
 255.630791225 1207.03047677 255.630791225 1207.03047677 408.253960751 1315.51523839 c 0
 560.877130276 1424 560.877130276 1424 780 1424 c 0
 947.054905946 1424 947.054905946 1424 1131.0482557 1394.52040253 c 2
 1169.70195929 1388.3272677 l 1
 1132.42760071 1193.85235333 l 1
 1096.169531 1199.44535344 l 2
 911.056649874 1228 911.056649874 1228 756 1228 c 0
 516.851013006 1228 516.851013006 1228 396.452445527 1032.48023244 c 0
 376.620005383 1002.90983511 376.620005383 1002.90983511 356.804769499 962.327633038 c 0
 336.989533616 921.745430969 336.989533616 921.745430969 315.450424487 851.66586565 c 0
 293.911315359 781.58630033 293.911315359 781.58630033 275.797753539 695.510406098 c 0
EndSplineSet
EndChar

StartChar: Eth
Encoding: 208 208 146
Width: 1024
Flags: W
LayerCount: 2
Fore
SplineSet
871.719038259 673.387952 m 0
 900 819.668788592 900 819.668788592 900 909 c 0
 900 1052.00140106 900 1052.00140106 830.583490367 1133.35578177 c 0
 763.479456336 1212 763.479456336 1212 614 1212 c 2
 525.380928969 1212 l 1
 439.029783931 790.434782609 l 1
 695.358675573 790.434782609 l 1
 656.158675573 606 l 1
 400.3222592 606 l 1
 313.11615233 120 l 1
 387 120 l 2
 580.0868161 120 580.0868161 120 714.65963884 265.312341637 c 0
 773.734597558 333.804058241 773.734597558 333.804058241 807.234102491 426.858231256 c 0
 842.270295905 524.18099074 842.270295905 524.18099074 871.719038259 673.387952 c 0
358.660627055 1408 m 1
 638 1408 l 2
 817.941067143 1408 817.941067143 1408 946.357624349 1308.96689232 c 0
 1107 1190.59306883 1107 1190.59306883 1107 944.721878697 c 0
 1107 857.316944078 1107 857.316944078 1074.3218046 695.411694373 c 0
 1037.12029654 512.07075337 1037.12029654 512.07075337 983.584422369 400.424400062 c 0
 904.057749368 236.123602748 904.057749368 236.123602748 751.829313791 124.166980429 c 0
 674.322737433 67.164657153 674.322737433 67.164657153 573.849262002 34.5549769711 c 0
 473.374021271 0 473.374021271 0 364 0 c 2
 69.9090742596 0 l 1
 194.90907426 606 l 1
 66.6413244265 606 l 1
 105.841324427 802 l 1
 233.660627055 802 l 1
 358.660627055 1408 l 1
EndSplineSet
EndChar

StartChar: multiply
Encoding: 215 215 153
Width: 1024
Flags: W
LayerCount: 2
Fore
SplineSet
735.911328987 667.10165021 m 1
 986.609130814 361.317784304 l 1
 815.189402011 263.998511111 l 1
 575.822661848 534.418397745 l 1
 552.750441234 580.026275703 l 1
 506.652226059 527.781631839 l 1
 159.174350958 262.858084163 l 1
 28.4825230078 371.239918013 l 1
 388.889725525 671.028172095 l 1
 450.033521872 675.752722065 l 1
 409.136784208 711.113440441 l 1
 159.461081674 1016.26821309 l 1
 330.810597989 1144.00148889 l 1
 570.289883341 849.782697631 l 1
 592.721044916 802.71527203 l 1
 639.44435541 851.287928457 l 1
 986.825649042 1145.14191584 l 1
 1117.5596354 1007.46495911 l 1
 756.153661283 704.63865702 l 1
 695.518515682 667.37330712 l 1
 735.911328987 667.10165021 l 1
EndSplineSet
EndChar

StartChar: Oslash
Encoding: 216 216 154
Width: 1024
Flags: W
LayerCount: 2
Fore
SplineSet
908.96670823 1032.53756786 m 1
 293.181754667 251.476999052 l 1
 349.157174681 180 349.157174681 180 456.782687379 180 c 0
 564.408200078 180 564.408200078 180 650.596948651 250.765498828 c 0
 736.785697224 321.530997657 736.785697224 321.530997657 786.128541922 435.112640168 c 0
 830.477946415 538.273211489 830.477946415 538.273211489 871.704885319 749.315874926 c 0
 907.854381748 939.576382448 907.854381748 939.576382448 908.96670823 1032.53756786 c 1
1220.98893268 1352.41586709 m 1
 1083.36047269 1177.64956869 l 1
 1115 1096.34651594 1115 1096.34651594 1115 989.675375394 c 0
 1115 883.004234848 1115 883.004234848 1074.29890258 689.767151709 c 0
 1059.21337661 616.963544337 1059.21337661 616.963544337 1052.32185043 587.448072262 c 0
 1040.85405339 538.33305269 1040.85405339 538.33305269 1020.85585622 473.252237612 c 0
 1000.85765904 408.171422534 1000.85765904 408.171422534 975.913230036 354.399558005 c 0
 903.047115768 193.658328167 903.047115768 193.658328167 759.532828903 88.8291640834 c 0
 616.018542038 -16 616.018542038 -16 433 -16 c 0
 264.97024507 -16 264.97024507 -16 159.629318642 82.7260148344 c 1
 63.9494473897 -39.4789692408 l 1
 -74.9889326785 49.2769996142 l 1
 62.5974033086 212.39817028 l 1
 30 294.628922988 30 294.628922988 30 397.510799213 c 0
 30 500.392675439 30 500.392675439 71.7010974184 696.963726416 c 0
 86.7866233861 769.264927115 86.7866233861 769.264927115 95.9662849989 808.308864379 c 0
 105.145946612 847.352801643 105.145946612 847.352801643 125.144143784 911.984503868 c 0
 145.142340956 976.616206094 145.142340956 976.616206094 170.086769964 1030.01699913 c 0
 242.952884232 1200.99266777 242.952884232 1200.99266777 386.467171097 1312.49633389 c 0
 529.981457962 1424 529.981457962 1424 713 1424 c 0
 881.02975493 1424 881.02975493 1424 986.370681358 1325.27398517 c 1
 1082.05055261 1447.47896924 l 1
 1220.98893268 1352.41586709 l 1
236.022748851 374.180661255 m 1
 852.811515693 1156.51446508 l 1
 796.73678615 1228 796.73678615 1228 689 1228 c 0
 580.591799922 1228 580.591799922 1228 494.403051349 1157.23450117 c 0
 408.214302776 1086.46900234 408.214302776 1086.46900234 358.871458078 972.887359832 c 0
 316.523665989 873.75502835 316.523665989 873.75502835 274.288135465 658.648489168 c 0
 236.966646732 462.471433008 236.966646732 462.471433008 236.022748851 374.180661255 c 1
EndSplineSet
EndChar

StartChar: Thorn
Encoding: 222 222 160
Width: 1024
Flags: W
LayerCount: 2
Fore
SplineSet
388.135144644 542 m 1
 535 542 l 2
 637.971720152 542 637.971720152 542 681.065529055 550.398059163 c 0
 764.74844254 566.991874733 764.74844254 566.991874733 827.280089088 638.786747246 c 0
 890 710.797772968 890 710.797772968 890 806.703539823 c 0
 890 863.895555952 890 863.895555952 860.420944106 900.379881709 c 0
 831.011051034 936.655553358 831.011051034 936.655553358 779.178469009 947.785070194 c 0
 741.508848854 956 741.508848854 956 638 956 c 2
 476.309387069 956 l 1
 388.135144644 542 l 1
275.302121526 2.13162820728e-13 m 1
 69.8863031139 2.13162820728e-13 l 1
 358.676075841 1408 l 1
 564.145871526 1408 l 1
 514.145871526 1152 l 1
 661 1152 l 2
 794.570335434 1152 794.570335434 1152 850.406267303 1138.25669415 c 0
 963.092814564 1110.52033097 963.092814564 1110.52033097 1029.55439881 1024.74512268 c 0
 1096 943.537032643 1096 943.537032643 1096 826.120151934 c 0
 1096 651.917605631 1096 651.917605631 979.874111815 522.512001237 c 0
 863.748223629 393.106396843 863.748223629 393.106396843 706.334612279 359.180589172 c 0
 644.236629958 346 644.236629958 346 512 346 c 2
 350.302121526 346 l 1
 275.302121526 2.13162820728e-13 l 1
EndSplineSet
EndChar

StartChar: germandbls
Encoding: 223 223 161
Width: 1024
Flags: W
LayerCount: 2
Fore
SplineSet
892.239402408 750.057819264 m 0
 930 690.597614969 930 690.597614969 930 599.04893278 c 0
 930 531.491194167 930 531.491194167 910.289359778 434.962742594 c 0
 867.467172551 231.848917434 867.467172551 231.848917434 761.449888185 111.006063324 c 0
 650.025526101 -16 650.025526101 -16 469 -16 c 0
 421.624644492 -16 421.624644492 -16 356.327894837 -4.41509280321 c 2
 313.137201363 3.24777216797 l 1
 376.468322684 194.865011037 l 1
 430.098603198 184.138954934 430.098603198 184.138954934 446.236798621 182.069477467 c 0
 462.374994044 180 462.374994044 180 472 180 c 0
 579.204383829 180 579.204383829 180 631.590951329 258.993229253 c 0
 660.340932795 302.345065139 660.340932795 302.345065139 676.973735184 348.105163078 c 0
 693.231421089 392.833242083 693.231421089 392.833242083 707.615710545 459.437983341 c 0
 722 526.0427246 722 526.0427246 722 578.949119374 c 0
 722 649.027055888 722 649.027055888 692.530842677 685.119242819 c 0
 657.538013153 727.976516634 657.538013153 727.976516634 572 727.976516634 c 2
 526.019100348 727.976516634 l 1
 563.585767014 909.401174168 l 1
 595 909.401174168 l 2
 653.272722087 909.401174168 653.272722087 909.401174168 694.534671145 943.086906231 c 0
 713.34546762 958.443801977 713.34546762 958.443801977 725.556441219 979.329626598 c 0
 766 1048.5048704 766 1048.5048704 766 1126 c 0
 766 1202.84716314 766 1202.84716314 716.07353654 1221.83423642 c 0
 699.860676046 1228 699.860676046 1228 672.612343356 1228 c 0
 645.364010666 1228 645.364010666 1228 621.818405164 1222.70791897 c 0
 577.982656757 1212.85545062 577.982656757 1212.85545062 553.605210199 1184.9955117 c 0
 511.37455067 1136.73190081 511.37455067 1136.73190081 491.298902582 1032.70354254 c 2
 275.317692997 1.20792265079e-13 l 1
 69.8771071376 9.85825018063e-07 l 1
 288.719628336 1047.39094109 l 2
 321.969469536 1215.78529814 321.969469536 1215.78529814 425.778061823 1318.50688946 c 0
 532.387501578 1424 532.387501578 1424 699 1424 c 0
 761.219710028 1424 761.219710028 1424 812.092080696 1404.24139731 c 0
 862.964451364 1384.48279462 862.964451364 1384.48279462 899.497544931 1344.68251383 c 0
 971 1266.78553026 971 1266.78553026 971 1141 c 0
 971 1071.94601628 971 1071.94601628 951.966432322 1001.24990776 c 0
 932.932864644 935.468415935 932.932864644 935.468415935 886.977793974 875.400250344 c 0
 859.432638392 839.395802031 859.432638392 839.395802031 824.239134856 815.077413107 c 1
 867.85654255 788.452599032 867.85654255 788.452599032 892.239402408 750.057819264 c 0
EndSplineSet
EndChar

StartChar: agrave
Encoding: 224 224 162
Width: 1024
Flags: W
LayerCount: 2
Fore
SplineSet
681.862206441 474 m 1
 532 474 l 2
 496.829544699 474 496.829544699 474 479.172822751 472.510878872 c 0
 461.516100803 471.021757744 461.516100803 471.021757744 433.196091766 461.801698104 c 0
 364.986406623 439.59487733 364.986406623 439.59487733 325.995099765 365.121757568 c 0
 304 323.111272901 304 323.111272901 304 279.180722892 c 0
 304 232.91895707 304 232.91895707 332.029133286 205.811834747 c 0
 358.718921596 180 358.718921596 180 412 180 c 0
 470.718795318 180 470.718795318 180 520.400720997 202.635999819 c 0
 560.834288431 221.05827739 560.834288431 221.05827739 591.089066024 258.455278459 c 0
 630.046170294 306.608958172 630.046170294 306.608958172 651.768828833 367.277384035 c 0
 664.311559459 402.307521886 664.311559459 402.307521886 669.887504381 423.704370776 c 0
 675.463449304 445.101219667 675.463449304 445.101219667 681.862206441 474 c 1
581.862762463 -3.97903932026e-13 m 1
 594.794589493 66.2756135325 l 1
 486.482519875 -16 486.482519875 -16 366.578442319 -16 c 0
 246.674364763 -16 246.674364763 -16 171.837182382 58.7290929638 c 0
 97 133.458185928 97 133.458185928 97 250.991596639 c 0
 97 336.346892078 97 336.346892078 137.921591172 422.616178176 c 0
 178.843182343 508.885464274 178.843182343 508.885464274 251.718179847 567.427945928 c 1
 337.475728621 633.664684544 337.475728621 633.664684544 427.548210348 649.457037912 c 0
 470.250373679 656.943982204 470.250373679 656.943982204 489.024488523 658.103216917 c 0
 519.743395616 660 519.743395616 660 555 660 c 2
 717.74107302 660 l 1
 735.646078452 767.794253044 l 1
 746 836.99913693 746 836.99913693 746 855.414373923 c 0
 746 889.695114915 746 889.695114915 729.809714637 904 c 0
 721.779651795 881.501562374 721.779651795 881.501562374 702.509608832 862.750781187 c 0
 683.239565869 844 683.239565869 844 647 844 c 0
 529.338569361 844 529.338569361 844 359.644735655 823.281566815 c 2
 308.025838242 816.979259573 l 1
 345.853099891 1017.62821267 l 1
 373.715268852 1020.76064586 l 2
 544.844260916 1040 544.844260916 1040 670 1040 c 0
 811.461766876 1040 811.461766876 1040 879.915839633 981.086777385 c 0
 952 918.389921057 952 918.389921057 952 825.663082437 c 0
 952 794.621351134 952 794.621351134 939.437348692 727.305352192 c 0
 939.298057698 726.601411371 939.298057698 726.601411371 787.313966649 -3.97903932026e-13 c 1
 581.862762463 -3.97903932026e-13 l 1
656.50568597 1408 m 1
 806.94318597 1076 l 1
 585.49431403 1076 l 1
 435.05681403 1408 l 1
 656.50568597 1408 l 1
EndSplineSet
EndChar

StartChar: aacute
Encoding: 225 225 163
Width: 1024
Flags: W
LayerCount: 2
Fore
SplineSet
681.862206441 474 m 1
 532 474 l 2
 496.829544699 474 496.829544699 474 479.172822751 472.510878872 c 0
 461.516100803 471.021757744 461.516100803 471.021757744 433.196091766 461.801698104 c 0
 364.986406623 439.59487733 364.986406623 439.59487733 325.995099765 365.121757568 c 0
 304 323.111272901 304 323.111272901 304 279.180722892 c 0
 304 232.91895707 304 232.91895707 332.029133286 205.811834747 c 0
 358.718921596 180 358.718921596 180 412 180 c 0
 470.718795318 180 470.718795318 180 520.400720997 202.635999819 c 0
 560.834288431 221.05827739 560.834288431 221.05827739 591.089066024 258.455278459 c 0
 630.046170294 306.608958172 630.046170294 306.608958172 651.768828833 367.277384035 c 0
 664.311559459 402.307521886 664.311559459 402.307521886 669.887504381 423.704370776 c 0
 675.463449304 445.101219667 675.463449304 445.101219667 681.862206441 474 c 1
581.862762463 -3.97903932026e-13 m 1
 594.794589493 66.2756135325 l 1
 486.482519875 -16 486.482519875 -16 366.578442319 -16 c 0
 246.674364763 -16 246.674364763 -16 171.837182382 58.7290929638 c 0
 97 133.458185928 97 133.458185928 97 250.991596639 c 0
 97 336.346892078 97 336.346892078 137.921591172 422.616178176 c 0
 178.843182343 508.885464274 178.843182343 508.885464274 251.718179847 567.427945928 c 1
 337.475728621 633.664684544 337.475728621 633.664684544 427.548210348 649.457037912 c 0
 470.250373679 656.943982204 470.250373679 656.943982204 489.024488523 658.103216917 c 0
 519.743395616 660 519.743395616 660 555 660 c 2
 717.74107302 660 l 1
 735.646078452 767.794253044 l 1
 746 836.99913693 746 836.99913693 746 855.414373923 c 0
 746 889.695114915 746 889.695114915 729.809714637 904 c 0
 721.779651795 881.501562374 721.779651795 881.501562374 702.509608832 862.750781187 c 0
 683.239565869 844 683.239565869 844 647 844 c 0
 529.338569361 844 529.338569361 844 359.644735655 823.281566815 c 2
 308.025838242 816.979259573 l 1
 345.853099891 1017.62821267 l 1
 373.715268852 1020.76064586 l 2
 544.844260916 1040 544.844260916 1040 670 1040 c 0
 811.461766876 1040 811.461766876 1040 879.915839633 981.086777385 c 0
 952 918.389921057 952 918.389921057 952 825.663082437 c 0
 952 794.621351134 952 794.621351134 939.437348692 727.305352192 c 0
 939.298057698 726.601411371 939.298057698 726.601411371 787.313966649 -3.97903932026e-13 c 1
 581.862762463 -3.97903932026e-13 l 1
135 228 m 1025
490.226666082 1076 m 1
 770.351666082 1408 l 1
 1007.77333392 1408 l 1
 727.648333918 1076 l 1
 490.226666082 1076 l 1
EndSplineSet
EndChar

